{
.appVersion = "3434";
.formatVersion = 3;
DisplayStrings = (
HI,
n,
O,
n,
o
);
axes = (
{
default = 400;
name = Weight;
tag = wght;
}
);
customParameters = (
{
name = glyphOrder;
value = (
A,
B,
C,
D,
E,
F,
G,
H,
I,
J,
K,
L,
M,
N,
O,
P,
Q,
R,
S,
T,
U,
V,
W,
X,
Y,
Z,
a,
b,
c,
d,
e,
f,
g,
h,
i,
j,
k,
l,
m,
n,
o,
p,
q,
r,
s,
t,
u,
v,
w,
x,
y,
z,
"hamza-ar",
"alef-ar",
"alef-ar.fina",
"alefHamzaabove-ar",
"alefHamzaabove-ar.fina",
"alefHamzabelow-ar",
"alefHamzabelow-ar.fina",
"alefMadda-ar",
"alefMadda-ar.fina",
"alefWasla-ar",
"alefWasla-ar.fina",
"behDotless-ar",
"behDotless-ar.fina",
"behDotless-ar.medi",
"behDotless-ar.init",
"beh-ar",
"beh-ar.fina",
"beh-ar.medi",
"beh-ar.init",
"teh-ar",
"teh-ar.fina",
"teh-ar.medi",
"teh-ar.init",
"theh-ar",
"theh-ar.fina",
"theh-ar.medi",
"theh-ar.init",
"jeem-ar",
"jeem-ar.fina",
"jeem-ar.medi",
"jeem-ar.init",
"hah-ar",
"hah-ar.fina",
"hah-ar.medi",
"hah-ar.init",
"khah-ar",
"khah-ar.fina",
"khah-ar.medi",
"khah-ar.init",
"dal-ar",
"dal-ar.fina",
"thal-ar",
"thal-ar.fina",
"reh-ar",
"reh-ar.fina",
"zain-ar",
"zain-ar.fina",
"seen-ar",
"seen-ar.fina",
"seen-ar.medi",
"seen-ar.init",
"sheen-ar",
"sheen-ar.fina",
"sheen-ar.medi",
"sheen-ar.init",
"sad-ar",
"sad-ar.fina",
"sad-ar.medi",
"sad-ar.init",
"dad-ar",
"dad-ar.fina",
"dad-ar.medi",
"dad-ar.init",
"tah-ar",
"tah-ar.fina",
"tah-ar.medi",
"tah-ar.init",
"zah-ar",
"zah-ar.fina",
"zah-ar.medi",
"zah-ar.init",
"ain-ar",
"ain-ar.fina",
"ain-ar.medi",
"ain-ar.init",
"ghain-ar",
"ghain-ar.fina",
"ghain-ar.medi",
"ghain-ar.init",
"feh-ar",
"feh-ar.fina",
"feh-ar.medi",
"feh-ar.init",
"veh-ar",
"veh-ar.fina",
"veh-ar.medi",
"veh-ar.init",
"fehDotless-ar",
"fehDotless-ar.fina",
"fehDotless-ar.medi",
"fehDotless-ar.init",
"qafDotless-ar",
"qafDotless-ar.fina",
"qaf-ar",
"qaf-ar.fina",
"qaf-ar.medi",
"qaf-ar.init",
"kaf-ar",
"kaf-ar.fina",
"kaf-ar.medi",
"kaf-ar.init",
"lam-ar",
"lam-ar.fina",
"lam-ar.medi",
"lam-ar.init",
"meem-ar",
"meem-ar.fina",
"meem-ar.medi",
"meem-ar.init",

glyphs = (
{
glyphname = A;
kernLeft = A;
kernRight = A;
lastChange = "2025-07-19 23:13:11 +0000";
layers = (
{
layerId = m001;
shapes = (
{
closed = 1;
nodes = (
(96,0,l),
(112,16,l),
(188,224,l),
(196,232,l),
(500,232,l),
(508,224,l),
(584,16,l),
(600,0,l),
(660,0,l),
(676,16,l),
(676,64,l),
(416,752,l),
(400,768,l),
(300,768,l),
(284,752,l),
(24,64,l),
(24,16,l),
(40,0,l)
);
},
{
closed = 1;
nodes = (
(224,328,l),
(344,672,l),
(352,672,l),
(472,328,l),
(464,320,l),
(232,320,l)
);
}
);
width = 700;
},
{
layerId = m002;
shapes = (
{
closed = 1;
nodes = (
(96,0,l),
(112,16,l),
(188,224,l),
(196,232,l),
(500,232,l),
(508,224,l),
(584,16,l),
(600,0,l),
(660,0,l),
(676,16,l),
(676,64,l),
(416,752,l),
(400,768,l),
(300,768,l),
(284,752,l),
(24,64,l),
(24,16,l),
(40,0,l)
);
},
{
closed = 1;
nodes = (
(224,328,l),
(344,672,l),
(352,672,l),
(472,328,l),
(464,320,l),
(232,320,l)
);
}
);
width = 700;
}
);
unicode = 65;
},
{
glyphname = B;
lastChange = "2025-07-19 06:50:03 +0000";
layers = (
{
layerId = m001;
shapes = (
{
closed = 1;
nodes = (
(444,0,ls),
(588,0,o),
(684,78,o),
(684,206,cs),
(684,318,o),
(606,392,o),
(520,404,c),
(520,412,l),
(584,428,o),
(644,492,o),
(644,572,cs),
(644,700,o),
(552,768,o),
(408,768,cs),
(96,768,l),
(80,752,l),
(80,16,l),
(96,0,l)
);
},
{
closed = 1;
nodes = (
(184,444,l),
(184,668,l),
(192,676,l),
(416,676,ls),
(492,676,o),
(536,628,o),
(536,556,cs),
(536,484,o),
(492,436,o),
(416,436,cs),
(192,436,l)
);
},
{
closed = 1;
nodes = (
(184,104,l),
(184,336,l),
(192,344,l),
(452,344,ls),
(528,344,o),
(576,294,o),
(576,222,cs),
(576,150,o),
(528,96,o),
(452,96,cs),
(192,96,l)
);
}
);
width = 716;
},
{
layerId = m002;
shapes = (
{
closed = 1;
nodes = (
(444,0,ls),
(588,0,o),
(684,78,o),
(684,206,cs),
(684,318,o),
(606,392,o),
(520,404,c),
(520,412,l),
(584,428,o),
(644,492,o),
(644,572,cs),
(644,700,o),
(552,768,o),
(408,768,cs),
(96,768,l),
(80,752,l),
(80,16,l),
(96,0,l)
);
},
{
closed = 1;
nodes = (
(184,444,l),
(184,668,l),
(192,676,l),
(416,676,ls),
(492,676,o),
(536,628,o),
(536,556,cs),
(536,484,o),
(492,436,o),
(416,436,cs),
(192,436,l)
);
},
{
closed = 1;
nodes = (
(184,104,l),
(184,336,l),
(192,344,l),
(452,344,ls),
(528,344,o),
(576,294,o),
(576,222,cs),
(576,150,o),
(528,96,o),
(452,96,cs),
(192,96,l)
);
}
);
width = 716;
}
);
metricLeft = H;
unicode = 66;
},
{
glyphname = C;
kernLeft = O;
kernRight = C;
lastChange = "2025-07-19 21:23:40 +0000";
layers = (
{
layerId = m001;
shapes = (
{
closed = 1;
nodes = (
(626,-16,o),
(728,128,o),
(752,264,c),
(752,280,l),
(736,296,l),
(664,296,l),
(648,280,l),
(622,178,o),
(562,80,o),
(416,80,cs),
(264,80,o),
(156,208,o),
(156,384,cs),
(156,560,o),
(264,688,o),
(408,688,cs),
(542,688,o),
(608,612,o),
(632,544,c),
(648,528,l),
(720,528,l),
(736,544,l),
(736,560,l),
(712,668,o),
(598,784,o),
(408,784,cs),
(192,784,o),
(48,616,o),
(48,384,cs),
(48,152,o),
(192,-16,o),
(416,-16,cs)
);
}
);
width = 784;
},
{
layerId = m002;
shapes = (
{
closed = 1;
nodes = (
(626,-16,o),
(728,128,o),
(752,264,c),
(752,280,l),
(736,296,l),
(664,296,l),
(648,280,l),
(622,178,o),
(562,80,o),
(416,80,cs),
(264,80,o),
(156,208,o),
(156,384,cs),
(156,560,o),
(264,688,o),
(408,688,cs),
(542,688,o),
(608,612,o),
(632,544,c),
(648,528,l),
(720,528,l),
(736,544,l),
(736,560,l),
(712,668,o),
(598,784,o),
(408,784,cs),
(192,784,o),
(48,616,o),
(48,384,cs),
(48,152,o),
(192,-16,o),
(416,-16,cs)
);
}
);
width = 784;
}
);
metricLeft = O;
unicode = 67;
},
{
glyphname = D;
lastChange = "2025-07-19 05:19:24 +0000";
layers = (
{
layerId = m001;
shapes = (
{
closed = 1;
nodes = (
(340,0,ls),
(580,0,o),
(708,128,o),
(708,384,cs),
(708,640,o),
(580,768,o),
(340,768,cs),
(96,768,l),
(80,752,l),
(80,16,l),
(104,0,l)
);
},
{
closed = 1;
nodes = (
(184,104,l),
(184,664,l),
(192,672,l),
(324,672,ls),
(516,672,o),
(600,580,o),
(600,384,cs),
(600,184,o),
(516,96,o),
(324,96,cs),
(200,96,l)
);
}
);
width = 756;
},
{
layerId = m002;
shapes = (
{
closed = 1;
nodes = (
(340,0,ls),
(580,0,o),
(708,128,o),
(708,384,cs),
(708,640,o),
(580,768,o),
(340,768,cs),
(96,768,l),
(80,752,l),
(80,16,l),
(104,0,l)
);
},
{
closed = 1;
nodes = (
(184,104,l),
(184,664,l),
(192,672,l),
(324,672,ls),
(516,672,o),
(600,580,o),
(600,384,cs),
(600,184,o),
(516,96,o),
(324,96,cs),
(200,96,l)
);
}
);
width = 756;
}
);
metricLeft = H;
metricRight = O;
unicode = 68;
},
{
glyphname = E;
lastChange = "2025-07-19 05:22:12 +0000";
layers = (
{
layerId = m001;
shapes = (
{
closed = 1;
nodes = (
(624,0,l),
(640,16,l),
(640,80,l),
(624,96,l),
(192,96,l),
(184,104,l),
(184,342,l),
(192,350,l),
(576,350,l),
(592,366,l),
(592,422,l),
(576,438,l),
(192,438,l),
(184,446,l),
(184,668,l),
(192,676,l),
(608,676,l),
(624,692,l),
(624,752,l),
(608,768,l),
(96,768,l),
(80,752,l),
(80,16,l),
(96,0,l)
);
}
);
width = 672;
},
{
layerId = m002;
shapes = (
{
closed = 1;
nodes = (
(624,0,l),
(640,16,l),
(640,80,l),
(624,96,l),
(192,96,l),
(184,104,l),
(184,342,l),
(192,350,l),
(576,350,l),
(592,366,l),
(592,422,l),
(576,438,l),
(192,438,l),
(184,446,l),
(184,668,l),
(192,676,l),
(608,676,l),
(624,692,l),
(624,752,l),
(608,768,l),
(96,768,l),
(80,752,l),
(80,16,l),
(96,0,l)
);
}
);
width = 672;
}
);
metricLeft = H;
unicode = 69;
},
{
glyphname = F;
kernLeft = H;
kernRight = F;
lastChange = "2025-07-19 06:50:56 +0000";
layers = (
{
layerId = m001;
shapes = (
{
closed = 1;
nodes = (
(168,0,l),
(184,16,l),
(184,342,l),
(192,350,l),
(512,350,l),
(528,366,l),
(528,422,l),
(512,438,l),
(192,438,l),
(184,446,l),
(184,668,l),
(192,676,l),
(576,676,l),
(592,692,l),
(592,752,l),
(576,768,l),
(96,768,l),
(80,752,l),
(80,16,l),
(96,0,l)
);
}
);
width = 616;
},
{
layerId = m002;
shapes = (
{
closed = 1;
nodes = (
(168,0,l),
(184,16,l),
(184,342,l),
(192,350,l),
(512,350,l),
(528,366,l),
(528,422,l),
(512,438,l),
(192,438,l),
(184,446,l),
(184,668,l),
(192,676,l),
(576,676,l),
(592,692,l),
(592,752,l),
(576,768,l),
(96,768,l),
(80,752,l),
(80,16,l),
(96,0,l)
);
}
);
width = 616;
}
);
metricLeft = H;
unicode = 70;
},
{
glyphname = G;
kernLeft = O;
kernRight = G;
lastChange = "2025-07-19 06:50:42 +0000";
layers = (
{
layerId = m001;
shapes = (
{
closed = 1;
nodes = (
(512,-16,o),
(600,24,o),
(656,120,c),
(664,120,l),
(664,16,l),
(680,0,l),
(744,0,l),
(760,16,l),
(760,400,l),
(744,416,l),
(448,416,l),
(432,400,l),
(432,336,l),
(448,320,l),
(656,320,l),
(664,312,l),
(664,296,ls),
(664,192,o),
(564,80,o),
(416,80,cs),
(264,80,o),
(156,208,o),
(156,384,cs),
(156,560,o),
(264,688,o),
(408,688,cs),
(542,688,o),
(608,612,o),
(632,544,c),
(648,528,l),
(720,528,l),
(736,544,l),
(736,560,l),
(712,668,o),
(598,784,o),
(408,784,cs),
(192,784,o),
(48,616,o),
(48,384,cs),
(48,152,o),
(192,-16,o),
(416,-16,cs)
);
}
);
width = 816;
},
{
layerId = m002;
shapes = (
{
closed = 1;
nodes = (
(512,-16,o),
(600,24,o),
(656,120,c),
(664,120,l),
(664,16,l),
(680,0,l),
(744,0,l),
(760,16,l),
(760,400,l),
(744,416,l),
(448,416,l),
(432,400,l),
(432,336,l),
(448,320,l),
(656,320,l),
(664,312,l),
(664,296,ls),
(664,192,o),
(564,80,o),
(416,80,cs),
(264,80,o),
(156,208,o),
(156,384,cs),
(156,560,o),
(264,688,o),
(408,688,cs),
(542,688,o),
(608,612,o),
(632,544,c),
(648,528,l),
(720,528,l),
(736,544,l),
(736,560,l),
(712,668,o),
(598,784,o),
(408,784,cs),
(192,784,o),
(48,616,o),
(48,384,cs),
(48,152,o),
(192,-16,o),
(416,-16,cs)
);
}
);
width = 816;
}
);
metricLeft = O;
unicode = 71;
},
{
glyphname = H;
lastChange = "2025-10-24 01:05:11 +0000";
layers = (
{
layerId = m001;
shapes = (
{
closed = 1;
nodes = (
(168,0,l),
(184,16,l),
(184,352,l),
(192,360,l),
(576,360,l),
(584,352,l),
(584,16,l),
(600,0,l),
(672,0,l),
(688,16,l),
(688,752,l),
(672,768,l),
(600,768,l),
(584,752,l),
(584,464,l),
(576,456,l),
(192,456,l),
(184,464,l),
(184,752,l),
(168,768,l),
(96,768,l),
(80,752,l),
(80,16,l),
(96,0,l)
);
}
);
width = 768;
},
{
layerId = m002;
shapes = (
{
closed = 1;
nodes = (
(264,0,l),
(280,16,l),
(280,312,l),
(288,320,l),
(528,320,l),
(536,312,l),
(536,16,l),
(552,0,l),
(720,0,l),
(736,16,l),
(736,752,l),
(720,768,l),
(552,768,l),
(536,752,l),
(536,488,l),
(528,480,l),
(288,480,l),
(280,488,l),
(280,752,l),
(264,768,l),
(96,768,l),
(80,752,l),
(80,16,l),
(96,0,l)
);
}
);
width = 816;
}
);
unicode = 72;
},
{
glyphname = I;
lastChange = "2025-10-24 01:05:16 +0000";
layers = (
{
layerId = m001;
shapes = (
{
closed = 1;
nodes = (
(168,0,l),
(184,16,l),
(184,752,l),
(168,768,l),
(96,768,l),
(80,752,l),
(80,16,l),
(96,0,l)
);
}
);
width = 264;
},
{
layerId = m002;
shapes = (
{
closed = 1;
nodes = (
(264,0,l),
(280,16,l),
(280,752,l),
(264,768,l),
(96,768,l),
(80,752,l),
(80,16,l),
(96,0,l)
);
}
);
width = 360;
}
);
metricLeft = H;
metricRight = H;
unicode = 73;
},
{
glyphname = J;
lastChange = "2025-07-19 06:51:42 +0000";
layers = (
{
layerId = m001;
shapes = (
{
closed = 1;
nodes = (
(408,-16,o),
(480,72,o),
(480,224,cs),
(480,752,l),
(464,768,l),
(392,768,l),
(376,752,l),
(376,208,ls),
(376,144,o),
(336,80,o),
(248,80,cs),
(160,80,o),
(120,144,o),
(120,208,cs),
(120,276,l),
(104,292,l),
(32,292,l),
(16,276,l),
(16,224,ls),
(16,72,o),
(88,-16,o),
(248,-16,cs)
);
}
);
width = 552;
},
{
layerId = m002;
shapes = (
{
closed = 1;
nodes = (
(408,-16,o),
(480,72,o),
(480,224,cs),
(480,752,l),
(464,768,l),
(392,768,l),
(376,752,l),
(376,208,ls),
(376,144,o),
(336,80,o),
(248,80,cs),
(160,80,o),
(120,144,o),
(120,208,cs),
(120,276,l),
(104,292,l),
(32,292,l),
(16,276,l),
(16,224,ls),
(16,72,o),
(88,-16,o),
(248,-16,cs)
);
}
);
width = 552;
}
);
unicode = 74;
},
{
glyphname = K;
lastChange = "2025-07-19 18:01:03 +0000";
layers = (
{
layerId = m001;
shapes = (
{
closed = 1;
nodes = (
(168,0,l),
(184,16,l),
(184,272,l),
(292,380,l),
(300,380,l),
(578,0,l),
(644,0,l),
(660,16,l),
(660,64,l),
(374,456,l),
(374,464,l),
(616,704,l),
(616,752,l),
(600,768,l),
(548,768,l),
(192,412,l),
(184,412,l),
(184,752,l),
(168,768,l),
(96,768,l),
(80,752,l),
(80,16,l),
(96,0,l)
);
}
);
width = 676;
},
{
layerId = m002;
shapes = (
{
closed = 1;
nodes = (
(168,0,l),
(184,16,l),
(184,272,l),
(292,380,l),
(300,380,l),
(578,0,l),
(644,0,l),
(660,16,l),
(660,64,l),
(374,456,l),
(374,464,l),
(616,704,l),
(616,752,l),
(600,768,l),
(548,768,l),
(192,412,l),
(184,412,l),
(184,752,l),
(168,768,l),
(96,768,l),
(80,752,l),
(80,16,l),
(96,0,l)
);
}
);
width = 676;
}
);
metricLeft = H;
unicode = 75;
},
{
glyphname = L;
lastChange = "2025-07-19 06:17:38 +0000";
layers = (
{
layerId = m001;
shapes = (
{
closed = 1;
nodes = (
(568,0,l),
(584,16,l),
(584,80,l),
(568,96,l),
(192,96,l),
(184,104,l),
(184,752,l),
(168,768,l),
(96,768,l),
(80,752,l),
(80,16,l),
(96,0,l)
);
}
);
width = 608;
},
{
layerId = m002;
shapes = (
{
closed = 1;
nodes = (
(568,0,l),
(584,16,l),
(584,80,l),
(568,96,l),
(192,96,l),
(184,104,l),
(184,752,l),
(168,768,l),
(96,768,l),
(80,752,l),
(80,16,l),
(96,0,l)
);
}
);
width = 608;
}
);
metricLeft = H;
unicode = 76;
},
{
glyphname = M;
lastChange = "2025-07-19 06:36:19 +0000";
layers = (
{
layerId = m001;
shapes = (
{
closed = 1;
nodes = (
(160,0,l),
(176,16,l),
(176,442,l),
(172,610,l),
(180,610,l),
(416,16,l),
(432,0,l),
(480,0,l),
(496,16,l),
(732,610,l),
(740,610,l),
(736,442,l),
(736,16,l),
(752,0,l),
(816,0,l),
(832,16,l),
(832,752,l),
(816,768,l),
(712,768,l),
(696,752,l),
(460,146,l),
(452,146,l),
(216,752,l),
(200,768,l),
(96,768,l),
(80,752,l),
(80,16,l),
(96,0,l)
);
}
);
width = 912;
},
{
layerId = m002;
shapes = (
{
closed = 1;
nodes = (
(160,0,l),
(176,16,l),
(176,442,l),
(172,610,l),
(180,610,l),
(416,16,l),
(432,0,l),
(480,0,l),
(496,16,l),
(732,610,l),
(740,610,l),
(736,442,l),
(736,16,l),
(752,0,l),
(816,0,l),
(832,16,l),
(832,752,l),
(816,768,l),
(712,768,l),
(696,752,l),
(460,146,l),
(452,146,l),
(216,752,l),
(200,768,l),
(96,768,l),
(80,752,l),
(80,16,l),
(96,0,l)
);
}
);
width = 912;
}
);
metricLeft = H;
metricRight = H;
unicode = 77;
},
{
glyphname = N;
lastChange = "2025-07-19 07:33:49 +0000";
layers = (
{
layerId = m001;
shapes = (
{
closed = 1;
nodes = (
(168,0,l),
(184,16,l),
(184,600,l),
(192,600,l),
(574,16,l),
(590,0,l),
(678,0,l),
(694,16,l),
(694,752,l),
(678,768,l),
(606,768,l),
(590,752,l),
(590,168,l),
(582,168,l),
(200,752,l),
(184,768,l),
(96,768,l),
(80,752,l),
(80,16,l),
(96,0,l)
);
}
);
width = 774;
},
{
layerId = m002;
shapes = (
{
closed = 1;
nodes = (
(168,0,l),
(184,16,l),
(184,600,l),
(192,600,l),
(574,16,l),
(590,0,l),
(678,0,l),
(694,16,l),
(694,752,l),
(678,768,l),
(606,768,l),
(590,752,l),
(590,168,l),
(582,168,l),
(200,752,l),
(184,768,l),
(96,768,l),
(80,752,l),
(80,16,l),
(96,0,l)
);
}
);
width = 774;
}
);
metricLeft = H;
metricRight = H;
unicode = 78;
},
{
glyphname = O;
lastChange = "2025-10-24 01:12:05 +0000";
layers = (
{
layerId = m001;
shapes = (
{
closed = 1;
nodes = (
(656,-16,o),
(800,152,o),
(800,384,cs),
(800,616,o),
(656,784,o),
(424,784,cs),
(192,784,o),
(48,616,o),
(48,384,cs),
(48,152,o),
(192,-16,o),
(424,-16,cs)
);
},
{
closed = 1;
nodes = (
(248,80,o),
(156,208,o),
(156,384,cs),
(156,560,o),
(248,688,o),
(424,688,cs),
(600,688,o),
(692,560,o),
(692,384,cs),
(692,208,o),
(600,80,o),
(424,80,cs)
);
}
);
width = 848;
},
{
backgroundImage = {
imagePath = "../../../../Desktop/Screenshot 2025-10-23 at 4.05.36 PM.png";
pos = (-1108,-100);
scale = (2.02,2.02);
};
layerId = m002;
shapes = (
{
closed = 1;
nodes = (
(656,-16,o),
(800,152,o),
(800,384,cs),
(800,616,o),
(656,784,o),
(424,784,cs),
(192,784,o),
(48,616,o),
(48,384,cs),
(48,152,o),
(192,-16,o),
(424,-16,cs)
);
},
{
closed = 1;
nodes = (
(296,144,o),
(236,240,o),
(236,384,cs),
(236,528,o),
(296,624,o),
(424,624,cs),
(552,624,o),
(612,528,o),
(612,384,cs),
(612,240,o),
(552,144,o),
(424,144,cs)
);
}
);
width = 848;
}
);
unicode = 79;
},
{
glyphname = P;
kernLeft = H;
kernRight = P;
lastChange = "2025-07-19 21:12:47 +0000";
layers = (
{
layerId = m001;
shapes = (
{
closed = 1;
nodes = (
(184,424,l),
(184,664,l),
(192,672,l),
(368,672,ls),
(440,672,o),
(496,616,o),
(496,544,cs),
(496,472,o),
(440,416,o),
(368,416,cs),
(192,416,l)
);
},
{
closed = 1;
nodes = (
(168,0,l),
(184,16,l),
(184,320,l),
(192,328,l),
(376,328,ls),
(504,328,o),
(604,416,o),
(604,544,cs),
(604,672,o),
(504,768,o),
(376,768,cs),
(96,768,l),
(80,752,l),
(80,16,l),
(96,0,l)
);
}
);
width = 632;
},
{
layerId = m002;
shapes = (
{
closed = 1;
nodes = (
(184,424,l),
(184,664,l),
(192,672,l),
(368,672,ls),
(440,672,o),
(496,616,o),
(496,544,cs),
(496,472,o),
(440,416,o),
(368,416,cs),
(192,416,l)
);
},
{
closed = 1;
nodes = (
(168,0,l),
(184,16,l),
(184,320,l),
(192,328,l),
(376,328,ls),
(504,328,o),
(604,416,o),
(604,544,cs),
(604,672,o),
(504,768,o),
(376,768,cs),
(96,768,l),
(80,752,l),
(80,16,l),
(96,0,l)
);
}
);
width = 632;
}
);
metricLeft = H;
unicode = 80;
},
{
glyphname = Q;
lastChange = "2025-07-19 19:10:15 +0000";
layers = (
{
layerId = m001;
shapes = (
{
closed = 1;
nodes = (
(518,-16,o),
(594,12,o),
(656,56,c),
(664,56,l),
(720,0,l),
(784,0,l),
(800,16,l),
(800,64,l),
(734,130,l),
(734,138,l),
(776,206,o),
(800,290,o),
(800,384,cs),
(800,616,o),
(656,784,o),
(424,784,cs),
(192,784,o),
(48,616,o),
(48,384,cs),
(48,152,o),
(192,-16,o),
(424,-16,cs)
);
},
{
closed = 1;
nodes = (
(248,80,o),
(156,208,o),
(156,384,cs),
(156,560,o),
(248,688,o),
(424,688,cs),
(600,688,o),
(692,560,o),
(692,384,cs),
(692,318,o),
(682,266,o),
(656,216,c),
(648,216,l),
(504,360,l),
(440,360,l),
(424,344,l),
(424,296,l),
(584,136,l),
(584,128,l),
(542,100,o),
(492,80,o),
(424,80,cs)
);
}
);
width = 848;
},
{
layerId = m002;
shapes = (
{
closed = 1;
nodes = (
(518,-16,o),
(594,12,o),
(656,56,c),
(664,56,l),
(720,0,l),
(784,0,l),
(800,16,l),
(800,64,l),
(734,130,l),
(734,138,l),
(776,206,o),
(800,290,o),
(800,384,cs),
(800,616,o),
(656,784,o),
(424,784,cs),
(192,784,o),
(48,616,o),
(48,384,cs),
(48,152,o),
(192,-16,o),
(424,-16,cs)
);
},
{
closed = 1;
nodes = (
(248,80,o),
(156,208,o),
(156,384,cs),
(156,560,o),
(248,688,o),
(424,688,cs),
(600,688,o),
(692,560,o),
(692,384,cs),
(692,318,o),
(682,266,o),
(656,216,c),
(648,216,l),
(504,360,l),
(440,360,l),
(424,344,l),
(424,296,l),
(584,136,l),
(584,128,l),
(542,100,o),
(492,80,o),
(424,80,cs)
);
}
);
width = 848;
}
);
unicode = 81;
},
{
glyphname = R;
lastChange = "2025-07-19 21:13:47 +0000";
layers = (
{
layerId = m001;
shapes = (
{
closed = 1;
nodes = (
(184,424,l),
(184,664,l),
(192,672,l),
(368,672,ls),
(440,672,o),
(496,616,o),
(496,544,cs),
(496,472,o),
(440,416,o),
(368,416,cs),
(192,416,l)
);
},
{
closed = 1;
nodes = (
(168,0,l),
(184,16,l),
(184,320,l),
(192,328,l),
(360,328,ls),
(456,328,o),
(496,288,o),
(496,192,cs),
(496,16,l),
(512,0,l),
(584,0,l),
(600,16,l),
(600,208,ls),
(600,304,o),
(544,360,o),
(472,368,c),
(472,376,l),
(528,392,o),
(604,448,o),
(604,544,cs),
(604,672,o),
(504,768,o),
(376,768,cs),
(96,768,l),
(80,752,l),
(80,16,l),
(96,0,l)
);
}
);
width = 668;
},
{
layerId = m002;
shapes = (
{
closed = 1;
nodes = (
(184,424,l),
(184,664,l),
(192,672,l),
(368,672,ls),
(440,672,o),
(496,616,o),
(496,544,cs),
(496,472,o),
(440,416,o),
(368,416,cs),
(192,416,l)
);
},
{
closed = 1;
nodes = (
(168,0,l),
(184,16,l),
(184,320,l),
(192,328,l),
(360,328,ls),
(456,328,o),
(496,288,o),
(496,192,cs),
(496,16,l),
(512,0,l),
(584,0,l),
(600,16,l),
(600,208,ls),
(600,304,o),
(544,360,o),
(472,368,c),
(472,376,l),
(528,392,o),
(604,448,o),
(604,544,cs),
(604,672,o),
(504,768,o),
(376,768,cs),
(96,768,l),
(80,752,l),
(80,16,l),
(96,0,l)
);
}
);
width = 668;
}
);
metricLeft = H;
unicode = 82;
},
{
glyphname = S;
lastChange = "2025-07-19 22:24:30 +0000";
layers = (
{
layerId = m001;
shapes = (
{
closed = 1;
nodes = (
(510,-16,o),
(632,56,o),
(632,198,cs),
(632,324,o),
(576,394,o),
(366,446,cs),
(244,476,o),
(166,508,o),
(166,580,cs),
(166,644,o),
(204,688,o),
(316,688,cs),
(454,688,o),
(494,608,o),
(502,560,c),
(518,544,l),
(588,544,l),
(604,560,l),
(604,576,l),
(588,682,o),
(506,784,o),
(316,784,cs),
(134,784,o),
(62,688,o),
(62,580,cs),
(62,452,o),
(150,398,o),
(316,358,cs),
(490,316,o),
(528,270,o),
(528,198,cs),
(528,106,o),
(450,80,o),
(354,80,cs),
(230,80,o),
(146,152,o),
(134,246,c),
(118,262,l),
(48,262,l),
(32,246,l),
(32,230,l),
(44,100,o),
(154,-16,o),
(354,-16,cs)
);
}
);
width = 664;
},
{
layerId = m002;
shapes = (
{
closed = 1;
nodes = (
(510,-16,o),
(632,56,o),
(632,198,cs),
(632,324,o),
(576,394,o),
(366,446,cs),
(244,476,o),
(166,508,o),
(166,580,cs),
(166,644,o),
(204,688,o),
(316,688,cs),
(454,688,o),
(494,608,o),
(502,560,c),
(518,544,l),
(588,544,l),
(604,560,l),
(604,576,l),
(588,682,o),
(506,784,o),
(316,784,cs),
(134,784,o),
(62,688,o),
(62,580,cs),
(62,452,o),
(150,398,o),
(316,358,cs),
(490,316,o),
(528,270,o),
(528,198,cs),
(528,106,o),
(450,80,o),
(354,80,cs),
(230,80,o),
(146,152,o),
(134,246,c),
(118,262,l),
(48,262,l),
(32,246,l),
(32,230,l),
(44,100,o),
(154,-16,o),
(354,-16,cs)
);
}
);
width = 664;
}
);
unicode = 83;
},
{
glyphname = T;
kernLeft = T;
kernRight = T;
lastChange = "2025-07-19 22:04:51 +0000";
layers = (
{
layerId = m001;
shapes = (
{
closed = 1;
nodes = (
(328,0,l),
(344,16,l),
(344,664,l),
(352,672,l),
(552,672,l),
(568,688,l),
(568,752,l),
(552,768,l),
(32,768,l),
(16,752,l),
(16,688,l),
(32,672,l),
(232,672,l),
(240,664,l),
(240,16,l),
(256,0,l)
);
}
);
width = 584;
},
{
layerId = m002;
shapes = (
{
closed = 1;
nodes = (
(328,0,l),
(344,16,l),
(344,664,l),
(352,672,l),
(552,672,l),
(568,688,l),
(568,752,l),
(552,768,l),
(32,768,l),
(16,752,l),
(16,688,l),
(32,672,l),
(232,672,l),
(240,664,l),
(240,16,l),
(256,0,l)
);
}
);
width = 584;
}
);
unicode = 84;
},
{
glyphname = U;
lastChange = "2025-07-19 22:26:38 +0000";
layers = (
{
layerId = m001;
shapes = (
{
closed = 1;
nodes = (
(548,-16,o),
(672,84,o),
(672,260,cs),
(672,752,l),
(656,768,l),
(584,768,l),
(568,752,l),
(568,276,ls),
(568,164,o),
(484,80,o),
(372,80,cs),
(260,80,o),
(176,164,o),
(176,276,cs),
(176,752,l),
(160,768,l),
(88,768,l),
(72,752,l),
(72,260,ls),
(72,84,o),
(196,-16,o),
(372,-16,cs)
);
}
);
width = 744;
},
{
layerId = m002;
shapes = (
{
closed = 1;
nodes = (
(548,-16,o),
(672,84,o),
(672,260,cs),
(672,752,l),
(656,768,l),
(584,768,l),
(568,752,l),
(568,276,ls),
(568,164,o),
(484,80,o),
(372,80,cs),
(260,80,o),
(176,164,o),
(176,276,cs),
(176,752,l),
(160,768,l),
(88,768,l),
(72,752,l),
(72,260,ls),
(72,84,o),
(196,-16,o),
(372,-16,cs)
);
}
);
width = 744;
}
);
unicode = 85;
},
{
color = 5;
glyphname = V;
kernLeft = V;
kernRight = V;
lastChange = "2025-10-23 06:41:18 +0000";
layers = (
{
layerId = m001;
shapes = (
{
closed = 1;
nodes = (
(382,0,l),
(402,16,l),
(636,704,l),
(636,752,l),
(620,768,l),
(560,768,l),
(544,752,l),
(336,120,l),
(328,120,l),
(120,752,l),
(104,768,l),
(40,768,l),
(24,752,l),
(24,704,l),
(258,16,l),
(274,0,l)
);
}
);
width = 660;
},
{
layerId = m002;
shapes = (
{
closed = 1;
nodes = (
(382,0,l),
(402,16,l),
(636,704,l),
(636,752,l),
(620,768,l),
(560,768,l),
(544,752,l),
(336,120,l),
(328,120,l),
(120,752,l),
(104,768,l),
(40,768,l),
(24,752,l),
(24,704,l),
(258,16,l),
(274,0,l)
);
}
);
width = 660;
}
);
unicode = 86;
},
{
color = 5;
glyphname = W;
lastChange = "2025-07-20 00:32:13 +0000";
layers = (
{
anchors = (
{
name = bottom;
pos = (500,0);
},
{
name = top;
pos = (500,768);
}
);
layerId = m001;
shapes = (
{
closed = 1;
nodes = (
(326,0,l),
(342,16,l),
(496,640,l),
(504,640,l),
(658,16,l),
(674,0,l),
(782,0,l),
(802,16,l),
(976,704,l),
(976,752,l),
(960,768,l),
(896,768,l),
(880,752,l),
(730,128,l),
(722,128,l),
(572,752,l),
(556,768,l),
(444,768,l),
(428,752,l),
(278,128,l),
(270,128,l),
(120,752,l),
(104,768,l),
(40,768,l),
(24,752,l),
(24,704,l),
(198,16,l),
(214,0,l)
);
}
);
width = 1000;
},
{
anchors = (
{
name = bottom;
pos = (500,0);
},
{
name = top;
pos = (500,768);
}
);
layerId = m002;
shapes = (
{
closed = 1;
nodes = (
(326,0,l),
(342,16,l),
(496,640,l),
(504,640,l),
(658,16,l),
(674,0,l),
(782,0,l),
(802,16,l),
(976,704,l),
(976,752,l),
(960,768,l),
(896,768,l),
(880,752,l),
(730,128,l),
(722,128,l),
(572,752,l),
(556,768,l),
(444,768,l),
(428,752,l),
(278,128,l),
(270,128,l),
(120,752,l),
(104,768,l),
(40,768,l),
(24,752,l),
(24,704,l),
(198,16,l),
(214,0,l)
);
}
);
width = 1000;
}
);
unicode = 87;
},
{
color = 5;
glyphname = X;
lastChange = "2025-07-20 00:42:27 +0000";
layers = (
{
layerId = m001;
shapes = (
{
closed = 1;
nodes = (
(100,0,l),
(300,302,l),
(308,302,l),
(500,0,l),
(568,0,l),
(584,16,l),
(584,64,l),
(374,394,l),
(374,402,l),
(576,704,l),
(576,752,l),
(560,768,l),
(502,768,l),
(316,476,l),
(308,476,l),
(124,768,l),
(60,768,l),
(44,752,l),
(44,704,l),
(242,394,l),
(242,386,l),
(24,64,l),
(24,16,l),
(40,0,l)
);
}
);
width = 608;
},
{
layerId = m002;
shapes = (
{
closed = 1;
nodes = (
(100,0,l),
(300,302,l),
(308,302,l),
(500,0,l),
(568,0,l),
(584,16,l),
(584,64,l),
(374,394,l),
(374,402,l),
(576,704,l),
(576,752,l),
(560,768,l),
(502,768,l),
(316,476,l),
(308,476,l),
(124,768,l),
(60,768,l),
(44,752,l),
(44,704,l),
(242,394,l),
(242,386,l),
(24,64,l),
(24,16,l),
(40,0,l)
);
}
);
width = 608;
}
);
unicode = 88;
},
{
color = 5;
glyphname = Y;
kernLeft = Y;
kernRight = Y;
lastChange = "2025-07-20 00:42:44 +0000";
layers = (
{
anchors = (
{
name = bottom;
pos = (316,0);
},
{
name = top;
pos = (316,800);
},
{
name = topleft;
pos = (20,800);
}
);
layerId = m001;
shapes = (
{
closed = 1;
nodes = (
(348,0,l),
(364,16,l),
(364,312,l),
(608,704,l),
(608,752,l),
(592,768,l),
(544,768,l),
(528,752,l),
(318,408,l),
(310,408,l),
(96,752,l),
(80,768,l),
(32,768,l),
(16,752,l),
(16,704,l),
(260,312,l),
(260,16,l),
(276,0,l)
);
}
);
width = 624;
},
{
anchors = (
{
name = bottom;
pos = (316,0);
},
{
name = top;
pos = (316,800);
},
{
name = topleft;
pos = (20,800);
}
);
layerId = m002;
shapes = (
{
closed = 1;
nodes = (
(348,0,l),
(364,16,l),
(364,312,l),
(608,704,l),
(608,752,l),
(592,768,l),
(544,768,l),
(528,752,l),
(318,408,l),
(310,408,l),
(96,752,l),
(80,768,l),
(32,768,l),
(16,752,l),
(16,704,l),
(260,312,l),
(260,16,l),
(276,0,l)
);
}
);
width = 624;
}
);
unicode = 89;
},
{
color = 5;
glyphname = Z;
kernLeft = Z;
kernRight = Z;
lastChange = "2025-05-01 04:09:49 +0000";
layers = (
{
anchors = (
{
name = bottom;
pos = (340,0);
},
{
name = center;
pos = (340,392);
},
{
name = top;
pos = (360,768);
}
);
layerId = m001;
shapes = (
{
closed = 1;
nodes = (
(572,0,l),
(588,16,l),
(588,84,l),
(572,100,l),
(156,100,l),
(156,116,l),
(552,644,l),
(568,680,l),
(568,752,l),
(552,768,l),
(44,768,l),
(28,752,l),
(28,684,l),
(44,668,l),
(428,668,l),
(428,652,l),
(28,128,l),
(16,104,l),
(16,16,l),
(32,0,l)
);
}
);
width = 604;
},
{
anchors = (
{
name = bottom;
pos = (340,0);
},
{
name = center;
pos = (340,392);
},
{
name = top;
pos = (360,768);
}
);
layerId = m002;
shapes = (
{
closed = 1;
nodes = (
(572,0,l),
(588,16,l),
(588,84,l),
(572,100,l),
(156,100,l),
(156,116,l),
(552,644,l),
(568,680,l),
(568,752,l),
(552,768,l),
(44,768,l),
(28,752,l),
(28,684,l),
(44,668,l),
(428,668,l),
(428,652,l),
(28,128,l),
(16,104,l),
(16,16,l),
(32,0,l)
);
}
);
width = 604;
}
);
unicode = 90;
},
{
glyphname = a;
kernLeft = a;
kernRight = a;
lastChange = "2025-10-23 06:42:12 +0000";
layers = (
{
anchors = (
{
name = top;
pos = (274,578);
}
);
layerId = m001;
shapes = (
{
closed = 1;
nodes = (
(296,-16,o),
(360,8,o),
(408,72,c),
(416,72,l),
(416,32,o),
(448,0,o),
(488,0,c),
(536,0,l),
(552,16,l),
(552,64,l),
(536,80,l),
(512,80,o),
(504,88,o),
(504,112,c),
(504,376,l),
(504,528,o),
(432,592,o),
(280,592,c),
(200,592,o),
(64,544,o),
(64,416,c),
(80,400,l),
(136,400,l),
(152,416,l),
(160,480,o),
(216,512,o),
(280,512,c),
(360,512,o),
(408,472,o),
(408,392,c),
(408,360,l),
(400,352,l),
(304,352,l),
(144,352,o),
(24,304,o),
(24,160,c),
(24,56,o),
(104,-16,o),
(216,-16,c)
);
},
{
closed = 1;
nodes = (
(168,64,o),
(116,96,o),
(116,160,c),
(116,240,o),
(176,280,o),
(336,280,c),
(400,280,l),
(408,272,l),
(408,216,l),
(408,128,o),
(328,64,o),
(232,64,c)
);
}
);
width = 576;
},
{
anchors = (
{
name = top;
pos = (274,578);
}
);
layerId = m002;
shapes = (
{
closed = 1;
nodes = (
(296,-16,o),
(360,8,o),
(408,72,c),
(416,72,l),
(416,32,o),
(448,0,o),
(488,0,c),
(536,0,l),
(552,16,l),
(552,64,l),
(536,80,l),
(512,80,o),
(504,88,o),
(504,112,c),
(504,376,l),
(504,528,o),
(432,592,o),
(280,592,c),
(200,592,o),
(64,544,o),
(64,416,c),
(80,400,l),
(136,400,l),
(152,416,l),
(160,480,o),
(216,512,o),
(280,512,c),
(360,512,o),
(408,472,o),
(408,392,c),
(408,360,l),
(400,352,l),
(304,352,l),
(144,352,o),
(24,304,o),
(24,160,c),
(24,56,o),
(104,-16,o),
(216,-16,c)
);
},
{
closed = 1;
nodes = (
(168,64,o),
(116,96,o),
(116,160,c),
(116,240,o),
(176,280,o),
(336,280,c),
(400,280,l),
(408,272,l),
(408,216,l),
(408,128,o),
(328,64,o),
(232,64,c)
);
}
);
width = 576;
}
);
unicode = 97;
},
{
glyphname = b;
lastChange = "2025-07-20 04:57:24 +0000";
layers = (
{
layerId = m001;
shapes = (
{
closed = 1;
nodes = (
(144,0,l),
(160,16,l),
(160,64,l),
(168,64,l),
(200,20,o),
(268,-16,o),
(344,-16,cs),
(504,-16,o),
(576,124,o),
(576,288,cs),
(576,452,o),
(504,592,o),
(344,592,cs),
(256,592,o),
(200,556,o),
(168,512,c),
(160,512,l),
(160,752,l),
(144,768,l),
(80,768,l),
(64,752,l),
(64,16,l),
(80,0,l)
);
},
{
closed = 1;
nodes = (
(416,504,o),
(472,416,o),
(472,288,cs),
(472,160,o),
(416,72,o),
(312,72,cs),
(208,72,o),
(152,160,o),
(152,288,cs),
(152,416,o),
(208,504,o),
(312,504,cs)
);
}
);
width = 608;
},
{
layerId = m002;
shapes = (
{
closed = 1;
nodes = (
(144,0,l),
(160,16,l),
(160,64,l),
(168,64,l),
(200,20,o),
(268,-16,o),
(344,-16,cs),
(504,-16,o),
(576,124,o),
(576,288,cs),
(576,452,o),
(504,592,o),
(344,592,cs),
(256,592,o),
(200,556,o),
(168,512,c),
(160,512,l),
(160,752,l),
(144,768,l),
(80,768,l),
(64,752,l),
(64,16,l),
(80,0,l)
);
},
{
closed = 1;
nodes = (
(416,504,o),
(472,416,o),
(472,288,cs),
(472,160,o),
(416,72,o),
(312,72,cs),
(208,72,o),
(152,160,o),
(152,288,cs),
(152,416,o),
(208,504,o),
(312,504,cs)
);
}
);
width = 608;
}
);
metricLeft = h;
metricRight = o;
unicode = 98;
},
{
glyphname = c;
kernLeft = o;
kernRight = o;
lastChange = "2025-10-23 16:57:36 +0000";
layers = (
{
layerId = m001;
shapes = (
{
closed = 1;
nodes = (
(468,-16,o),
(528,70,o),
(556,176,c),
(556,192,l),
(540,208,l),
(472,208,l),
(456,192,l),
(444,144,o),
(400,72,o),
(308,72,cs),
(184,72,o),
(132,164,o),
(132,288,cs),
(132,412,o),
(184,504,o),
(308,504,cs),
(396,504,o),
(442,442,o),
(456,392,c),
(472,376,l),
(540,376,l),
(556,392,l),
(556,408,l),
(532,484,o),
(462,592,o),
(308,592,cs),
(132,592,o),
(32,464,o),
(32,288,cs),
(32,112,o),
(132,-16,o),
(308,-16,cs)
);
}
);
width = 580;
},
{
layerId = m002;
shapes = (
{
closed = 1;
nodes = (
(468,-16,o),
(528,70,o),
(556,176,c),
(556,192,l),
(540,208,l),
(472,208,l),
(456,192,l),
(444,144,o),
(400,72,o),
(308,72,cs),
(184,72,o),
(132,164,o),
(132,288,cs),
(132,412,o),
(184,504,o),
(308,504,cs),
(396,504,o),
(442,442,o),
(456,392,c),
(472,376,l),
(540,376,l),
(556,392,l),
(556,408,l),
(532,484,o),
(462,592,o),
(308,592,cs),
(132,592,o),
(32,464,o),
(32,288,cs),
(32,112,o),
(132,-16,o),
(308,-16,cs)
);
}
);
width = 580;
}
);
metricLeft = o;
metricRight = "=o-8";
unicode = 99;
},
{
glyphname = d;
kernLeft = o;
kernRight = d;
lastChange = "2025-07-20 04:52:10 +0000";
layers = (
{
layerId = m001;
shapes = (
{
closed = 1;
nodes = (
(576,16,l),
(576,752,l),
(560,768,l),
(496,768,l),
(480,752,l),
(480,512,l),
(472,512,l),
(440,560,o),
(376,592,o),
(288,592,cs),
(120,592,o),
(32,464,o),
(32,288,cs),
(32,112,o),
(120,-16,o),
(288,-16,cs),
(360,-16,o),
(440,24,o),
(472,72,c),
(480,72,l),
(480,16,l),
(496,0,l),
(560,0,l)
);
},
{
closed = 1;
nodes = (
(424,512,o),
(480,416,o),
(480,288,cs),
(480,160,o),
(424,64,o),
(304,64,cs),
(192,64,o),
(136,160,o),
(136,288,cs),
(136,416,o),
(192,512,o),
(304,512,cs)
);
}
);
width = 640;
},
{
layerId = m002;
shapes = (
{
closed = 1;
nodes = (
(576,16,l),
(576,752,l),
(560,768,l),
(496,768,l),
(480,752,l),
(480,512,l),
(472,512,l),
(440,560,o),
(376,592,o),
(288,592,cs),
(120,592,o),
(32,464,o),
(32,288,cs),
(32,112,o),
(120,-16,o),
(288,-16,cs),
(360,-16,o),
(440,24,o),
(472,72,c),
(480,72,l),
(480,16,l),
(496,0,l),
(560,0,l)
);
},
{
closed = 1;
nodes = (
(424,512,o),
(480,416,o),
(480,288,cs),
(480,160,o),
(424,64,o),
(304,64,cs),
(192,64,o),
(136,160,o),
(136,288,cs),
(136,416,o),
(192,512,o),
(304,512,cs)
);
}
);
width = 640;
}
);
metricLeft = o;
unicode = 100;
},
{
glyphname = e;
kernLeft = o;
kernRight = e;
lastChange = "2025-10-23 06:57:35 +0000";
layers = (
{
layerId = m001;
shapes = (
{
closed = 1;
nodes = (
(136,346,l),
(136,418,o),
(208,504,o),
(308,504,cs),
(428,504,o),
(476,418,o),
(476,346,c),
(468,338,l),
(144,338,l)
);
},
{
closed = 1;
nodes = (
(472,-16,o),
(562,86,o),
(562,168,c),
(546,184,l),
(484,184,l),
(476,176,l),
(452,114,o),
(400,72,o),
(308,72,cs),
(208,72,o),
(144,160,o),
(136,248,c),
(144,256,l),
(556,256,l),
(572,272,l),
(572,304,ls),
(572,496,o),
(454,592,o),
(308,592,cs),
(140,592,o),
(32,464,o),
(32,288,cs),
(32,112,o),
(140,-16,o),
(308,-16,cs)
);
}
);
width = 604;
},
{
layerId = m002;
shapes = (
{
closed = 1;
nodes = (
(136,346,l),
(136,418,o),
(208,504,o),
(308,504,cs),
(428,504,o),
(476,418,o),
(476,346,c),
(468,338,l),
(144,338,l)
);
},
{
closed = 1;
nodes = (
(472,-16,o),
(562,86,o),
(562,168,c),
(546,184,l),
(484,184,l),
(476,176,l),
(452,114,o),
(400,72,o),
(308,72,cs),
(208,72,o),
(144,160,o),
(136,248,c),
(144,256,l),
(556,256,l),
(572,272,l),
(572,304,ls),
(572,496,o),
(454,592,o),
(308,592,cs),
(140,592,o),
(32,464,o),
(32,288,cs),
(32,112,o),
(140,-16,o),
(308,-16,cs)
);
}
);
width = 604;
}
);
metricLeft = o;
metricRight = o;
unicode = 101;
},
{
color = 5;
glyphname = f;
kernLeft = f;
kernRight = f;
lastChange = "2025-07-20 04:52:31 +0000";
layers = (
{
layerId = m001;
shapes = (
{
closed = 1;
nodes = (
(192,0,l),
(208,16,l),
(208,488,l),
(216,496,l),
(306,496,l),
(322,512,l),
(322,560,l),
(306,576,l),
(216,576,l),
(208,584,l),
(208,632,ls),
(208,672,o),
(224,688,o),
(264,688,cs),
(306,688,l),
(322,704,l),
(322,752,l),
(306,768,l),
(256,768,ls),
(160,768,o),
(112,736,o),
(112,640,cs),
(112,584,l),
(104,576,l),
(40,576,l),
(24,560,l),
(24,512,l),
(40,496,l),
(104,496,l),
(112,488,l),
(112,16,l),
(128,0,l)
);
}
);
width = 346;
},
{
layerId = m002;
shapes = (
{
closed = 1;
nodes = (
(192,0,l),
(208,16,l),
(208,488,l),
(216,496,l),
(306,496,l),
(322,512,l),
(322,560,l),
(306,576,l),
(216,576,l),
(208,584,l),
(208,632,ls),
(208,672,o),
(224,688,o),
(264,688,cs),
(306,688,l),
(322,704,l),
(322,752,l),
(306,768,l),
(256,768,ls),
(160,768,o),
(112,736,o),
(112,640,cs),
(112,584,l),
(104,576,l),
(40,576,l),
(24,560,l),
(24,512,l),
(40,496,l),
(104,496,l),
(112,488,l),
(112,16,l),
(128,0,l)
);
}
);
width = 346;
}
);
unicode = 102;
},
{
color = 5;
glyphname = g;
lastChange = "2025-10-23 06:59:10 +0000";
layers = (
{
anchors = (
{
name = bottom;
pos = (266,-224);
},
{
name = top;
pos = (254,576);
}
);
layerId = m001;
shapes = (
{
closed = 1;
nodes = (
(474,576,l),
(458,560,l),
(450,512,l),
(434,512,l),
(402,556,o),
(342,592,o),
(266,592,cs),
(106,592,o),
(38,452,o),
(38,288,cs),
(38,172,o),
(106,16,o),
(266,16,cs),
(354,16,o),
(402,52,o),
(434,96,c),
(450,88,l),
(450,16,ls),
(450,-100,o),
(390,-152,o),
(290,-152,cs),
(202,-152,o),
(162,-96,o),
(154,-68,c),
(138,-52,l),
(74,-52,l),
(58,-68,l),
(58,-84,l),
(70,-156,o),
(138,-240,o),
(290,-240,cs),
(486,-240,o),
(554,-148,o),
(554,64,cs),
(554,560,l),
(538,576,l)
);
},
{
closed = 1;
nodes = (
(198,96,o),
(138,200,o),
(138,288,cs),
(138,424,o),
(198,512,o),
(298,512,cs),
(398,512,o),
(458,424,o),
(458,288,cs),
(458,184,o),
(398,96,o),
(298,96,cs)
);
}
);
width = 618;
},
{
anchors = (
{
name = bottom;
pos = (266,-224);
},
{
name = top;
pos = (254,576);
}
);
layerId = m002;
shapes = (
{
closed = 1;
nodes = (
(474,576,l),
(458,560,l),
(450,512,l),
(434,512,l),
(402,556,o),
(342,592,o),
(266,592,cs),
(106,592,o),
(38,452,o),
(38,288,cs),
(38,172,o),
(106,16,o),
(266,16,cs),
(354,16,o),
(402,52,o),
(434,96,c),
(450,88,l),
(450,16,ls),
(450,-100,o),
(390,-152,o),
(290,-152,cs),
(202,-152,o),
(162,-96,o),
(154,-68,c),
(138,-52,l),
(74,-52,l),
(58,-68,l),
(58,-84,l),
(70,-156,o),
(138,-240,o),
(290,-240,cs),
(486,-240,o),
(554,-148,o),
(554,64,cs),
(554,560,l),
(538,576,l)
);
},
{
closed = 1;
nodes = (
(198,96,o),
(138,200,o),
(138,288,cs),
(138,424,o),
(198,512,o),
(298,512,cs),
(398,512,o),
(458,424,o),
(458,288,cs),
(458,184,o),
(398,96,o),
(298,96,cs)
);
}
);
width = 618;
}
);
metricLeft = o;
unicode = 103;
},
{
glyphname = h;
lastChange = "2025-07-20 04:57:18 +0000";
layers = (
{
layerId = m001;
shapes = (
{
closed = 1;
nodes = (
(144,0,l),
(160,16,l),
(160,352,ls),
(160,454,o),
(200,512,o),
(296,512,cs),
(392,512,o),
(432,454,o),
(432,352,cs),
(432,16,l),
(448,0,l),
(512,0,l),
(528,16,l),
(528,384,ls),
(528,512,o),
(456,592,o),
(328,592,cs),
(264,592,o),
(200,560,o),
(168,512,c),
(160,512,l),
(160,752,l),
(144,768,l),
(80,768,l),
(64,752,l),
(64,16,l),
(80,0,l)
);
}
);
width = 592;
},
{
layerId = m002;
shapes = (
{
closed = 1;
nodes = (
(144,0,l),
(160,16,l),
(160,352,ls),
(160,454,o),
(200,512,o),
(296,512,cs),
(392,512,o),
(432,454,o),
(432,352,cs),
(432,16,l),
(448,0,l),
(512,0,l),
(528,16,l),
(528,384,ls),
(528,512,o),
(456,592,o),
(328,592,cs),
(264,592,o),
(200,560,o),
(168,512,c),
(160,512,l),
(160,752,l),
(144,768,l),
(80,768,l),
(64,752,l),
(64,16,l),
(80,0,l)
);
}
);
width = 592;
}
);
metricRight = n;
unicode = 104;
},
{
glyphname = i;
lastChange = "2025-07-20 04:57:46 +0000";
layers = (
{
layerId = m001;
shapes = (
{
closed = 1;
nodes = (
(152,656,l),
(168,672,l),
(168,752,l),
(152,768,l),
(80,768,l),
(64,752,l),
(64,672,l),
(80,656,l)
);
},
{
closed = 1;
nodes = (
(148,0,l),
(164,16,l),
(164,560,l),
(148,576,l),
(84,576,l),
(68,560,l),
(68,16,l),
(84,0,l)
);
}
);
width = 232;
},
{
layerId = m002;
shapes = (
{
closed = 1;
nodes = (
(152,656,l),
(168,672,l),
(168,752,l),
(152,768,l),
(80,768,l),
(64,752,l),
(64,672,l),
(80,656,l)
);
},
{
closed = 1;
nodes = (
(148,0,l),
(164,16,l),
(164,560,l),
(148,576,l),
(84,576,l),
(68,560,l),
(68,16,l),
(84,0,l)
);
}
);
width = 232;
}
);
unicode = 105;
},
{
color = 5;
glyphname = j;
lastChange = "2025-07-20 04:58:01 +0000";
layers = (
{
layerId = m001;
shapes = (
{
closed = 1;
nodes = (
(28,-200,ls),
(108,-200,o),
(172,-156,o),
(172,-52,cs),
(172,560,l),
(156,576,l),
(92,576,l),
(76,560,l),
(76,-52,ls),
(76,-88,o),
(64,-100,o),
(36,-100,cs),
(-16,-100,l),
(-32,-116,l),
(-32,-184,l),
(-16,-200,l)
);
},
{
closed = 1;
nodes = (
(164,656,l),
(180,672,l),
(180,752,l),
(164,768,l),
(92,768,l),
(76,752,l),
(76,672,l),
(92,656,l)
);
}
);
width = 244;
},
{
layerId = m002;
shapes = (
{
closed = 1;
nodes = (
(28,-200,ls),
(108,-200,o),
(172,-156,o),
(172,-52,cs),
(172,560,l),
(156,576,l),
(92,576,l),
(76,560,l),
(76,-52,ls),
(76,-88,o),
(64,-100,o),
(36,-100,cs),
(-16,-100,l),
(-32,-116,l),
(-32,-184,l),
(-16,-200,l)
);
},
{
closed = 1;
nodes = (
(164,656,l),
(180,672,l),
(180,752,l),
(164,768,l),
(92,768,l),
(76,752,l),
(76,672,l),
(92,656,l)
);
}
);
width = 244;
}
);
unicode = 106;
},
{
color = 5;
glyphname = k;
kernLeft = k;
kernRight = k;
lastChange = "2025-07-20 04:58:11 +0000";
layers = (
{
anchors = (
{
name = bottom;
pos = (244,0);
},
{
name = top;
pos = (244,800);
}
);
layerId = m001;
shapes = (
{
closed = 1;
nodes = (
(144,0,l),
(160,16,l),
(160,148,l),
(266,262,l),
(274,262,l),
(462,0,l),
(508,0,l),
(524,16,l),
(524,70,l),
(338,328,l),
(338,336,l),
(524,536,l),
(524,560,l),
(508,576,l),
(444,576,l),
(168,280,l),
(160,280,l),
(160,752,l),
(144,768,l),
(80,768,l),
(64,752,l),
(64,16,l),
(80,0,l)
);
}
);
width = 540;
},
{
anchors = (
{
name = bottom;
pos = (244,0);
},
{
name = top;
pos = (244,800);
}
);
layerId = m002;
shapes = (
{
closed = 1;
nodes = (
(144,0,l),
(160,16,l),
(160,148,l),
(266,262,l),
(274,262,l),
(462,0,l),
(508,0,l),
(524,16,l),
(524,70,l),
(338,328,l),
(338,336,l),
(524,536,l),
(524,560,l),
(508,576,l),
(444,576,l),
(168,280,l),
(160,280,l),
(160,752,l),
(144,768,l),
(80,768,l),
(64,752,l),
(64,16,l),
(80,0,l)
);
}
);
width = 540;
}
);
metricLeft = n;
unicode = 107;
},
{
glyphname = l;
kernLeft = l;
kernRight = l;
lastChange = "2025-07-20 04:58:20 +0000";
layers = (
{
layerId = m001;
shapes = (
{
closed = 1;
nodes = (
(224,0,l),
(240,16,l),
(240,72,l),
(224,88,l),
(200,88,ls),
(172,88,o),
(160,104,o),
(160,136,cs),
(160,752,l),
(144,768,l),
(80,768,l),
(64,752,l),
(64,112,ls),
(64,48,o),
(96,0,o),
(160,0,cs)
);
}
);
width = 256;
},
{
layerId = m002;
shapes = (
{
closed = 1;
nodes = (
(224,0,l),
(240,16,l),
(240,72,l),
(224,88,l),
(200,88,ls),
(172,88,o),
(160,104,o),
(160,136,cs),
(160,752,l),
(144,768,l),
(80,768,l),
(64,752,l),
(64,112,ls),
(64,48,o),
(96,0,o),
(160,0,cs)
);
}
);
width = 256;
}
);
metricLeft = n;
unicode = 108;
},
{
color = 5;
glyphname = m;
kernLeft = m;
kernRight = m;
lastChange = "2025-07-20 04:58:34 +0000";
layers = (
{
layerId = m001;
shapes = (
{
closed = 1;
nodes = (
(152,0,l),
(168,16,l),
(168,352,ls),
(168,448,o),
(192,504,o),
(288,504,cs),
(384,504,o),
(408,448,o),
(408,352,cs),
(408,16,l),
(424,0,l),
(496,0,l),
(512,16,l),
(512,352,ls),
(512,448,o),
(536,504,o),
(632,504,cs),
(728,504,o),
(752,448,o),
(752,352,cs),
(752,16,l),
(768,0,l),
(840,0,l),
(856,16,l),
(856,352,ls),
(856,496,o),
(808,592,o),
(648,592,cs),
(568,592,o),
(504,560,o),
(480,512,c),
(472,512,l),
(456,560,o),
(400,592,o),
(320,592,cs),
(240,592,o),
(188,552,o),
(172,512,c),
(164,512,l),
(156,560,l),
(140,576,l),
(80,576,l),
(64,560,l),
(64,16,l),
(80,0,l)
);
}
);
width = 920;
},
{
layerId = m002;
shapes = (
{
closed = 1;
nodes = (
(152,0,l),
(168,16,l),
(168,352,ls),
(168,448,o),
(192,504,o),
(288,504,cs),
(384,504,o),
(408,448,o),
(408,352,cs),
(408,16,l),
(424,0,l),
(496,0,l),
(512,16,l),
(512,352,ls),
(512,448,o),
(536,504,o),
(632,504,cs),
(728,504,o),
(752,448,o),
(752,352,cs),
(752,16,l),
(768,0,l),
(840,0,l),
(856,16,l),
(856,352,ls),
(856,496,o),
(808,592,o),
(648,592,cs),
(568,592,o),
(504,560,o),
(480,512,c),
(472,512,l),
(456,560,o),
(400,592,o),
(320,592,cs),
(240,592,o),
(188,552,o),
(172,512,c),
(164,512,l),
(156,560,l),
(140,576,l),
(80,576,l),
(64,560,l),
(64,16,l),
(80,0,l)
);
}
);
width = 920;
}
);
metricLeft = n;
metricRight = n;
unicode = 109;
},
{
glyphname = n;
lastChange = "2025-10-24 02:47:13 +0000";
layers = (
{
layerId = m001;
shapes = (
{
closed = 1;
nodes = (
(144,0,l),
(160,16,l),
(160,344,ls),
(160,440,o),
(200,504,o),
(296,504,cs),
(392,504,o),
(432,440,o),
(432,344,cs),
(432,16,l),
(448,0,l),
(512,0,l),
(528,16,l),
(528,376,ls),
(528,504,o),
(456,592,o),
(328,592,cs),
(264,592,o),
(200,560,o),
(168,512,c),
(160,512,l),
(152,560,l),
(136,576,l),
(80,576,l),
(64,560,l),
(64,16,l),
(80,0,l)
);
}
);
width = 592;
},
{
layerId = m002;
shapes = (
{
closed = 1;
nodes = (
(240,0,l),
(256,16,l),
(256,342,ls),
(256,406,o),
(272,446,o),
(332,446,cs),
(392,446,o),
(408,406,o),
(408,342,cs),
(408,16,l),
(424,0,l),
(584,0,l),
(600,16,l),
(600,376,ls),
(600,504,o),
(536,592,o),
(408,592,cs),
(344,592,o),
(288,560,o),
(256,512,c),
(248,512,l),
(240,560,l),
(224,576,l),
(80,576,l),
(64,560,l),
(64,16,l),
(80,0,l)
);
}
);
width = 664;
}
);
unicode = 110;
},
{
glyphname = o;
kernLeft = o;
kernRight = o;
lastChange = "2025-10-24 02:54:38 +0000";
layers = (
{
layerId = m001;
shapes = (
{
closed = 1;
nodes = (
(482,-16,o),
(598,110,o),
(600,288,cs),
(602,466,o),
(482,592,o),
(316,592,cs),
(150,592,o),
(32,466,o),
(32,288,cs),
(32,110,o),
(150,-16,o),
(316,-16,cs)
);
},
{
closed = 1;
nodes = (
(208,72,o),
(132,160,o),
(132,288,cs),
(132,416,o),
(208,502,o),
(316,504,cs),
(424,506,o),
(500,416,o),
(500,288,cs),
(500,160,o),
(424,72,o),
(316,72,cs)
);
}
);
width = 632;
},
{
backgroundImage = {
imagePath = "../../../../Desktop/Screenshot 2025-10-23 at 6.11.40 PM.png";
locked = 1;
pos = (-692,-66);
scale = (2.02,2.02);
};
layerId = m002;
shapes = (
{
closed = 1;
nodes = (
(488,-16,o),
(610,110,o),
(612,288,cs),
(614,466,o),
(492,592,o),
(316,592,cs),
(142,592,o),
(20,466,o),
(20,288,cs),
(20,110,o),
(142,-16,o),
(316,-16,cs)
);
},
{
closed = 1;
nodes = (
(258,136,o),
(216,190,o),
(216,288,cs),
(216,388,o),
(258,442,o),
(316,440,cs),
(374,438,o),
(416,384,o),
(416,288,cs),
(416,190,o),
(374,136,o),
(316,136,cs)
);
}
);
width = 632;
}
);
unicode = 111;
},
{
color = 5;
glyphname = p;
kernLeft = p;
kernRight = o;
lastChange = "2025-10-23 06:59:44 +0000";
layers = (
{
layerId = m001;
shapes = (
{
closed = 1;
nodes = (
(144,-200,l),
(160,-184,l),
(160,64,l),
(168,64,l),
(200,20,o),
(264,-16,o),
(352,-16,cs),
(512,-16,o),
(586,124,o),
(586,288,cs),
(586,452,o),
(512,592,o),
(352,592,cs),
(276,592,o),
(200,556,o),
(168,512,c),
(160,512,l),
(152,560,l),
(136,576,l),
(80,576,l),
(64,560,l),
(64,-184,l),
(80,-200,l)
);
},
{
closed = 1;
nodes = (
(232,80,o),
(160,152,o),
(160,288,cs),
(160,424,o),
(232,496,o),
(320,496,cs),
(420,496,o),
(480,424,o),
(480,288,cs),
(480,152,o),
(420,80,o),
(320,80,cs)
);
}
);
width = 618;
},
{
layerId = m002;
shapes = (
{
closed = 1;
nodes = (
(144,-200,l),
(160,-184,l),
(160,64,l),
(168,64,l),
(200,20,o),
(264,-16,o),
(352,-16,cs),
(512,-16,o),
(586,124,o),
(586,288,cs),
(586,452,o),
(512,592,o),
(352,592,cs),
(276,592,o),
(200,556,o),
(168,512,c),
(160,512,l),
(152,560,l),
(136,576,l),
(80,576,l),
(64,560,l),
(64,-184,l),
(80,-200,l)
);
},
{
closed = 1;
nodes = (
(232,80,o),
(160,152,o),
(160,288,cs),
(160,424,o),
(232,496,o),
(320,496,cs),
(420,496,o),
(480,424,o),
(480,288,cs),
(480,152,o),
(420,80,o),
(320,80,cs)
);
}
);
width = 618;
}
);
metricLeft = n;
metricRight = o;
unicode = 112;
},
{
color = 5;
glyphname = q;
lastChange = "2025-07-20 04:59:08 +0000";
layers = (
{
layerId = m001;
shapes = (
{
closed = 1;
nodes = (
(564,-184,l),
(564,560,l),
(548,576,l),
(484,576,l),
(468,560,l),
(460,512,l),
(444,512,l),
(412,556,o),
(344,592,o),
(268,592,cs),
(108,592,o),
(32,452,o),
(32,288,cs),
(32,124,o),
(108,-16,o),
(268,-16,cs),
(356,-16,o),
(412,20,o),
(444,64,c),
(460,56,l),
(460,-184,l),
(476,-200,l),
(548,-200,l)
);
},
{
closed = 1;
nodes = (
(200,80,o),
(140,152,o),
(140,288,cs),
(140,424,o),
(200,496,o),
(300,496,cs),
(388,496,o),
(460,424,o),
(460,288,cs),
(460,152,o),
(388,80,o),
(300,80,cs)
);
}
);
width = 628;
},
{
layerId = m002;
shapes = (
{
closed = 1;
nodes = (
(564,-184,l),
(564,560,l),
(548,576,l),
(484,576,l),
(468,560,l),
(460,512,l),
(444,512,l),
(412,556,o),
(344,592,o),
(268,592,cs),
(108,592,o),
(32,452,o),
(32,288,cs),
(32,124,o),
(108,-16,o),
(268,-16,cs),
(356,-16,o),
(412,20,o),
(444,64,c),
(460,56,l),
(460,-184,l),
(476,-200,l),
(548,-200,l)
);
},
{
closed = 1;
nodes = (
(200,80,o),
(140,152,o),
(140,288,cs),
(140,424,o),
(200,496,o),
(300,496,cs),
(388,496,o),
(460,424,o),
(460,288,cs),
(460,152,o),
(388,80,o),
(300,80,cs)
);
}
);
width = 628;
}
);
unicode = 113;
},
{
glyphname = r;
kernLeft = r;
kernRight = n;
lastChange = "2025-07-20 04:59:12 +0000";
layers = (
{
layerId = m001;
shapes = (
{
closed = 1;
nodes = (
(144,0,l),
(160,16,l),
(160,328,ls),
(160,456,o),
(192,488,o),
(288,488,cs),
(320,488,l),
(336,504,l),
(336,560,l),
(320,576,l),
(288,576,ls),
(248,576,o),
(200,560,o),
(168,512,c),
(160,512,l),
(152,560,l),
(136,576,l),
(80,576,l),
(64,560,l),
(64,16,l),
(80,0,l)
);
}
);
width = 352;
},
{
layerId = m002;
shapes = (
{
closed = 1;
nodes = (
(144,0,l),
(160,16,l),
(160,328,ls),
(160,456,o),
(192,488,o),
(288,488,cs),
(320,488,l),
(336,504,l),
(336,560,l),
(320,576,l),
(288,576,ls),
(248,576,o),
(200,560,o),
(168,512,c),
(160,512,l),
(152,560,l),
(136,576,l),
(80,576,l),
(64,560,l),
(64,16,l),
(80,0,l)
);
}
);
width = 352;
}
);
metricLeft = n;
unicode = 114;
},
{
glyphname = s;
kernLeft = s;
kernRight = s;
lastChange = "2025-07-20 04:59:24 +0000";
layers = (
{
layerId = m001;
shapes = (
{
closed = 1;
nodes = (
(420,-16,o),
(504,52,o),
(504,160,cs),
(504,252,o),
(434,296,o),
(318,326,cs),
(286,334,ls),
(190,358,o),
(128,374,o),
(128,424,cs),
(128,472,o),
(168,512,o),
(248,512,cs),
(332,512,o),
(392,472,o),
(392,420,c),
(408,404,l),
(464,404,l),
(480,420,l),
(478,442,l),
(466,546,o),
(372,592,o),
(248,592,cs),
(92,592,o),
(32,504,o),
(32,424,cs),
(32,328,o),
(112,290,o),
(230,260,cs),
(262,252,ls),
(360,228,o),
(408,208,o),
(408,160,cs),
(408,116,o),
(360,64,o),
(264,64,cs),
(200,64,o),
(120,92,o),
(120,172,c),
(104,188,l),
(48,188,l),
(32,172,l),
(32,152,l),
(40,38,o),
(124,-16,o),
(264,-16,cs)
);
}
);
width = 536;
},
{
layerId = m002;
shapes = (
{
closed = 1;
nodes = (
(420,-16,o),
(504,52,o),
(504,160,cs),
(504,252,o),
(434,296,o),
(318,326,cs),
(286,334,ls),
(190,358,o),
(128,374,o),
(128,424,cs),
(128,472,o),
(168,512,o),
(248,512,cs),
(332,512,o),
(392,472,o),
(392,420,c),
(408,404,l),
(464,404,l),
(480,420,l),
(478,442,l),
(466,546,o),
(372,592,o),
(248,592,cs),
(92,592,o),
(32,504,o),
(32,424,cs),
(32,328,o),
(112,290,o),
(230,260,cs),
(262,252,ls),
(360,228,o),
(408,208,o),
(408,160,cs),
(408,116,o),
(360,64,o),
(264,64,cs),
(200,64,o),
(120,92,o),
(120,172,c),
(104,188,l),
(48,188,l),
(32,172,l),
(32,152,l),
(40,38,o),
(124,-16,o),
(264,-16,cs)
);
}
);
width = 536;
}
);
unicode = 115;
},
{
glyphname = t;
kernLeft = t;
kernRight = t;
lastChange = "2025-10-23 06:39:37 +0000";
layers = (
{
layerId = m001;
shapes = (
{
closed = 1;
nodes = (
(320,0,l),
(336,16,l),
(336,64,l),
(320,80,l),
(240,80,ls),
(208,80,o),
(192,96,o),
(192,128,cs),
(192,480,l),
(200,488,l),
(320,488,l),
(336,504,l),
(336,560,l),
(320,576,l),
(200,576,l),
(192,584,l),
(192,720,l),
(176,736,l),
(112,736,l),
(96,720,l),
(96,584,l),
(88,576,l),
(32,576,l),
(16,560,l),
(16,504,l),
(32,488,l),
(88,488,l),
(96,480,l),
(96,128,ls),
(96,32,o),
(128,0,o),
(224,0,cs)
);
}
);
width = 352;
},
{
layerId = m002;
shapes = (
{
closed = 1;
nodes = (
(320,0,l),
(336,16,l),
(336,64,l),
(320,80,l),
(240,80,ls),
(208,80,o),
(192,96,o),
(192,128,cs),
(192,480,l),
(200,488,l),
(320,488,l),
(336,504,l),
(336,560,l),
(320,576,l),
(200,576,l),
(192,584,l),
(192,720,l),
(176,736,l),
(112,736,l),
(96,720,l),
(96,584,l),
(88,576,l),
(32,576,l),
(16,560,l),
(16,504,l),
(32,488,l),
(88,488,l),
(96,480,l),
(96,128,ls),
(96,32,o),
(128,0,o),
(224,0,cs)
);
}
);
width = 352;
}
);
unicode = 116;
},
{
glyphname = u;
kernLeft = u;
kernRight = u;
lastChange = "2025-10-23 06:41:40 +0000";
layers = (
{
layerId = m001;
shapes = (
{
closed = 1;
nodes = (
(440,576,l),
(424,560,l),
(424,224,ls),
(424,122,o),
(384,64,o),
(288,64,cs),
(192,64,o),
(152,122,o),
(152,224,cs),
(152,560,l),
(136,576,l),
(72,576,l),
(56,560,l),
(56,192,ls),
(56,64,o),
(128,-16,o),
(256,-16,cs),
(320,-16,o),
(384,16,o),
(416,64,c),
(424,64,l),
(432,16,l),
(448,0,l),
(504,0,l),
(520,16,l),
(520,560,l),
(504,576,l)
);
}
);
width = 584;
},
{
layerId = m002;
shapes = (
{
closed = 1;
nodes = (
(440,576,l),
(424,560,l),
(424,224,ls),
(424,122,o),
(384,64,o),
(288,64,cs),
(192,64,o),
(152,122,o),
(152,224,cs),
(152,560,l),
(136,576,l),
(72,576,l),
(56,560,l),
(56,192,ls),
(56,64,o),
(128,-16,o),
(256,-16,cs),
(320,-16,o),
(384,16,o),
(416,64,c),
(424,64,l),
(432,16,l),
(448,0,l),
(504,0,l),
(520,16,l),
(520,560,l),
(504,576,l)
);
}
);
width = 584;
}
);
unicode = 117;
},
{
color = 5;
glyphname = v;
kernLeft = v;
kernRight = v;
lastChange = "2025-10-23 06:38:53 +0000";
layers = (
{
layerId = m001;
shapes = (
{
closed = 1;
nodes = (
(322,0,l),
(338,16,l),
(520,512,l),
(520,560,l),
(504,576,l),
(454,576,l),
(438,560,l),
(276,104,l),
(268,104,l),
(106,560,l),
(90,576,l),
(40,576,l),
(24,560,l),
(24,512,l),
(206,16,l),
(222,0,l)
);
}
);
width = 544;
},
{
layerId = m002;
shapes = (
{
closed = 1;
nodes = (
(322,0,l),
(338,16,l),
(520,512,l),
(520,560,l),
(504,576,l),
(454,576,l),
(438,560,l),
(276,104,l),
(268,104,l),
(106,560,l),
(90,576,l),
(40,576,l),
(24,560,l),
(24,512,l),
(206,16,l),
(222,0,l)
);
}
);
width = 544;
}
);
unicode = 118;
},
{
color = 5;
glyphname = w;
kernLeft = w;
kernRight = w;
lastChange = "2025-07-20 04:43:47 +0000";
layers = (
{
anchors = (
{
name = bottom;
pos = (404,0);
},
{
name = top;
pos = (404,576);
}
);
layerId = m001;
shapes = (
{
closed = 1;
nodes = (
(270,0,l),
(288,16,l),
(396,428,l),
(412,428,l),
(520,16,l),
(536,0,l),
(652,0,l),
(668,16,l),
(784,512,l),
(784,560,l),
(768,576,l),
(712,576,l),
(696,560,l),
(600,108,l),
(584,108,l),
(460,560,l),
(444,576,l),
(364,576,l),
(348,560,l),
(218,108,l),
(206,108,l),
(112,560,l),
(96,576,l),
(40,576,l),
(24,560,l),
(24,512,l),
(140,16,l),
(156,0,l)
);
}
);
width = 808;
},
{
anchors = (
{
name = bottom;
pos = (404,0);
},
{
name = top;
pos = (404,576);
}
);
layerId = m002;
shapes = (
{
closed = 1;
nodes = (
(270,0,l),
(288,16,l),
(396,428,l),
(412,428,l),
(520,16,l),
(536,0,l),
(652,0,l),
(668,16,l),
(784,512,l),
(784,560,l),
(768,576,l),
(712,576,l),
(696,560,l),
(600,108,l),
(584,108,l),
(460,560,l),
(444,576,l),
(364,576,l),
(348,560,l),
(218,108,l),
(206,108,l),
(112,560,l),
(96,576,l),
(40,576,l),
(24,560,l),
(24,512,l),
(140,16,l),
(156,0,l)
);
}
);
width = 808;
}
);
unicode = 119;
},
{
color = 5;
glyphname = x;
kernLeft = x;
kernRight = x;
lastChange = "2025-10-23 16:57:17 +0000";
layers = (
{
layerId = m001;
shapes = (
{
closed = 1;
nodes = (
(92,0,l),
(108,16,l),
(252,224,l),
(264,224,l),
(406,16,l),
(422,0,l),
(466,0,l),
(482,16,l),
(482,64,l),
(328,286,l),
(328,302,l),
(472,512,l),
(472,560,l),
(456,576,l),
(412,576,l),
(396,560,l),
(264,366,l),
(252,366,l),
(118,560,l),
(102,576,l),
(58,576,l),
(42,560,l),
(42,512,l),
(188,302,l),
(188,286,l),
(32,64,l),
(32,16,l),
(48,0,l)
);
}
);
width = 514;
},
{
layerId = m002;
shapes = (
{
closed = 1;
nodes = (
(92,0,l),
(108,16,l),
(252,224,l),
(264,224,l),
(406,16,l),
(422,0,l),
(466,0,l),
(482,16,l),
(482,64,l),
(328,286,l),
(328,302,l),
(472,512,l),
(472,560,l),
(456,576,l),
(412,576,l),
(396,560,l),
(264,366,l),
(252,366,l),
(118,560,l),
(102,576,l),
(58,576,l),
(42,560,l),
(42,512,l),
(188,302,l),
(188,286,l),
(32,64,l),
(32,16,l),
(48,0,l)
);
}
);
width = 514;
}
);
unicode = 120;
},
{
color = 5;
glyphname = y;
kernLeft = y;
kernRight = y;
lastChange = "2025-07-20 05:06:50 +0000";
layers = (
{
anchors = (
{
name = bottom;
pos = (294,0);
},
{
name = top;
pos = (290,576);
}
);
layerId = m001;
shapes = (
{
closed = 1;
nodes = (
(102,-200,ls),
(226,-200,o),
(264,-166,o),
(302,-72,cs),
(534,512,l),
(534,560,l),
(518,576,l),
(462,576,l),
(446,560,l),
(292,150,l),
(284,150,l),
(138,560,l),
(122,576,l),
(64,576,l),
(48,560,l),
(48,512,l),
(234,16,l),
(234,0,l),
(218,-40,ls),
(198,-90,o),
(172,-112,o),
(102,-112,cs),
(48,-112,l),
(32,-128,l),
(32,-184,l),
(48,-200,l)
);
}
);
width = 566;
},
{
anchors = (
{
name = bottom;
pos = (294,0);
},
{
name = top;
pos = (290,576);
}
);
layerId = m002;
shapes = (
{
closed = 1;
nodes = (
(102,-200,ls),
(226,-200,o),
(264,-166,o),
(302,-72,cs),
(534,512,l),
(534,560,l),
(518,576,l),
(462,576,l),
(446,560,l),
(292,150,l),
(284,150,l),
(138,560,l),
(122,576,l),
(64,576,l),
(48,560,l),
(48,512,l),
(234,16,l),
(234,0,l),
(218,-40,ls),
(198,-90,o),
(172,-112,o),
(102,-112,cs),
(48,-112,l),
(32,-128,l),
(32,-184,l),
(48,-200,l)
);
}
);
width = 566;
}
);
unicode = 121;
},
{
color = 5;
glyphname = z;
kernLeft = z;
kernRight = z;
lastChange = "2025-07-20 04:39:02 +0000";
layers = (
{
anchors = (
{
name = bottom;
pos = (260,0);
},
{
name = center;
pos = (246,280);
},
{
name = top;
pos = (260,576);
}
);
layerId = m001;
shapes = (
{
closed = 1;
nodes = (
(456,0,l),
(472,16,l),
(472,72,l),
(456,88,l),
(164,88,l),
(164,96,l),
(448,496,l),
(456,512,l),
(456,560,l),
(440,576,l),
(56,576,l),
(40,560,l),
(40,504,l),
(56,488,l),
(324,488,l),
(324,480,l),
(40,80,l),
(32,64,l),
(32,16,l),
(48,0,l)
);
}
);
width = 504;
},
{
anchors = (
{
name = bottom;
pos = (260,0);
},
{
name = center;
pos = (246,280);
},
{
name = top;
pos = (260,576);
}
);
layerId = m002;
shapes = (
{
closed = 1;
nodes = (
(456,0,l),
(472,16,l),
(472,72,l),
(456,88,l),
(164,88,l),
(164,96,l),
(448,496,l),
(456,512,l),
(456,560,l),
(440,576,l),
(56,576,l),
(40,560,l),
(40,504,l),
(56,488,l),
(324,488,l),
(324,480,l),
(40,80,l),
(32,64,l),
(32,16,l),
(48,0,l)
);
}
);
width = 504;
}
);
unicode = 122;
},
{
glyphname = "alef-ar";
lastChange = "2025-06-29 18:00:55 +0000";
layers = (
{
anchors = (
{
name = bottom;
pos = (112,0);
},
{
name = top;
pos = (112,768);
}
);
layerId = m001;
shapes = (
{
closed = 1;
nodes = (
(144,0,l),
(160,16,l),
(160,752,l),
(144,768,l),
(80,768,l),
(64,752,l),
(64,16,l),
(80,0,l)
);
}
);
width = 224;
},
{
anchors = (
{
name = bottom;
pos = (112,0);
},
{
name = top;
pos = (112,768);
}
);
layerId = m002;
shapes = (
{
closed = 1;
nodes = (
(144,0,l),
(160,16,l),
(160,752,l),
(144,768,l),
(80,768,l),
(64,752,l),
(64,16,l),
(80,0,l)
);
}
);
width = 224;
}
);
unicode = 1575;
},
{
glyphname = "alef-ar.fina";
lastChange = "2025-06-29 02:16:35 +0000";
layers = (
{
anchors = (
{
name = top;
pos = (112,768);
}
);
layerId = m001;
shapes = (
{
closed = 1;
nodes = (
(256,104,l),
(200,104,o),
(160,144,o),
(160,200,cs),
(160,752,l),
(144,768,l),
(80,768,l),
(64,752,l),
(64,200,ls),
(64,72,o),
(128,0,o),
(256,0,c)
);
}
);
width = 256;
},
{
anchors = (
{
name = top;
pos = (112,768);
}
);
layerId = m002;
shapes = (
{
closed = 1;
nodes = (
(256,104,l),
(200,104,o),
(160,144,o),
(160,200,cs),
(160,752,l),
(144,768,l),
(80,768,l),
(64,752,l),
(64,200,ls),
(64,72,o),
(128,0,o),
(256,0,c)
);
}
);
width = 256;
}
);
},
{
glyphname = "behDotless-ar.medi";
lastChange = "2025-06-29 02:26:52 +0000";
layers = (
{
anchors = (
{
name = bottom;
pos = (208,-8);
},
{
name = bottomDots;
pos = (208,0);
},
{
name = top;
pos = (208,496);
},
{
name = topDots;
pos = (208,432);
}
);
layerId = m001;
shapes = (
{
closed = 1;
nodes = (
(0,0,l),
(-16,16,l),
(-16,88,l),
(0,104,l),
(64,104,ls),
(128,104,o),
(160,136,o),
(160,200,cs),
(160,416,l),
(176,432,l),
(240,432,l),
(256,416,l),
(256,200,ls),
(256,136,o),
(288,104,o),
(352,104,cs),
(416,104,l),
(416,0,l),
(352,0,ls),
(296,0,o),
(248,0,o),
(224,60,c),
(208,60,l),
(184,0,o),
(128,0,o),
(64,0,cs)
);
}
);
width = 416;
},
{
anchors = (
{
name = bottom;
pos = (208,-8);
},
{
name = bottomDots;
pos = (208,0);
},
{
name = top;
pos = (208,496);
},
{
name = topDots;
pos = (208,432);
}
);
layerId = m002;
shapes = (
{
closed = 1;
nodes = (
(0,0,l),
(-16,16,l),
(-16,88,l),
(0,104,l),
(64,104,ls),
(128,104,o),
(160,136,o),
(160,200,cs),
(160,416,l),
(176,432,l),
(240,432,l),
(256,416,l),
(256,200,ls),
(256,136,o),
(288,104,o),
(352,104,cs),
(416,104,l),
(416,0,l),
(352,0,ls),
(296,0,o),
(248,0,o),
(224,60,c),
(208,60,l),
(184,0,o),
(128,0,o),
(64,0,cs)
);
}
);
width = 416;
}
);
},
{
glyphname = "behDotless-ar.init";
lastChange = "2025-06-29 02:27:40 +0000";
layers = (
{
anchors = (
{
name = bottom;
pos = (0,16);
},
{
name = bottomDots;
},
{
name = top;
pos = (144,432);
},
{
name = topDots;
pos = (144,448);
}
);
layerId = m001;
shapes = (
{
closed = 1;
nodes = (
(128,0,o),
(192,72,o),
(192,200,cs),
(192,416,l),
(176,432,l),
(112,432,l),
(96,416,l),
(96,200,ls),
(96,136,o),
(64,104,o),
(0,104,c),
(-16,88,l),
(-16,16,l),
(0,0,l)
);
}
);
width = 288;
},
{
anchors = (
{
name = bottom;
pos = (0,16);
},
{
name = bottomDots;
},
{
name = top;
pos = (144,432);
},
{
name = topDots;
pos = (144,448);
}
);
layerId = m002;
shapes = (
{
closed = 1;
nodes = (
(128,0,o),
(192,72,o),
(192,200,cs),
(192,416,l),
(176,432,l),
(112,432,l),
(96,416,l),
(96,200,ls),
(96,136,o),
(64,104,o),
(0,104,c),
(-16,88,l),
(-16,16,l),
(0,0,l)
);
}
);
width = 288;
}
);
},
{
glyphname = "teh-ar.init";
lastChange = "2025-06-28 17:11:19 +0000";
layers = (
{
anchors = (
{
name = bottom;
pos = (84,16);
},
{
name = bottomDots;
pos = (84,0);
},
{
name = top;
pos = (228,432);
},
{
name = topDots;
pos = (228,472);
}
);
layerId = m001;
shapes = (
{
closed = 1;
nodes = (
(212,0,o),
(276,76,o),
(276,204,cs),
(276,416,l),
(260,432,l),
(196,432,l),
(180,416,l),
(180,204,ls),
(180,140,o),
(148,108,o),
(84,108,c),
(0,108,l),
(-16,92,l),
(-16,16,l),
(0,0,l),
(84,0,l)
);
},
{
pos = (76,-128);
ref = "twodotshorizontalabove-ar";
}
);
width = 372;
},
{
anchors = (
{
name = bottom;
pos = (84,16);
},
{
name = bottomDots;
pos = (84,0);
},
{
name = top;
pos = (228,432);
},
{
name = topDots;
pos = (228,472);
}
);
layerId = m002;
shapes = (
{
closed = 1;
nodes = (
(212,0,o),
(276,76,o),
(276,204,cs),
(276,416,l),
(260,432,l),
(196,432,l),
(180,416,l),
(180,204,ls),
(180,140,o),
(148,108,o),
(84,108,c),
(0,108,l),
(-16,92,l),
(-16,16,l),
(0,0,l),
(84,0,l)
);
},
{
pos = (76,-128);
ref = "twodotshorizontalabove-ar";
}
);
width = 372;
}
);
},
{
glyphname = "hah-ar.init";
lastChange = "2025-06-29 02:41:14 +0000";
layers = (
{
anchors = (
{
name = bottom;
pos = (324,32);
},
{
name = bottomDots;
pos = (324,0);
},
{
name = top;
pos = (326,574);
},
{
name = topDots;
pos = (326,530);
}
);
layerId = m001;
shapes = (
{
closed = 1;
nodes = (
(0,0,l),
(-16,16,l),
(-16,88,l),
(0,104,l),
(64,104,ls),
(200,104,o),
(252,210,o),
(412,210,cs),
(476,210,ls),
(532,210,o),
(572,250,o),
(572,306,cs),
(572,362,o),
(532,402,o),
(476,402,cs),
(160,402,ls),
(120,402,o),
(96,378,o),
(96,338,cs),
(96,322,l),
(80,306,l),
(16,306,l),
(0,322,l),
(0,338,ls),
(0,450,o),
(60,506,o),
(172,506,cs),
(476,506,ls),
(588,506,o),
(668,418,o),
(668,306,cs),
(668,194,o),
(588,106,o),
(476,106,cs),
(412,106,ls),
(294,106,o),
(244,0,o),
(64,0,cs)
);
}
);
width = 668;
},
{
anchors = (
{
name = bottom;
pos = (324,32);
},
{
name = bottomDots;
pos = (324,0);
},
{
name = top;
pos = (326,574);
},
{
name = topDots;
pos = (326,530);
}
);
layerId = m002;
shapes = (
{
closed = 1;
nodes = (
(0,0,l),
(-16,16,l),
(-16,88,l),
(0,104,l),
(64,104,ls),
(200,104,o),
(252,210,o),
(412,210,cs),
(476,210,ls),
(532,210,o),
(572,250,o),
(572,306,cs),
(572,362,o),
(532,402,o),
(476,402,cs),
(160,402,ls),
(120,402,o),
(96,378,o),
(96,338,cs),
(96,322,l),
(80,306,l),
(16,306,l),
(0,322,l),
(0,338,ls),
(0,450,o),
(60,506,o),
(172,506,cs),
(476,506,ls),
(588,506,o),
(668,418,o),
(668,306,cs),
(668,194,o),
(588,106,o),
(476,106,cs),
(412,106,ls),
(294,106,o),
(244,0,o),
(64,0,cs)
);
}
);
width = 668;
}
);
},
{
glyphname = "dal-ar";
lastChange = "2025-02-22 19:36:06 +0000";
layers = (
{
layerId = m001;
shapes = (
{
closed = 1;
nodes = (
(208,0,ls),
(80,0,o),
(32,52,o),
(32,180,cs),
(32,252,l),
(48,268,l),
(112,268,l),
(128,252,l),
(128,188,ls),
(128,124,o),
(144,108,o),
(208,108,cs),
(268,108,ls),
(332,108,o),
(348,124,o),
(348,188,cs),
(348,384,l),
(364,400,l),
(428,400,l),
(444,384,l),
(444,188,ls),
(444,52,o),
(408,0,o),
(268,0,cs)
);
}
);
width = 476;
},
{
layerId = m002;
shapes = (
{
closed = 1;
nodes = (
(208,0,ls),
(80,0,o),
(32,52,o),
(32,180,cs),
(32,252,l),
(48,268,l),
(112,268,l),
(128,252,l),
(128,188,ls),
(128,124,o),
(144,108,o),
(208,108,cs),
(268,108,ls),
(332,108,o),
(348,124,o),
(348,188,cs),
(348,384,l),
(364,400,l),
(428,400,l),
(444,384,l),
(444,188,ls),
(444,52,o),
(408,0,o),
(268,0,cs)
);
}
);
width = 476;
}
);
unicode = 1583;
},
{
glyphname = "dal-ar.fina";
lastChange = "2025-06-29 02:24:31 +0000";
layers = (
{
layerId = m001;
shapes = (
{
closed = 1;
nodes = (
(116,0,o),
(32,86,o),
(32,204,cs),
(32,220,l),
(48,236,l),
(112,236,l),
(128,220,l),
(128,204,ls),
(128,148,o),
(168,108,o),
(224,108,cs),
(280,108,o),
(320,148,o),
(320,204,cs),
(320,260,o),
(280,300,o),
(224,300,cs),
(208,300,l),
(192,316,l),
(192,384,l),
(208,400,l),
(224,400,ls),
(344,400,o),
(416,322,o),
(416,204,cs),
(416,148,o),
(472,104,o),
(528,104,c),
(528,0,l),
(464,0,o),
(408,8,o),
(376,64,c),
(368,64,l),
(336,20,o),
(268,0,o),
(224,0,cs)
);
}
);
width = 528;
},
{
layerId = m002;
shapes = (
{
closed = 1;
nodes = (
(116,0,o),
(32,86,o),
(32,204,cs),
(32,220,l),
(48,236,l),
(112,236,l),
(128,220,l),
(128,204,ls),
(128,148,o),
(168,108,o),
(224,108,cs),
(280,108,o),
(320,148,o),
(320,204,cs),
(320,260,o),
(280,300,o),
(224,300,cs),
(208,300,l),
(192,316,l),
(192,384,l),
(208,400,l),
(224,400,ls),
(344,400,o),
(416,322,o),
(416,204,cs),
(416,148,o),
(472,104,o),
(528,104,c),
(528,0,l),
(464,0,o),
(408,8,o),
(376,64,c),
(368,64,l),
(336,20,o),
(268,0,o),
(224,0,cs)
);
}
);
width = 528;
}
);
},
{
glyphname = "reh-ar.fina";
kernLeft = "reh-ar.fina";
lastChange = "2025-06-29 01:44:31 +0000";
layers = (
{
layerId = m001;
shapes = (
{
closed = 1;
nodes = (
(600,104,l),
(536,104,o),
(504,136,o),
(504,200,cs),
(504,416,l),
(488,432,l),
(424,432,l),
(408,416,l),
(408,24,ls),
(408,-104,o),
(360,-152,o),
(232,-152,cs),
(48,-152,l),
(32,-168,l),
(32,-240,l),
(48,-256,l),
(252,-256,ls),
(428,-256,o),
(508,-176,o),
(508,0,cs),
(508,28,l),
(516,36,l),
(524,36,l),
(536,8,o),
(552,0,o),
(600,0,c)
);
}
);
width = 600;
},
{
layerId = m002;
shapes = (
{
closed = 1;
nodes = (
(600,104,l),
(536,104,o),
(504,136,o),
(504,200,cs),
(504,416,l),
(488,432,l),
(424,432,l),
(408,416,l),
(408,24,ls),
(408,-104,o),
(360,-152,o),
(232,-152,cs),
(48,-152,l),
(32,-168,l),
(32,-240,l),
(48,-256,l),
(252,-256,ls),
(428,-256,o),
(508,-176,o),
(508,0,cs),
(508,28,l),
(516,36,l),
(524,36,l),
(536,8,o),
(552,0,o),
(600,0,c)
);
}
);
width = 600;
}
);
},
{
glyphname = "seen-ar.init";
lastChange = "2025-06-29 02:13:59 +0000";
layers = (
{
anchors = (
{
name = bottom;
pos = (432,0);
},
{
name = top;
pos = (432,400);
},
{
name = topDots;
pos = (432,432);
}
);
layerId = m001;
shapes = (
{
closed = 1;
nodes = (
(-16,16,l),
(-16,88,l),
(0,104,l),
(64,104,o),
(96,136,o),
(96,200,cs),
(96,416,l),
(112,432,l),
(176,432,l),
(192,416,l),
(192,184,ls),
(192,128,o),
(232,88,o),
(288,88,cs),
(344,88,o),
(384,128,o),
(384,184,cs),
(384,416,l),
(400,432,l),
(464,432,l),
(480,416,l),
(480,184,ls),
(480,128,o),
(520,88,o),
(576,88,cs),
(632,88,o),
(672,128,o),
(672,184,cs),
(672,416,l),
(688,432,l),
(752,432,l),
(768,416,l),
(768,184,ls),
(768,56,o),
(704,-16,o),
(576,-16,cs),
(520,-16,o),
(468,8,o),
(436,64,c),
(428,64,l),
(396,8,o),
(352,-16,o),
(288,-16,cs),
(224,-16,o),
(180,8,o),
(148,64,c),
(140,64,l),
(108,8,o),
(56,0,o),
(0,0,c)
);
}
);
width = 864;
},
{
anchors = (
{
name = bottom;
pos = (432,0);
},
{
name = top;
pos = (432,400);
},
{
name = topDots;
pos = (432,432);
}
);
layerId = m002;
shapes = (
{
closed = 1;
nodes = (
(-16,16,l),
(-16,88,l),
(0,104,l),
(64,104,o),
(96,136,o),
(96,200,cs),
(96,416,l),
(112,432,l),
(176,432,l),
(192,416,l),
(192,184,ls),
(192,128,o),
(232,88,o),
(288,88,cs),
(344,88,o),
(384,128,o),
(384,184,cs),
(384,416,l),
(400,432,l),
(464,432,l),
(480,416,l),
(480,184,ls),
(480,128,o),
(520,88,o),
(576,88,cs),
(632,88,o),
(672,128,o),
(672,184,cs),
(672,416,l),
(688,432,l),
(752,432,l),
(768,416,l),
(768,184,ls),
(768,56,o),
(704,-16,o),
(576,-16,cs),
(520,-16,o),
(468,8,o),
(436,64,c),
(428,64,l),
(396,8,o),
(352,-16,o),
(288,-16,cs),
(224,-16,o),
(180,8,o),
(148,64,c),
(140,64,l),
(108,8,o),
(56,0,o),
(0,0,c)
);
}
);
width = 864;
}
);
},
{
glyphname = "ain-ar";
layers = (
{
layerId = m001;
shapes = (
{
closed = 1;
nodes = (
(816,0,l),
(832,16,l),
(832,752,l),
(816,768,l),
(80,768,l),
(64,752,l),
(64,16,l),
(80,0,l)
);
},
{
closed = 1;
nodes = (
(96,592,l),
(96,728,l),
(104,736,l),
(240,736,l),
(248,728,l),
(248,592,l),
(240,584,l),
(104,584,l)
);
},
{
closed = 1;
nodes = (
(96,408,l),
(96,544,l),
(104,552,l),
(240,552,l),
(248,544,l),
(248,408,l),
(240,400,l),
(104,400,l)
);
},
{
closed = 1;
nodes = (
(96,224,l),
(96,360,l),
(104,368,l),
(240,368,l),
(248,360,l),
(248,224,l),
(240,216,l),
(104,216,l)
);
},
{
closed = 1;
nodes = (
(96,40,l),
(96,176,l),
(104,184,l),
(240,184,l),
(248,176,l),
(248,40,l),
(240,32,l),
(104,32,l)
);
},
{
closed = 1;
nodes = (
(280,592,l),
(280,728,l),
(288,736,l),
(424,736,l),
(432,728,l),
(432,592,l),
(424,584,l),
(288,584,l)
);
},
{
closed = 1;
nodes = (
(280,408,l),
(280,544,l),
(288,552,l),
(424,552,l),
(432,544,l),
(432,408,l),
(424,400,l),
(288,400,l)
);
},
{
closed = 1;
nodes = (
(280,224,l),
(280,360,l),
(288,368,l),
(424,368,l),
(432,360,l),
(432,224,l),
(424,216,l),
(288,216,l)
);
},
{
closed = 1;
nodes = (
(280,40,l),
(280,176,l),
(288,184,l),
(424,184,l),
(432,176,l),
(432,40,l),
(424,32,l),
(288,32,l)
);
},
{
closed = 1;
nodes = (
(464,592,l),
(464,728,l),
(472,736,l),
(608,736,l),
(616,728,l),
(616,592,l),
(608,584,l),
(472,584,l)
);
},
{
closed = 1;
nodes = (
(464,408,l),
(464,544,l),
(472,552,l),
(608,552,l),
(616,544,l),
(616,408,l),
(608,400,l),
(472,400,l)
);
},
{
closed = 1;
nodes = (
(464,224,l),
(464,360,l),
(472,368,l),
(608,368,l),
(616,360,l),
(616,224,l),
(608,216,l),
(472,216,l)
);
},
{
closed = 1;
nodes = (
(464,40,l),
(464,176,l),
(472,184,l),
(608,184,l),
(616,176,l),
(616,40,l),
(608,32,l),
(472,32,l)
);
},
{
closed = 1;
nodes = (
(648,592,l),
(648,728,l),
(656,736,l),
(792,736,l),
(800,728,l),
(800,592,l),
(792,584,l),
(656,584,l)
);
},
{
closed = 1;
nodes = (
(648,408,l),
(648,544,l),
(656,552,l),
(792,552,l),
(800,544,l),
(800,408,l),
(792,400,l),
(656,400,l)
);
},
{
closed = 1;
nodes = (
(648,224,l),
(648,360,l),
(656,368,l),
(792,368,l),
(800,360,l),
(800,224,l),
(792,216,l),
(656,216,l)
);
},
{
closed = 1;
nodes = (
(648,40,l),
(648,176,l),
(656,184,l),
(792,184,l),
(800,176,l),
(800,40,l),
(792,32,l),
(656,32,l)
);
}
);
width = 600;
},
{
layerId = m002;
shapes = (
{
closed = 1;
nodes = (
(816,0,l),
(832,16,l),
(832,752,l),
(816,768,l),
(80,768,l),
(64,752,l),
(64,16,l),
(80,0,l)
);
},
{
closed = 1;
nodes = (
(96,592,l),
(96,728,l),
(104,736,l),
(240,736,l),
(248,728,l),
(248,592,l),
(240,584,l),
(104,584,l)
);
},
{
closed = 1;
nodes = (
(96,408,l),
(96,544,l),
(104,552,l),
(240,552,l),
(248,544,l),
(248,408,l),
(240,400,l),
(104,400,l)
);
},
{
closed = 1;
nodes = (
(96,224,l),
(96,360,l),
(104,368,l),
(240,368,l),
(248,360,l),
(248,224,l),
(240,216,l),
(104,216,l)
);
},
{
closed = 1;
nodes = (
(96,40,l),
(96,176,l),
(104,184,l),
(240,184,l),
(248,176,l),
(248,40,l),
(240,32,l),
(104,32,l)
);
},
{
closed = 1;
nodes = (
(280,592,l),
(280,728,l),
(288,736,l),
(424,736,l),
(432,728,l),
(432,592,l),
(424,584,l),
(288,584,l)
);
},
{
closed = 1;
nodes = (
(280,408,l),
(280,544,l),
(288,552,l),
(424,552,l),
(432,544,l),
(432,408,l),
(424,400,l),
(288,400,l)
);
},
{
closed = 1;
nodes = (
(280,224,l),
(280,360,l),
(288,368,l),
(424,368,l),
(432,360,l),
(432,224,l),
(424,216,l),
(288,216,l)
);
},
{
closed = 1;
nodes = (
(280,40,l),
(280,176,l),
(288,184,l),
(424,184,l),
(432,176,l),
(432,40,l),
(424,32,l),
(288,32,l)
);
},
{
closed = 1;
nodes = (
(464,592,l),
(464,728,l),
(472,736,l),
(608,736,l),
(616,728,l),
(616,592,l),
(608,584,l),
(472,584,l)
);
},
{
closed = 1;
nodes = (
(464,408,l),
(464,544,l),
(472,552,l),
(608,552,l),
(616,544,l),
(616,408,l),
(608,400,l),
(472,400,l)
);
},
{
closed = 1;
nodes = (
(464,224,l),
(464,360,l),
(472,368,l),
(608,368,l),
(616,360,l),
(616,224,l),
(608,216,l),
(472,216,l)
);
},
{
closed = 1;
nodes = (
(464,40,l),
(464,176,l),
(472,184,l),
(608,184,l),
(616,176,l),
(616,40,l),
(608,32,l),
(472,32,l)
);
},
{
closed = 1;
nodes = (
(648,592,l),
(648,728,l),
(656,736,l),
(792,736,l),
(800,728,l),
(800,592,l),
(792,584,l),
(656,584,l)
);
},
{
closed = 1;
nodes = (
(648,408,l),
(648,544,l),
(656,552,l),
(792,552,l),
(800,544,l),
(800,408,l),
(792,400,l),
(656,400,l)
);
},
{
closed = 1;
nodes = (
(648,224,l),
(648,360,l),
(656,368,l),
(792,368,l),
(800,360,l),
(800,224,l),
(792,216,l),
(656,216,l)
);
},
{
closed = 1;
nodes = (
(648,40,l),
(648,176,l),
(656,184,l),
(792,184,l),
(800,176,l),
(800,40,l),
(792,32,l),
(656,32,l)
);
}
);
width = 600;
}
);
unicode = 1593;
},
{
glyphname = "ain-ar.medi";
lastChange = "2025-06-29 01:43:59 +0000";
layers = (
{
layerId = m001;
shapes = (
{
closed = 1;
nodes = (
(440,0,ls),
(392,0,o),
(352,0,o),
(308,32,c),
(300,32,l),
(256,0,o),
(216,0,o),
(168,0,cs),
(0,0,l),
(-16,16,l),
(-16,88,l),
(0,104,l),
(192,104,l),
(200,112,l),
(200,120,l),
(116,226,ls),
(100,246,o),
(80,268,o),
(80,312,cs),
(80,384,o),
(136,432,o),
(224,432,cs),
(384,432,ls),
(472,432,o),
(528,384,o),
(528,312,cs),
(528,268,o),
(508,246,o),
(492,226,cs),
(408,120,l),
(408,112,l),
(416,104,l),
(608,104,l),
(608,0,l)
);
},
{
closed = 1;
nodes = (
(400,238,ls),
(418,262,o),
(432,280,o),
(432,296,cs),
(432,314,o),
(418,328,o),
(400,328,cs),
(208,328,ls),
(190,328,o),
(176,314,o),
(176,296,cs),
(176,280,o),
(192,260,o),
(208,238,cs),
(300,120,l),
(308,120,l)
);
}
);
width = 608;
},
{
layerId = m002;
shapes = (
{
closed = 1;
nodes = (
(440,0,ls),
(392,0,o),
(352,0,o),
(308,32,c),
(300,32,l),
(256,0,o),
(216,0,o),
(168,0,cs),
(0,0,l),
(-16,16,l),
(-16,88,l),
(0,104,l),
(192,104,l),
(200,112,l),
(200,120,l),
(116,226,ls),
(100,246,o),
(80,268,o),
(80,312,cs),
(80,384,o),
(136,432,o),
(224,432,cs),
(384,432,ls),
(472,432,o),
(528,384,o),
(528,312,cs),
(528,268,o),
(508,246,o),
(492,226,cs),
(408,120,l),
(408,112,l),
(416,104,l),
(608,104,l),
(608,0,l)
);
},
{
closed = 1;
nodes = (
(400,238,ls),
(418,262,o),
(432,280,o),
(432,296,cs),
(432,314,o),
(418,328,o),
(400,328,cs),
(208,328,ls),
(190,328,o),
(176,314,o),
(176,296,cs),
(176,280,o),
(192,260,o),
(208,238,cs),
(300,120,l),
(308,120,l)
);
}
);
width = 608;
}
);
},
{
glyphname = "ain-ar.init";
lastChange = "2025-06-29 01:51:32 +0000";
layers = (
{
layerId = m001;
shapes = (
{
closed = 1;
nodes = (
(420,0,l),
(436,16,l),
(436,88,l),
(420,104,l),
(276,104,ls),
(188,104,o),
(148,156,o),
(148,220,cs),
(148,276,o),
(188,316,o),
(244,316,cs),
(300,316,o),
(340,276,o),
(340,220,c),
(356,204,l),
(420,204,l),
(436,220,l),
(436,348,o),
(340,424,o),
(244,424,cs),
(148,424,o),
(52,348,o),
(52,220,cs),
(52,172,o),
(80,128,o),
(100,112,c),
(100,104,l),
(0,104,l),
(-16,88,l),
(-16,16,l),
(0,0,l)
);
}
);
width = 468;
},
{
layerId = m002;
shapes = (
{
closed = 1;
nodes = (
(420,0,l),
(436,16,l),
(436,88,l),
(420,104,l),
(276,104,ls),
(188,104,o),
(148,156,o),
(148,220,cs),
(148,276,o),
(188,316,o),
(244,316,cs),
(300,316,o),
(340,276,o),
(340,220,c),
(356,204,l),
(420,204,l),
(436,220,l),
(436,348,o),
(340,424,o),
(244,424,cs),
(148,424,o),
(52,348,o),
(52,220,cs),
(52,172,o),
(80,128,o),
(100,112,c),
(100,104,l),
(0,104,l),
(-16,88,l),
(-16,16,l),
(0,0,l)
);
}
);
width = 468;
}
);
},
{
glyphname = "fehDotless-ar.medi";
lastChange = "2025-06-29 02:38:15 +0000";
layers = (
{
anchors = (
{
name = top;
pos = (304,576);
},
{
name = topDots;
pos = (304,432);
}
);
layerId = m001;
shapes = (
{
closed = 1;
nodes = (
(440,0,ls),
(392,0,o),
(352,0,o),
(308,24,c),
(300,24,l),
(256,0,o),
(216,0,o),
(168,0,cs),
(0,0,l),
(-16,16,l),
(-16,88,l),
(0,104,l),
(152,104,l),
(152,112,l),
(128,144,o),
(112,168,o),
(112,224,cs),
(112,320,o),
(176,410,o),
(304,408,cs),
(432,406,o),
(496,320,o),
(496,224,cs),
(496,168,o),
(480,144,o),
(456,112,c),
(456,104,l),
(592,104,l),
(592,0,l)
);
},
{
closed = 1;
nodes = (
(360,112,o),
(400,152,o),
(400,208,cs),
(400,264,o),
(360,304,o),
(304,304,cs),
(248,304,o),
(208,264,o),
(208,208,cs),
(208,152,o),
(248,112,o),
(304,112,cs)
);
}
);
width = 592;
},
{
anchors = (
{
name = top;
pos = (304,576);
},
{
name = topDots;
pos = (304,432);
}
);
layerId = m002;
shapes = (
{
closed = 1;
nodes = (
(440,0,ls),
(392,0,o),
(352,0,o),
(308,24,c),
(300,24,l),
(256,0,o),
(216,0,o),
(168,0,cs),
(0,0,l),
(-16,16,l),
(-16,88,l),
(0,104,l),
(152,104,l),
(152,112,l),
(128,144,o),
(112,168,o),
(112,224,cs),
(112,320,o),
(176,410,o),
(304,408,cs),
(432,406,o),
(496,320,o),
(496,224,cs),
(496,168,o),
(480,144,o),
(456,112,c),
(456,104,l),
(592,104,l),
(592,0,l)
);
},
{
closed = 1;
nodes = (
(360,112,o),
(400,152,o),
(400,208,cs),
(400,264,o),
(360,304,o),
(304,304,cs),
(248,304,o),
(208,264,o),
(208,208,cs),
(208,152,o),
(248,112,o),
(304,112,cs)
);
}
);
width = 592;
}
);
metricRight = "-";
},
{
glyphname = "fehDotless-ar.init";
kernRight = "feh-ar.init";
lastChange = "2025-06-29 01:45:03 +0000";
layers = (
{
anchors = (
{
name = top;
pos = (224,720);
},
{
name = topDots;
pos = (224,576);
}
);
layerId = m001;
shapes = (
{
closed = 1;
nodes = (
(168,488,o),
(122,464,o),
(122,408,cs),
(122,352,o),
(170,320,o),
(226,320,cs),
(346,320,l),
(354,326,l),
(354,342,ls),
(354,406,o),
(320,488,o),
(224,488,cs)
);
},
{
closed = 1;
nodes = (
(0,0,l),
(-16,16,l),
(-16,88,l),
(0,104,l),
(258,104,ls),
(314,104,o),
(354,156,o),
(354,212,cs),
(354,220,l),
(346,228,l),
(226,228,ls),
(116,228,o),
(24,286,o),
(24,408,cs),
(24,536,o),
(96,592,o),
(224,592,cs),
(384,592,o),
(450,470,o),
(450,342,cs),
(450,208,ls),
(450,80,o),
(378,0,o),
(258,0,cs)
);
}
);
width = 482;
},
{
anchors = (
{
name = top;
pos = (224,720);
},
{
name = topDots;
pos = (224,576);
}
);
layerId = m002;
shapes = (
{
closed = 1;
nodes = (
(168,488,o),
(122,464,o),
(122,408,cs),
(122,352,o),
(170,320,o),
(226,320,cs),
(346,320,l),
(354,326,l),
(354,342,ls),
(354,406,o),
(320,488,o),
(224,488,cs)
);
},
{
closed = 1;
nodes = (
(0,0,l),
(-16,16,l),
(-16,88,l),
(0,104,l),
(258,104,ls),
(314,104,o),
(354,156,o),
(354,212,cs),
(354,220,l),
(346,228,l),
(226,228,ls),
(116,228,o),
(24,286,o),
(24,408,cs),
(24,536,o),
(96,592,o),
(224,592,cs),
(384,592,o),
(450,470,o),
(450,342,cs),
(450,208,ls),
(450,80,o),
(378,0,o),
(258,0,cs)
);
}
);
width = 482;
}
);
},
{
glyphname = "kaf-ar.fina";
lastChange = "2025-07-04 07:03:38 +0000";
layers = (
{
layerId = m001;
shapes = (
{
closed = 1;
nodes = (
(868,104,l),
(804,104,o),
(772,136,o),
(772,200,cs),
(772,752,l),
(756,768,l),
(692,768,l),
(676,752,l),
(676,200,ls),
(676,136,o),
(644,104,o),
(580,104,cs),
(222,104,ls),
(158,104,o),
(126,136,o),
(126,200,cs),
(126,304,l),
(110,320,l),
(46,320,l),
(30,304,l),
(30,200,ls),
(30,64,o),
(86,0,o),
(222,0,cs),
(580,0,ls),
(612,0,o),
(688,0,o),
(720,64,c),
(728,64,l),
(760,0,o),
(836,0,o),
(868,0,c)
);
},
{
closed = 1;
nodes = (
(454,256,ls),
(518,256,o),
(558,288,o),
(558,352,cs),
(558,416,o),
(518,448,o),
(454,448,cs),
(376,448,ls),
(358,448,o),
(340,462,o),
(340,480,cs),
(340,498,o),
(358,512,o),
(376,512,cs),
(510,512,l),
(526,528,l),
(526,560,l),
(510,576,l),
(384,576,ls),
(324,576,o),
(280,548,o),
(280,480,cs),
(280,412,o),
(324,384,o),
(384,384,cs),
(462,384,ls),
(480,384,o),
(494,370,o),
(494,352,cs),
(494,334,o),
(480,320,o),
(462,320,cs),
(296,320,l),
(280,304,l),
(280,272,l),
(296,256,l)
);
}
);
width = 868;
},
{
layerId = m002;
shapes = (
{
closed = 1;
nodes = (
(868,104,l),
(804,104,o),
(772,136,o),
(772,200,cs),
(772,752,l),
(756,768,l),
(692,768,l),
(676,752,l),
(676,200,ls),
(676,136,o),
(644,104,o),
(580,104,cs),
(222,104,ls),
(158,104,o),
(126,136,o),
(126,200,cs),
(126,304,l),
(110,320,l),
(46,320,l),
(30,304,l),
(30,200,ls),
(30,64,o),
(86,0,o),
(222,0,cs),
(580,0,ls),
(612,0,o),
(688,0,o),
(720,64,c),
(728,64,l),
(760,0,o),
(836,0,o),
(868,0,c)
);
},
{
closed = 1;
nodes = (
(454,256,ls),
(518,256,o),
(558,288,o),
(558,352,cs),
(558,416,o),
(518,448,o),
(454,448,cs),
(376,448,ls),
(358,448,o),
(340,462,o),
(340,480,cs),
(340,498,o),
(358,512,o),
(376,512,cs),
(510,512,l),
(526,528,l),
(526,560,l),
(510,576,l),
(384,576,ls),
(324,576,o),
(280,548,o),
(280,480,cs),
(280,412,o),
(324,384,o),
(384,384,cs),
(462,384,ls),
(480,384,o),
(494,370,o),
(494,352,cs),
(494,334,o),
(480,320,o),
(462,320,cs),
(296,320,l),
(280,304,l),
(280,272,l),
(296,256,l)
);
}
);
width = 868;
}
);
},
{
glyphname = "lam-ar.fina";
layers = (
{
layerId = m001;
shapes = (
{
closed = 1;
nodes = (
(528,64,l),
(512,80,l),
(304,80,ls),
(208,80,o),
(176,136,o),
(176,256,cs),
(176,752,l),
(160,768,l),
(96,768,l),
(80,752,l),
(80,266,ls),
(80,80,o),
(136,0,o),
(288,0,cs),
(512,0,l),
(528,16,l)
);
}
);
width = 512;
},
{
layerId = m002;
shapes = (
{
closed = 1;
nodes = (
(528,64,l),
(512,80,l),
(304,80,ls),
(208,80,o),
(176,136,o),
(176,256,cs),
(176,752,l),
(160,768,l),
(96,768,l),
(80,752,l),
(80,266,ls),
(80,80,o),
(136,0,o),
(288,0,cs),
(512,0,l),
(528,16,l)
);
}
);
width = 512;
}
);
},
{
glyphname = "lam-ar.medi";
lastChange = "2025-06-29 02:40:48 +0000";
layers = (
{
layerId = m001;
shapes = (
{
closed = 1;
nodes = (
(-16,16,l),
(-16,88,l),
(0,104,l),
(64,104,ls),
(128,104,o),
(160,136,o),
(160,200,cs),
(160,752,l),
(176,768,l),
(240,768,l),
(256,752,l),
(256,200,ls),
(256,136,o),
(288,104,o),
(352,104,cs),
(416,104,l),
(432,88,l),
(432,16,l),
(416,0,l),
(352,0,ls),
(288,0,o),
(244,0,o),
(212,64,c),
(204,64,l),
(172,0,o),
(128,0,o),
(64,0,cs),
(0,0,l)
);
}
);
width = 416;
},
{
layerId = m002;
shapes = (
{
closed = 1;
nodes = (
(-16,16,l),
(-16,88,l),
(0,104,l),
(64,104,ls),
(128,104,o),
(160,136,o),
(160,200,cs),
(160,752,l),
(176,768,l),
(240,768,l),
(256,752,l),
(256,200,ls),
(256,136,o),
(288,104,o),
(352,104,cs),
(416,104,l),
(432,88,l),
(432,16,l),
(416,0,l),
(352,0,ls),
(288,0,o),
(244,0,o),
(212,64,c),
(204,64,l),
(172,0,o),
(128,0,o),
(64,0,cs),
(0,0,l)
);
}
);
width = 416;
}
);
},
{
glyphname = "lam-ar.init";
lastChange = "2025-06-29 01:20:57 +0000";
layers = (
{
layerId = m001;
shapes = (
{
closed = 1;
nodes = (
(128,0,o),
(192,72,o),
(192,200,cs),
(192,752,l),
(176,768,l),
(112,768,l),
(96,752,l),
(96,200,ls),
(96,144,o),
(56,104,o),
(0,104,c),
(-16,88,l),
(-16,16,l),
(0,0,l)
);
}
);
width = 288;
},
{
layerId = m002;
shapes = (
{
closed = 1;
nodes = (
(128,0,o),
(192,72,o),
(192,200,cs),
(192,752,l),
(176,768,l),
(112,768,l),
(96,752,l),
(96,200,ls),
(96,144,o),
(56,104,o),
(0,104,c),
(-16,88,l),
(-16,16,l),
(0,0,l)
);
}
);
width = 288;
}
);
},
{
glyphname = "heh-ar.medi";
lastChange = "2025-06-29 02:15:57 +0000";
layers = (
{
layerId = m001;
shapes = (
{
closed = 1;
nodes = (
(344,-192,o),
(384,-152,o),
(384,-96,cs),
(384,-40,o),
(344,0,o),
(288,0,cs),
(160,0,l),
(152,-6,l),
(152,-38,ls),
(152,-102,o),
(192,-192,o),
(288,-192,cs)
);
},
{
closed = 1;
nodes = (
(256,104,o),
(344,148,o),
(344,244,cs),
(344,300,o),
(304,340,o),
(248,340,cs),
(192,340,o),
(152,300,o),
(152,244,cs),
(152,112,l),
(160,104,l),
(192,104,ls)
);
},
{
closed = 1;
nodes = (
(128,-296,o),
(56,-166,o),
(56,-38,cs),
(56,-6,l),
(48,0,l),
(0,0,l),
(-16,14,l),
(-16,88,l),
(0,104,l),
(48,104,l),
(56,112,l),
(56,244,ls),
(56,372,o),
(128,444,o),
(248,444,cs),
(368,444,o),
(432,372,o),
(432,260,cs),
(432,180,o),
(394,124,o),
(356,112,c),
(356,104,l),
(482,104,l),
(482,0,l),
(436,0,l),
(436,-8,l),
(460,-24,o),
(482,-58,o),
(482,-112,cs),
(482,-216,o),
(416,-296,o),
(288,-296,cs)
);
}
);
width = 482;
},
{
layerId = m002;
shapes = (
{
closed = 1;
nodes = (
(344,-192,o),
(384,-152,o),
(384,-96,cs),
(384,-40,o),
(344,0,o),
(288,0,cs),
(160,0,l),
(152,-6,l),
(152,-38,ls),
(152,-102,o),
(192,-192,o),
(288,-192,cs)
);
},
{
closed = 1;
nodes = (
(256,104,o),
(344,148,o),
(344,244,cs),
(344,300,o),
(304,340,o),
(248,340,cs),
(192,340,o),
(152,300,o),
(152,244,cs),
(152,112,l),
(160,104,l),
(192,104,ls)
);
},
{
closed = 1;
nodes = (
(128,-296,o),
(56,-166,o),
(56,-38,cs),
(56,-6,l),
(48,0,l),
(0,0,l),
(-16,14,l),
(-16,88,l),
(0,104,l),
(48,104,l),
(56,112,l),
(56,244,ls),
(56,372,o),
(128,444,o),
(248,444,cs),
(368,444,o),
(432,372,o),
(432,260,cs),
(432,180,o),
(394,124,o),
(356,112,c),
(356,104,l),
(482,104,l),
(482,0,l),
(436,0,l),
(436,-8,l),
(460,-24,o),
(482,-58,o),
(482,-112,cs),
(482,-216,o),
(416,-296,o),
(288,-296,cs)
);
}
);
width = 482;
}
);
},
{
glyphname = "waw-ar";
lastChange = "2025-06-29 00:22:16 +0000";
layers = (
{
layerId = m001;
shapes = (
{
closed = 1;
nodes = (
(250,300,o),
(210,260,o),
(210,204,cs),
(210,148,o),
(250,108,o),
(306,108,cs),
(434,108,l),
(442,116,l),
(442,124,ls),
(442,252,o),
(362,300,o),
(306,300,cs)
);
},
{
closed = 1;
nodes = (
(0,-256,ls),
(-96,-256,o),
(-128,-212,o),
(-128,-116,cs),
(-128,-84,l),
(-112,-68,l),
(-48,-68,l),
(-32,-84,l),
(-32,-116,ls),
(-32,-140,o),
(-24,-148,o),
(0,-148,cs),
(306,-148,ls),
(378,-148,o),
(442,-96,o),
(442,-16,cs),
(442,-8,l),
(434,0,l),
(306,0,ls),
(196,0,o),
(114,82,o),
(114,204,cs),
(114,332,o),
(198,408,o),
(306,408,cs),
(434,408,o),
(538,312,o),
(538,116,cs),
(538,0,ls),
(538,-148,o),
(438,-256,o),
(306,-256,cs)
);
}
);
width = 570;
},
{
layerId = m002;
shapes = (
{
closed = 1;
nodes = (
(250,300,o),
(210,260,o),
(210,204,cs),
(210,148,o),
(250,108,o),
(306,108,cs),
(434,108,l),
(442,116,l),
(442,124,ls),
(442,252,o),
(362,300,o),
(306,300,cs)
);
},
{
closed = 1;
nodes = (
(0,-256,ls),
(-96,-256,o),
(-128,-212,o),
(-128,-116,cs),
(-128,-84,l),
(-112,-68,l),
(-48,-68,l),
(-32,-84,l),
(-32,-116,ls),
(-32,-140,o),
(-24,-148,o),
(0,-148,cs),
(306,-148,ls),
(378,-148,o),
(442,-96,o),
(442,-16,cs),
(442,-8,l),
(434,0,l),
(306,0,ls),
(196,0,o),
(114,82,o),
(114,204,cs),
(114,332,o),
(198,408,o),
(306,408,cs),
(434,408,o),
(538,312,o),
(538,116,cs),
(538,0,ls),
(538,-148,o),
(438,-256,o),
(306,-256,cs)
);
}
);
width = 570;
}
);
unicode = 1608;
},
{
glyphname = "yeh-ar.fina";
lastChange = "2025-07-04 07:00:57 +0000";
layers = (
{
layerId = m001;
shapes = (
{
closed = 1;
nodes = (
(104,0,o),
(32,76,o),
(32,204,cs),
(32,284,l),
(48,300,l),
(112,300,l),
(128,284,l),
(128,204,ls),
(128,146,o),
(166,104,o),
(224,104,cs),
(400,104,ls),
(458,104,o),
(496,142,o),
(496,200,cs),
(496,228,ls),
(496,356,o),
(560,444,o),
(688,444,cs),
(816,444,o),
(880,356,o),
(880,228,cs),
(880,200,ls),
(880,144,o),
(920,104,o),
(976,104,c),
(976,0,l),
(848,0,o),
(784,72,o),
(784,200,cs),
(784,244,ls),
(784,300,o),
(744,340,o),
(688,340,cs),
(632,340,o),
(592,300,o),
(592,244,cs),
(592,200,ls),
(592,72,o),
(520,0,o),
(392,0,cs),
(232,0,ls)
);
},
{
closed = 1;
nodes = (
(228,-272,o),
(264,-236,o),
(264,-192,cs),
(264,-148,o),
(228,-112,o),
(184,-112,cs),
(140,-112,o),
(104,-148,o),
(104,-192,cs),
(104,-236,o),
(140,-272,o),
(184,-272,cs)
);
},
{
closed = 1;
nodes = (
(484,-272,o),
(520,-236,o),
(520,-192,cs),
(520,-148,o),
(484,-112,o),
(440,-112,cs),
(396,-112,o),
(360,-148,o),
(360,-192,cs),
(360,-236,o),
(396,-272,o),
(440,-272,cs)
);
}
);
width = 976;
},
{
layerId = m002;
shapes = (
{
closed = 1;
nodes = (
(104,0,o),
(32,76,o),
(32,204,cs),
(32,284,l),
(48,300,l),
(112,300,l),
(128,284,l),
(128,204,ls),
(128,146,o),
(166,104,o),
(224,104,cs),
(400,104,ls),
(458,104,o),
(496,142,o),
(496,200,cs),
(496,228,ls),
(496,356,o),
(560,444,o),
(688,444,cs),
(816,444,o),
(880,356,o),
(880,228,cs),
(880,200,ls),
(880,144,o),
(920,104,o),
(976,104,c),
(976,0,l),
(848,0,o),
(784,72,o),
(784,200,cs),
(784,244,ls),
(784,300,o),
(744,340,o),
(688,340,cs),
(632,340,o),
(592,300,o),
(592,244,cs),
(592,200,ls),
(592,72,o),
(520,0,o),
(392,0,cs),
(232,0,ls)
);
},
{
closed = 1;
nodes = (
(228,-272,o),
(264,-236,o),
(264,-192,cs),
(264,-148,o),
(228,-112,o),
(184,-112,cs),
(140,-112,o),
(104,-148,o),
(104,-192,cs),
(104,-236,o),
(140,-272,o),
(184,-272,cs)
);
},
{
closed = 1;
nodes = (
(484,-272,o),
(520,-236,o),
(520,-192,cs),
(520,-148,o),
(484,-112,o),
(440,-112,cs),
(396,-112,o),
(360,-148,o),
(360,-192,cs),
(360,-236,o),
(396,-272,o),
(440,-272,cs)
);
}
);
width = 976;
}
);
},
{
glyphname = "yeh-ar.init";
lastChange = "2025-06-29 02:17:13 +0000";
layers = (
{
layerId = m001;
shapes = (
{
closed = 1;
nodes = (
(128,0,o),
(192,72,o),
(192,200,cs),
(192,416,l),
(176,432,l),
(112,432,l),
(96,416,l),
(96,200,ls),
(96,144,o),
(56,104,o),
(0,104,c),
(-16,88,l),
(-16,16,l),
(0,0,l)
);
},
{
closed = 1;
nodes = (
(-84,-272,o),
(-48,-236,o),
(-48,-192,cs),
(-48,-148,o),
(-84,-112,o),
(-128,-112,cs),
(-172,-112,o),
(-208,-148,o),
(-208,-192,cs),
(-208,-236,o),
(-172,-272,o),
(-128,-272,cs)
);
},
{
closed = 1;
nodes = (
(172,-272,o),
(208,-236,o),
(208,-192,cs),
(208,-148,o),
(172,-112,o),
(128,-112,cs),
(84,-112,o),
(48,-148,o),
(48,-192,cs),
(48,-236,o),
(84,-272,o),
(128,-272,cs)
);
}
);
width = 256;
},
{
layerId = m002;
shapes = (
{
closed = 1;
nodes = (
(128,0,o),
(192,72,o),
(192,200,cs),
(192,416,l),
(176,432,l),
(112,432,l),
(96,416,l),
(96,200,ls),
(96,144,o),
(56,104,o),
(0,104,c),
(-16,88,l),
(-16,16,l),
(0,0,l)
);
},
{
closed = 1;
nodes = (
(-84,-272,o),
(-48,-236,o),
(-48,-192,cs),
(-48,-148,o),
(-84,-112,o),
(-128,-112,cs),
(-172,-112,o),
(-208,-148,o),
(-208,-192,cs),
(-208,-236,o),
(-172,-272,o),
(-128,-272,cs)
);
},
{
closed = 1;
nodes = (
(172,-272,o),
(208,-236,o),
(208,-192,cs),
(208,-148,o),
(172,-112,o),
(128,-112,cs),
(84,-112,o),
(48,-148,o),
(48,-192,cs),
(48,-236,o),
(84,-272,o),
(128,-272,cs)
);
}
);
width = 256;
}
);
},
{
glyphname = "dotabove-ar";
lastChange = "2025-06-22 06:29:54 +0000";
layers = (
{
anchors = (
{
name = _topDots;
pos = (152,576);
},
{
name = top;
pos = (152,812);
}
);
layerId = m001;
shapes = (
{
closed = 1;
nodes = (
(196,688,o),
(232,724,o),
(232,768,cs),
(232,812,o),
(196,848,o),
(152,848,cs),
(108,848,o),
(72,812,o),
(72,768,cs),
(72,724,o),
(108,688,o),
(152,688,cs)
);
}
);
width = 300;
},
{
anchors = (
{
name = _topDots;
pos = (152,576);
},
{
name = top;
pos = (152,812);
}
);
layerId = m002;
shapes = (
{
closed = 1;
nodes = (
(196,688,o),
(232,724,o),
(232,768,cs),
(232,812,o),
(196,848,o),
(152,848,cs),
(108,848,o),
(72,812,o),
(72,768,cs),
(72,724,o),
(108,688,o),
(152,688,cs)
);
}
);
width = 300;
}
);
},
{
glyphname = "dotbelow-ar";
lastChange = "2025-06-16 06:14:52 +0000";
layers = (
{
anchors = (
{
name = _bottomDots;
pos = (124,0);
},
{
name = bottom;
pos = (124,-306);
}
);
layerId = m001;
shapes = (
{
closed = 1;
nodes = (
(166,-272,o),
(202,-236,o),
(202,-192,cs),
(202,-148,o),
(166,-112,o),
(122,-112,cs),
(78,-112,o),
(42,-148,o),
(42,-192,cs),
(42,-236,o),
(78,-272,o),
(122,-272,cs)
);
}
);
width = 244;
},
{
anchors = (
{
name = _bottomDots;
pos = (124,0);
},
{
name = bottom;
pos = (124,-306);
}
);
layerId = m002;
shapes = (
{
closed = 1;
nodes = (
(166,-272,o),
(202,-236,o),
(202,-192,cs),
(202,-148,o),
(166,-112,o),
(122,-112,cs),
(78,-112,o),
(42,-148,o),
(42,-192,cs),
(42,-236,o),
(78,-272,o),
(122,-272,cs)
);
}
);
width = 244;
}
);
},
{
glyphname = "twodotshorizontalabove-ar";
lastChange = "2025-06-22 06:02:46 +0000";
layers = (
{
anchors = (
{
name = _topDots;
pos = (152,576);
},
{
name = top;
pos = (152,800);
}
);
layerId = m001;
shapes = (
{
closed = 1;
nodes = (
(68,688,o),
(104,724,o),
(104,768,cs),
(104,812,o),
(68,848,o),
(24,848,cs),
(-20,848,o),
(-56,812,o),
(-56,768,cs),
(-56,724,o),
(-20,688,o),
(24,688,cs)
);
},
{
closed = 1;
nodes = (
(324,688,o),
(360,724,o),
(360,768,cs),
(360,812,o),
(324,848,o),
(280,848,cs),
(236,848,o),
(200,812,o),
(200,768,cs),
(200,724,o),
(236,688,o),
(280,688,cs)
);
}
);
width = 300;
},
{
anchors = (
{
name = _topDots;
pos = (152,576);
},
{
name = top;
pos = (152,800);
}
);
layerId = m002;
shapes = (
{
closed = 1;
nodes = (
(68,688,o),
(104,724,o),
(104,768,cs),
(104,812,o),
(68,848,o),
(24,848,cs),
(-20,848,o),
(-56,812,o),
(-56,768,cs),
(-56,724,o),
(-20,688,o),
(24,688,cs)
);
},
{
closed = 1;
nodes = (
(324,688,o),
(360,724,o),
(360,768,cs),
(360,812,o),
(324,848,o),
(280,848,cs),
(236,848,o),
(200,812,o),
(200,768,cs),
(200,724,o),
(236,688,o),
(280,688,cs)
);
}
);
width = 300;
}
);
},
{
glyphname = "threedotsupabove-ar";
lastChange = "2025-06-16 06:05:29 +0000";
layers = (
{
anchors = (
{
name = _topDots;
pos = (232,576);
},
{
name = top;
pos = (232,924);
}
);
layerId = m001;
shapes = (
{
closed = 1;
nodes = (
(132,656,o),
(168,692,o),
(168,736,cs),
(168,780,o),
(132,816,o),
(88,816,cs),
(44,816,o),
(8,780,o),
(8,736,cs),
(8,692,o),
(44,656,o),
(88,656,cs)
);
},
{
closed = 1;
nodes = (
(420,656,o),
(456,692,o),
(456,736,cs),
(456,780,o),
(420,816,o),
(376,816,cs),
(332,816,o),
(296,780,o),
(296,736,cs),
(296,692,o),
(332,656,o),
(376,656,cs)
);
},
{
closed = 1;
nodes = (
(276,864,o),
(312,900,o),
(312,944,cs),
(312,988,o),
(276,1024,o),
(232,1024,cs),
(188,1024,o),
(152,988,o),
(152,944,cs),
(152,900,o),
(188,864,o),
(232,864,cs)
);
}
);
width = 464;
},
{
anchors = (
{
name = _topDots;
pos = (232,576);
},
{
name = top;
pos = (232,924);
}
);
layerId = m002;
shapes = (
{
closed = 1;
nodes = (
(132,656,o),
(168,692,o),
(168,736,cs),
(168,780,o),
(132,816,o),
(88,816,cs),
(44,816,o),
(8,780,o),
(8,736,cs),
(8,692,o),
(44,656,o),
(88,656,cs)
);
},
{
closed = 1;
nodes = (
(420,656,o),
(456,692,o),
(456,736,cs),
(456,780,o),
(420,816,o),
(376,816,cs),
(332,816,o),
(296,780,o),
(296,736,cs),
(296,692,o),
(332,656,o),
(376,656,cs)
);
},
{
closed = 1;
nodes = (
(276,864,o),
(312,900,o),
(312,944,cs),
(312,988,o),
(276,1024,o),
(232,1024,cs),
(188,1024,o),
(152,988,o),
(152,944,cs),
(152,900,o),
(188,864,o),
(232,864,cs)
);
}
);
width = 464;
}
);
},
{
glyphname = "hamzaabove-ar";
lastChange = "2025-06-16 04:23:13 +0000";
layers = (
{
anchors = (
{
name = _top;
pos = (112,768);
}
);
layerId = m001;
shapes = (
{
closed = 1;
nodes = (
(208,832,l),
(224,848,l),
(224,880,l),
(208,896,l),
(144,896,ls),
(112,896,o),
(96,912,o),
(96,944,cs),
(96,958,o),
(104,964,o),
(116,964,cs),
(128,964,o),
(136,958,o),
(136,944,c),
(144,936,l),
(192,936,l),
(208,952,l),
(208,1000,o),
(178,1024,o),
(114,1024,cs),
(50,1024,o),
(24,984,o),
(24,950,cs),
(24,928,o),
(34,912,o),
(50,904,c),
(50,896,l),
(16,896,l),
(0,880,l),
(0,848,l),
(16,832,l)
);
}
);
width = 224;
},
{
anchors = (
{
name = _top;
pos = (112,768);
}
);
layerId = m002;
shapes = (
{
closed = 1;
nodes = (
(208,832,l),
(224,848,l),
(224,880,l),
(208,896,l),
(144,896,ls),
(112,896,o),
(96,912,o),
(96,944,cs),
(96,958,o),
(104,964,o),
(116,964,cs),
(128,964,o),
(136,958,o),
(136,944,c),
(144,936,l),
(192,936,l),
(208,952,l),
(208,1000,o),
(178,1024,o),
(114,1024,cs),
(50,1024,o),
(24,984,o),
(24,950,cs),
(24,928,o),
(34,912,o),
(50,904,c),
(50,896,l),
(16,896,l),
(0,880,l),
(0,848,l),
(16,832,l)
);
}
);
width = 224;
}
);
unicode = 1620;
},
{
glyphname = "hamzabelow-ar";
lastChange = "2025-06-22 06:24:48 +0000";
layers = (
{
anchors = (
{
name = _bottom;
pos = (112,0);
}
);
layerId = m001;
shapes = (
{
closed = 1;
nodes = (
(208,-256,l),
(224,-240,l),
(224,-208,l),
(208,-192,l),
(142,-192,ls),
(114,-192,o),
(94,-176,o),
(94,-148,cs),
(94,-134,o),
(102,-128,o),
(114,-128,cs),
(126,-128,o),
(134,-134,o),
(134,-148,c),
(142,-156,l),
(190,-156,l),
(206,-140,l),
(206,-92,o),
(176,-64,o),
(112,-64,cs),
(48,-64,o),
(14,-106,o),
(14,-140,cs),
(14,-162,o),
(24,-176,o),
(40,-184,c),
(40,-192,l),
(16,-192,l),
(0,-208,l),
(0,-240,l),
(16,-256,l)
);
}
);
width = 224;
},
{
anchors = (
{
name = _bottom;
pos = (112,0);
}
);
layerId = m002;
shapes = (
{
closed = 1;
nodes = (
(208,-256,l),
(224,-240,l),
(224,-208,l),
(208,-192,l),
(142,-192,ls),
(114,-192,o),
(94,-176,o),
(94,-148,cs),
(94,-134,o),
(102,-128,o),
(114,-128,cs),
(126,-128,o),
(134,-134,o),
(134,-148,c),
(142,-156,l),
(190,-156,l),
(206,-140,l),
(206,-92,o),
(176,-64,o),
(112,-64,cs),
(48,-64,o),
(14,-106,o),
(14,-140,cs),
(14,-162,o),
(24,-176,o),
(40,-184,c),
(40,-192,l),
(16,-192,l),
(0,-208,l),
(0,-240,l),
(16,-256,l)
);
}
);
width = 224;
}
);
unicode = 1621;
},
{
glyphname = "heh-ar.medi.001";
layers = (
{
layerId = m001;
shapes = (
{
closed = 1;
nodes = (
(140,-264,o),
(72,-184,o),
(72,-64,cs),
(72,-8,l),
(64,0,l),
(0,0,l),
(0,108,l),
(64,108,l),
(72,116,l),
(72,252,ls),
(72,372,o),
(140,452,o),
(268,452,cs),
(393,452,o),
(472,371,o),
(472,227,cs),
(472,220,ls),
(472,172,o),
(444,120,o),
(432,100,c),
(440,92,l),
(460,108,o),
(480,108,o),
(508,108,cs),
(544,108,l),
(544,0,l),
(528,0,ls),
(496,0,o),
(472,-16,o),
(472,-64,cs),
(472,-180,o),
(396,-264,o),
(268,-264,cs)
);
},
{
closed = 1;
nodes = (
(268,108,ls),
(332,108,o),
(368,144,o),
(368,220,cs),
(368,227,ls),
(368,307,o),
(329,344,o),
(268,344,cs),
(204,344,o),
(176,308,o),
(176,244,cs),
(176,116,l),
(184,108,l)
);
},
{
closed = 1;
nodes = (
(332,-156,o),
(368,-120,o),
(368,-56,cs),
(368,0,o),
(368,16,o),
(384,40,c),
(376,48,l),
(340,16,o),
(304,0,o),
(216,0,cs),
(184,0,l),
(176,-8,l),
(176,-56,ls),
(176,-120,o),
(204,-156,o),
(268,-156,cs)
);
}
);
width = 544;
},
{
layerId = m002;
shapes = (
{
closed = 1;
nodes = (
(140,-264,o),
(72,-184,o),
(72,-64,cs),
(72,-8,l),
(64,0,l),
(0,0,l),
(0,108,l),
(64,108,l),
(72,116,l),
(72,252,ls),
(72,372,o),
(140,452,o),
(268,452,cs),
(393,452,o),
(472,371,o),
(472,227,cs),
(472,220,ls),
(472,172,o),
(444,120,o),
(432,100,c),
(440,92,l),
(460,108,o),
(480,108,o),
(508,108,cs),
(544,108,l),
(544,0,l),
(528,0,ls),
(496,0,o),
(472,-16,o),
(472,-64,cs),
(472,-180,o),
(396,-264,o),
(268,-264,cs)
);
},
{
closed = 1;
nodes = (
(268,108,ls),
(332,108,o),
(368,144,o),
(368,220,cs),
(368,227,ls),
(368,307,o),
(329,344,o),
(268,344,cs),
(204,344,o),
(176,308,o),
(176,244,cs),
(176,116,l),
(184,108,l)
);
},
{
closed = 1;
nodes = (
(332,-156,o),
(368,-120,o),
(368,-56,cs),
(368,0,o),
(368,16,o),
(384,40,c),
(376,48,l),
(340,16,o),
(304,0,o),
(216,0,cs),
(184,0,l),
(176,-8,l),
(176,-56,ls),
(176,-120,o),
(204,-156,o),
(268,-156,cs)
);
}
);
width = 544;
}
);
},
{
color = 5;
glyphname = zero;
kernLeft = zero;
kernRight = zero;
lastChange = "2025-07-20 04:30:06 +0000";
layers = (
{
layerId = m001;
shapes = (
{
closed = 1;
nodes = (
(460,-16,o),
(616,80,o),
(616,372,cs),
(616,664,o),
(460,760,o),
(332,760,cs),
(204,760,o),
(48,664,o),
(48,372,cs),
(48,80,o),
(204,-16,o),
(332,-16,cs)
);
},
{
closed = 1;
nodes = (
(228,72,o),
(148,176,o),
(148,372,cs),
(148,568,o),
(228,672,o),
(332,672,cs),
(436,672,o),
(516,568,o),
(516,372,cs),
(516,176,o),
(436,72,o),
(332,72,cs)
);
}
);
width = 664;
},
{
layerId = m002;
shapes = (
{
closed = 1;
nodes = (
(460,-16,o),
(616,80,o),
(616,372,cs),
(616,664,o),
(460,760,o),
(332,760,cs),
(204,760,o),
(48,664,o),
(48,372,cs),
(48,80,o),
(204,-16,o),
(332,-16,cs)
);
},
{
closed = 1;
nodes = (
(228,72,o),
(148,176,o),
(148,372,cs),
(148,568,o),
(228,672,o),
(332,672,cs),
(436,672,o),
(516,568,o),
(516,372,cs),
(516,176,o),
(436,72,o),
(332,72,cs)
);
}
);
width = 664;
}
);
metricLeft = O;
metricRight = O;
unicode = 48;
},
{
color = 5;
glyphname = one;
kernLeft = one;
kernRight = one;
lastChange = "2025-10-23 04:34:22 +0000";
layers = (
{
layerId = m001;
shapes = (
{
closed = 1;
nodes = (
(272,0,l),
(288,16,l),
(288,728,l),
(272,744,l),
(220,744,l),
(204,728,l),
(188,644,o),
(112,608,o),
(48,608,c),
(32,592,l),
(32,552,l),
(48,536,l),
(180,536,l),
(188,528,l),
(188,16,l),
(204,0,l)
);
}
);
width = 368;
},
{
layerId = m002;
shapes = (
{
closed = 1;
nodes = (
(272,0,l),
(288,16,l),
(288,728,l),
(272,744,l),
(220,744,l),
(204,728,l),
(188,644,o),
(112,608,o),
(48,608,c),
(32,592,l),
(32,552,l),
(48,536,l),
(180,536,l),
(188,528,l),
(188,16,l),
(204,0,l)
);
}
);
width = 368;
}
);
unicode = 49;
},
{
color = 5;
glyphname = two;
kernLeft = two;
kernRight = two;
lastChange = "2025-07-20 02:09:35 +0000";
layers = (
{
layerId = m001;
shapes = (
{
closed = 1;
nodes = (
(528,0,l),
(544,16,l),
(544,72,l),
(528,88,l),
(160,88,l),
(152,96,l),
(152,136,o),
(232,216,o),
(356,276,cs),
(492,342,o),
(562,414,o),
(562,528,cs),
(562,652,o),
(494,760,o),
(306,760,cs),
(150,760,o),
(50,656,o),
(50,500,c),
(66,484,l),
(134,484,l),
(150,500,l),
(150,596,o),
(210,668,o),
(306,668,cs),
(402,668,o),
(462,608,o),
(462,528,cs),
(462,452,o),
(394,390,o),
(280,336,cs),
(116,258,o),
(32,146,o),
(32,32,cs),
(32,16,l),
(48,0,l)
);
}
);
width = 594;
},
{
layerId = m002;
shapes = (
{
closed = 1;
nodes = (
(528,0,l),
(544,16,l),
(544,72,l),
(528,88,l),
(160,88,l),
(152,96,l),
(152,136,o),
(232,216,o),
(356,276,cs),
(492,342,o),
(562,414,o),
(562,528,cs),
(562,652,o),
(494,760,o),
(306,760,cs),
(150,760,o),
(50,656,o),
(50,500,c),
(66,484,l),
(134,484,l),
(150,500,l),
(150,596,o),
(210,668,o),
(306,668,cs),
(402,668,o),
(462,608,o),
(462,528,cs),
(462,452,o),
(394,390,o),
(280,336,cs),
(116,258,o),
(32,146,o),
(32,32,cs),
(32,16,l),
(48,0,l)
);
}
);
width = 594;
}
);
unicode = 50;
},
{
color = 5;
glyphname = three;
kernLeft = three;
kernRight = three;
lastChange = "2025-07-20 02:10:29 +0000";
layers = (
{
layerId = m001;
shapes = (
{
closed = 1;
nodes = (
(490,-16,o),
(596,74,o),
(596,216,cs),
(596,294,o),
(546,370,o),
(458,392,c),
(458,400,l),
(526,426,o),
(568,478,o),
(568,570,cs),
(568,670,o),
(476,760,o),
(320,760,cs),
(170,760,o),
(70,680,o),
(54,544,c),
(54,528,l),
(70,512,l),
(138,512,l),
(154,528,l),
(162,616,o),
(214,670,o),
(320,670,cs),
(414,670,o),
(468,616,o),
(468,554,cs),
(468,472,o),
(434,438,o),
(328,438,cs),
(272,438,l),
(256,422,l),
(256,366,l),
(272,350,l),
(328,350,ls),
(434,350,o),
(496,292,o),
(496,216,cs),
(496,132,o),
(424,74,o),
(322,74,cs),
(214,74,o),
(142,132,o),
(132,228,c),
(116,244,l),
(48,244,l),
(32,228,l),
(32,212,l),
(48,70,o),
(162,-16,o),
(322,-16,cs)
);
}
);
width = 628;
},
{
layerId = m002;
shapes = (
{
closed = 1;
nodes = (
(490,-16,o),
(596,74,o),
(596,216,cs),
(596,294,o),
(546,370,o),
(458,392,c),
(458,400,l),
(526,426,o),
(568,478,o),
(568,570,cs),
(568,670,o),
(476,760,o),
(320,760,cs),
(170,760,o),
(70,680,o),
(54,544,c),
(54,528,l),
(70,512,l),
(138,512,l),
(154,528,l),
(162,616,o),
(214,670,o),
(320,670,cs),
(414,670,o),
(468,616,o),
(468,554,cs),
(468,472,o),
(434,438,o),
(328,438,cs),
(272,438,l),
(256,422,l),
(256,366,l),
(272,350,l),
(328,350,ls),
(434,350,o),
(496,292,o),
(496,216,cs),
(496,132,o),
(424,74,o),
(322,74,cs),
(214,74,o),
(142,132,o),
(132,228,c),
(116,244,l),
(48,244,l),
(32,228,l),
(32,212,l),
(48,70,o),
(162,-16,o),
(322,-16,cs)
);
}
);
width = 628;
}
);
unicode = 51;
},
{
color = 5;
glyphname = four;
kernLeft = four;
kernRight = four;
lastChange = "2025-07-20 02:27:11 +0000";
layers = (
{
layerId = m001;
shapes = (
{
closed = 1;
nodes = (
(448,0,l),
(464,16,l),
(464,166,l),
(472,174,l),
(566,174,l),
(582,190,l),
(582,246,l),
(566,262,l),
(472,262,l),
(464,270,l),
(464,728,l),
(448,744,l),
(384,744,l),
(16,254,l),
(16,190,l),
(32,174,l),
(356,174,l),
(364,166,l),
(364,16,l),
(380,0,l)
);
},
{
closed = 1;
nodes = (
(136,270,l),
(356,560,l),
(364,560,l),
(364,270,l),
(356,262,l),
(136,262,l)
);
}
);
width = 598;
},
{
layerId = m002;
shapes = (
{
closed = 1;
nodes = (
(448,0,l),
(464,16,l),
(464,166,l),
(472,174,l),
(566,174,l),
(582,190,l),
(582,246,l),
(566,262,l),
(472,262,l),
(464,270,l),
(464,728,l),
(448,744,l),
(384,744,l),
(16,254,l),
(16,190,l),
(32,174,l),
(356,174,l),
(364,166,l),
(364,16,l),
(380,0,l)
);
},
{
closed = 1;
nodes = (
(136,270,l),
(356,560,l),
(364,560,l),
(364,270,l),
(356,262,l),
(136,262,l)
);
}
);
width = 598;
}
);
unicode = 52;
},
{
color = 5;
glyphname = five;
kernLeft = five;
kernRight = five;
lastChange = "2025-07-20 02:34:21 +0000";
layers = (
{
layerId = m001;
shapes = (
{
closed = 1;
nodes = (
(454,-16,o),
(572,72,o),
(572,260,cs),
(572,398,o),
(474,512,o),
(318,512,cs),
(252,512,o),
(202,488,o),
(164,458,c),
(156,458,l),
(198,648,l),
(206,656,l),
(512,656,l),
(528,672,l),
(528,728,l),
(512,744,l),
(140,744,l),
(124,728,l),
(52,376,l),
(52,360,l),
(68,344,l),
(140,344,l),
(168,394,o),
(218,422,o),
(302,422,cs),
(402,422,o),
(472,358,o),
(472,260,cs),
(472,164,o),
(426,72,o),
(300,72,cs),
(210,72,o),
(148,120,o),
(132,196,c),
(116,212,l),
(48,212,l),
(32,196,l),
(32,92,o),
(132,-16,o),
(300,-16,cs)
);
}
);
width = 604;
},
{
layerId = m002;
shapes = (
{
closed = 1;
nodes = (
(454,-16,o),
(572,72,o),
(572,260,cs),
(572,398,o),
(474,512,o),
(318,512,cs),
(252,512,o),
(202,488,o),
(164,458,c),
(156,458,l),
(198,648,l),
(206,656,l),
(512,656,l),
(528,672,l),
(528,728,l),
(512,744,l),
(140,744,l),
(124,728,l),
(52,376,l),
(52,360,l),
(68,344,l),
(140,344,l),
(168,394,o),
(218,422,o),
(302,422,cs),
(402,422,o),
(472,358,o),
(472,260,cs),
(472,164,o),
(426,72,o),
(300,72,cs),
(210,72,o),
(148,120,o),
(132,196,c),
(116,212,l),
(48,212,l),
(32,196,l),
(32,92,o),
(132,-16,o),
(300,-16,cs)
);
}
);
width = 604;
}
);
unicode = 53;
},
{
color = 5;
glyphname = six;
kernLeft = six;
kernRight = six;
lastChange = "2025-07-20 04:30:16 +0000";
layers = (
{
layerId = m001;
shapes = (
{
closed = 1;
nodes = (
(488,-16,o),
(596,84,o),
(596,236,cs),
(596,384,o),
(486,488,o),
(340,488,cs),
(254,488,o),
(194,444,o),
(154,400,c),
(146,400,l),
(146,592,o),
(224,672,o),
(336,672,cs),
(424,672,o),
(460,620,o),
(468,576,c),
(484,560,l),
(552,560,l),
(568,576,l),
(568,592,l),
(552,672,o),
(484,760,o),
(336,760,cs),
(156,760,o),
(48,620,o),
(48,366,cs),
(48,84,o),
(174,-16,o),
(320,-16,cs)
);
},
{
closed = 1;
nodes = (
(236,72,o),
(168,140,o),
(168,236,cs),
(168,332,o),
(236,400,o),
(332,400,cs),
(428,400,o),
(496,332,o),
(496,236,cs),
(496,140,o),
(428,72,o),
(332,72,cs)
);
}
);
width = 636;
},
{
layerId = m002;
shapes = (
{
closed = 1;
nodes = (
(488,-16,o),
(596,84,o),
(596,236,cs),
(596,384,o),
(486,488,o),
(340,488,cs),
(254,488,o),
(194,444,o),
(154,400,c),
(146,400,l),
(146,592,o),
(224,672,o),
(336,672,cs),
(424,672,o),
(460,620,o),
(468,576,c),
(484,560,l),
(552,560,l),
(568,576,l),
(568,592,l),
(552,672,o),
(484,760,o),
(336,760,cs),
(156,760,o),
(48,620,o),
(48,366,cs),
(48,84,o),
(174,-16,o),
(320,-16,cs)
);
},
{
closed = 1;
nodes = (
(236,72,o),
(168,140,o),
(168,236,cs),
(168,332,o),
(236,400,o),
(332,400,cs),
(428,400,o),
(496,332,o),
(496,236,cs),
(496,140,o),
(428,72,o),
(332,72,cs)
);
}
);
width = 636;
}
);
metricLeft = O;
unicode = 54;
},
{
color = 5;
glyphname = seven;
kernLeft = seven;
kernRight = seven;
lastChange = "2025-07-20 03:12:00 +0000";
layers = (
{
layerId = m001;
shapes = (
{
closed = 1;
nodes = (
(224,0,l),
(240,16,l),
(250,274,o),
(340,522,o),
(532,672,c),
(532,728,l),
(516,744,l),
(32,744,l),
(16,728,l),
(16,672,l),
(32,656,l),
(410,656,l),
(410,648,l),
(274,530,o),
(136,294,o),
(136,16,c),
(152,0,l)
);
}
);
width = 548;
},
{
layerId = m002;
shapes = (
{
closed = 1;
nodes = (
(224,0,l),
(240,16,l),
(250,274,o),
(340,522,o),
(532,672,c),
(532,728,l),
(516,744,l),
(32,744,l),
(16,728,l),
(16,672,l),
(32,656,l),
(410,656,l),
(410,648,l),
(274,530,o),
(136,294,o),
(136,16,c),
(152,0,l)
);
}
);
width = 548;
}
);
unicode = 55;
},
{
color = 5;
glyphname = eight;
kernLeft = eight;
kernRight = eight;
lastChange = "2025-07-20 04:14:11 +0000";
layers = (
{
layerId = m001;
shapes = (
{
closed = 1;
nodes = (
(508,-16,o),
(608,72,o),
(608,220,cs),
(608,316,o),
(534,392,o),
(462,408,c),
(462,416,l),
(500,430,o),
(572,472,o),
(572,564,cs),
(572,668,o),
(494,758,o),
(320,760,cs),
(148,762,o),
(68,668,o),
(68,564,cs),
(68,472,o),
(138,430,o),
(178,416,c),
(178,408,l),
(120,392,o),
(32,316,o),
(32,220,cs),
(32,72,o),
(132,-16,o),
(320,-16,cs)
);
},
{
closed = 1;
nodes = (
(224,458,o),
(168,500,o),
(168,564,cs),
(168,628,o),
(224,672,o),
(320,672,cs),
(416,672,o),
(472,628,o),
(472,564,cs),
(472,500,o),
(416,454,o),
(320,456,cs)
);
},
{
closed = 1;
nodes = (
(212,72,o),
(132,124,o),
(132,220,cs),
(132,316,o),
(212,368,o),
(320,368,cs),
(428,368,o),
(508,316,o),
(508,220,cs),
(508,124,o),
(428,72,o),
(320,72,cs)
);
}
);
width = 640;
},
{
layerId = m002;
shapes = (
{
closed = 1;
nodes = (
(508,-16,o),
(608,72,o),
(608,220,cs),
(608,316,o),
(534,392,o),
(462,408,c),
(462,416,l),
(500,430,o),
(572,472,o),
(572,564,cs),
(572,668,o),
(494,758,o),
(320,760,cs),
(148,762,o),
(68,668,o),
(68,564,cs),
(68,472,o),
(138,430,o),
(178,416,c),
(178,408,l),
(120,392,o),
(32,316,o),
(32,220,cs),
(32,72,o),
(132,-16,o),
(320,-16,cs)
);
},
{
closed = 1;
nodes = (
(224,458,o),
(168,500,o),
(168,564,cs),
(168,628,o),
(224,672,o),
(320,672,cs),
(416,672,o),
(472,628,o),
(472,564,cs),
(472,500,o),
(416,454,o),
(320,456,cs)
);
},
{
closed = 1;
nodes = (
(212,72,o),
(132,124,o),
(132,220,cs),
(132,316,o),
(212,368,o),
(320,368,cs),
(428,368,o),
(508,316,o),
(508,220,cs),
(508,124,o),
(428,72,o),
(320,72,cs)
);
}
);
width = 640;
}
);
unicode = 56;
},
{
color = 5;
glyphname = nine;
kernLeft = nine;
kernRight = nine;
lastChange = "2025-07-20 04:30:12 +0000";
layers = (
{
layerId = m001;
shapes = (
{
closed = 1;
nodes = (
(140,760,o),
(32,660,o),
(32,508,cs),
(32,360,o),
(142,256,o),
(288,256,cs),
(374,256,o),
(434,300,o),
(474,344,c),
(482,344,l),
(482,152,o),
(404,72,o),
(292,72,cs),
(204,72,o),
(168,124,o),
(160,168,c),
(144,184,l),
(76,184,l),
(60,168,l),
(60,152,l),
(76,72,o),
(144,-16,o),
(292,-16,cs),
(472,-16,o),
(580,124,o),
(580,378,cs),
(580,660,o),
(454,760,o),
(308,760,cs)
);
},
{
closed = 1;
nodes = (
(392,672,o),
(460,604,o),
(460,508,cs),
(460,412,o),
(392,344,o),
(296,344,cs),
(200,344,o),
(132,412,o),
(132,508,cs),
(132,604,o),
(200,672,o),
(296,672,cs)
);
}
);
width = 628;
},
{
layerId = m002;
shapes = (
{
closed = 1;
nodes = (
(140,760,o),
(32,660,o),
(32,508,cs),
(32,360,o),
(142,256,o),
(288,256,cs),
(374,256,o),
(434,300,o),
(474,344,c),
(482,344,l),
(482,152,o),
(404,72,o),
(292,72,cs),
(204,72,o),
(168,124,o),
(160,168,c),
(144,184,l),
(76,184,l),
(60,168,l),
(60,152,l),
(76,72,o),
(144,-16,o),
(292,-16,cs),
(472,-16,o),
(580,124,o),
(580,378,cs),
(580,660,o),
(454,760,o),
(308,760,cs)
);
},
{
closed = 1;
nodes = (
(392,672,o),
(460,604,o),
(460,508,cs),
(460,412,o),
(392,344,o),
(296,344,cs),
(200,344,o),
(132,412,o),
(132,508,cs),
(132,604,o),
(200,672,o),
(296,672,cs)
);
}
);
width = 628;
}
);
metricRight = O;
unicode = 57;
},
{
glyphname = period;
kernLeft = period;
kernRight = period;
lastChange = "2025-10-23 16:58:19 +0000";
layers = (
{
layerId = m001;
shapes = (
{
closed = 1;
nodes = (
(168,0,l),
(184,16,l),
(184,112,l),
(168,128,l),
(72,128,l),
(56,112,l),
(56,16,l),
(72,0,l)
);
}
);
width = 240;
},
{
layerId = m002;
shapes = (
{
closed = 1;
nodes = (
(168,0,l),
(184,16,l),
(184,112,l),
(168,128,l),
(72,128,l),
(56,112,l),
(56,16,l),
(72,0,l)
);
}
);
width = 240;
}
);
unicode = 46;
},
{
glyphname = comma;
kernLeft = comma;
kernRight = comma;
lastChange = "2025-05-07 04:15:49 +0000";
layers = (
{
layerId = m001;
shapes = (
{
closed = 1;
nodes = (
(104,-144,l),
(120,-136,l),
(184,0,l),
(184,96,l),
(168,112,l),
(72,112,l),
(56,96,l),
(56,16,l),
(72,0,l),
(96,0,l),
(104,-8,l),
(104,-24,l),
(72,-112,l),
(72,-128,l),
(88,-144,l)
);
}
);
width = 240;
},
{
layerId = m002;
shapes = (
{
closed = 1;
nodes = (
(104,-144,l),
(120,-136,l),
(184,0,l),
(184,96,l),
(168,112,l),
(72,112,l),
(56,96,l),
(56,16,l),
(72,0,l),
(96,0,l),
(104,-8,l),
(104,-24,l),
(72,-112,l),
(72,-128,l),
(88,-144,l)
);
}
);
width = 240;
}
);
unicode = 44;
},
{
color = 5;
glyphname = slash;
kernLeft = slash;
kernRight = slash;
lastChange = "2025-04-22 15:26:36 +0000";
layers = (
{
layerId = m001;
shapes = (
{
closed = 1;
nodes = (
(120,-144,l),
(136,-128,l),
(400,752,l),
(400,768,l),
(384,784,l),
(328,784,l),
(312,768,l),
(48,-112,l),
(48,-128,l),
(64,-144,l)
);
}
);
width = 432;
},
{
layerId = m002;
shapes = (
{
closed = 1;
nodes = (
(120,-144,l),
(136,-128,l),
(400,752,l),
(400,768,l),
(384,784,l),
(328,784,l),
(312,768,l),
(48,-112,l),
(48,-128,l),
(64,-144,l)
);
}
);
width = 432;
}
);
unicode = 47;
},
{
glyphname = hyphen;
kernLeft = hyphen;
kernRight = hyphen;
lastChange = "2025-05-03 23:21:24 +0000";
layers = (
{
layerId = m001;
shapes = (
{
closed = 1;
nodes = (
(336,280,l),
(352,296,l),
(352,352,l),
(336,368,l),
(56,368,l),
(40,352,l),
(40,296,l),
(56,280,l)
);
}
);
width = 392;
},
{
layerId = m002;
shapes = (
{
closed = 1;
nodes = (
(336,280,l),
(352,296,l),
(352,352,l),
(336,368,l),
(56,368,l),
(40,352,l),
(40,296,l),
(56,280,l)
);
}
);
width = 392;
}
);
unicode = 45;
},
{
glyphname = emdash;
kernLeft = emdash;
kernRight = emdash;
lastChange = "2025-05-10 01:41:27 +0000";
layers = (
{
layerId = m001;
shapes = (
{
closed = 1;
nodes = (
(1088,274,l),
(1104,290,l),
(1104,346,l),
(1088,362,l),
(80,360,l),
(64,344,l),
(64,288,l),
(80,272,l)
);
}
);
width = 1168;
},
{
layerId = m002;
shapes = (
{
closed = 1;
nodes = (
(1088,274,l),
(1104,290,l),
(1104,346,l),
(1088,362,l),
(80,360,l),
(64,344,l),
(64,288,l),
(80,272,l)
);
}
);
width = 1168;
}
);
unicode = 8212;
},
{
glyphname = parenleft;
lastChange = "2025-05-17 19:26:43 +0000";
layers = (
{
layerId = m001;
shapes = (
{
closed = 1;
nodes = (
(238,-106,l),
(254,-90,l),
(254,-74,l),
(186,38,o),
(142,220,o),
(142,368,cs),
(142,548,o),
(178,680,o),
(254,800,c),
(254,816,l),
(238,832,l),
(182,832,l),
(166,816,l),
(94,696,o),
(40,576,o),
(40,368,cs),
(40,184,o),
(96,14,o),
(172,-90,c),
(188,-106,l)
);
}
);
width = 294;
},
{
layerId = m002;
shapes = (
{
closed = 1;
nodes = (
(238,-106,l),
(254,-90,l),
(254,-74,l),
(186,38,o),
(142,220,o),
(142,368,cs),
(142,548,o),
(178,680,o),
(254,800,c),
(254,816,l),
(238,832,l),
(182,832,l),
(166,816,l),
(94,696,o),
(40,576,o),
(40,368,cs),
(40,184,o),
(96,14,o),
(172,-90,c),
(188,-106,l)
);
}
);
width = 294;
}
);
unicode = 40;
},
{
glyphname = parenright;
lastChange = "2025-05-17 19:45:41 +0000";
layers = (
{
layerId = m001;
shapes = (
{
closed = 1;
nodes = (
(122,-90,l),
(198,14,o),
(254,184,o),
(254,368,cs),
(254,576,o),
(200,696,o),
(128,816,c),
(112,832,l),
(56,832,l),
(40,816,l),
(40,800,l),
(116,680,o),
(152,548,o),
(152,368,cs),
(152,220,o),
(108,38,o),
(40,-74,c),
(40,-90,l),
(56,-106,l),
(106,-106,l)
);
}
);
width = 294;
},
{
layerId = m002;
shapes = (
{
closed = 1;
nodes = (
(122,-90,l),
(198,14,o),
(254,184,o),
(254,368,cs),
(254,576,o),
(200,696,o),
(128,816,c),
(112,832,l),
(56,832,l),
(40,816,l),
(40,800,l),
(116,680,o),
(152,548,o),
(152,368,cs),
(152,220,o),
(108,38,o),
(40,-74,c),
(40,-90,l),
(56,-106,l),
(106,-106,l)
);
}
);
width = 294;
}
);
unicode = 41;
},
{
color = 5;
glyphname = quotesingle;
kernLeft = quotesingle;
kernRight = quotesingle;
lastChange = "2025-05-02 22:35:00 +0000";
layers = (
{
layerId = m001;
shapes = (
{
closed = 1;
nodes = (
(88,464,l),
(104,480,l),
(128,642,l),
(128,752,l),
(112,768,l),
(48,768,l),
(32,752,l),
(32,642,l),
(56,480,l),
(72,464,l)
);
}
);
width = 160;
},
{
layerId = m002;
shapes = (
{
closed = 1;
nodes = (
(88,464,l),
(104,480,l),
(128,642,l),
(128,752,l),
(112,768,l),
(48,768,l),
(32,752,l),
(32,642,l),
(56,480,l),
(72,464,l)
);
}
);
width = 160;
}
);
unicode = 39;
},
{
glyphname = ampersand;
lastChange = "2025-05-17 06:37:15 +0000";
layers = (
{
layerId = m001;
shapes = (
{
closed = 1;
nodes = (
(380,-16,o),
(448,12,o),
(500,60,c),
(512,60,l),
(548,12,l),
(564,0,l),
(624,0,l),
(640,16,l),
(640,52,l),
(564,152,l),
(564,164,l),
(588,208,o),
(608,280,o),
(608,380,c),
(600,388,l),
(528,388,l),
(516,380,l),
(516,324,o),
(512,292,o),
(500,252,c),
(488,252,l),
(352,412,l),
(352,428,l),
(428,488,o),
(484,528,o),
(484,608,cs),
(484,708,o),
(420,784,o),
(300,784,cs),
(188,784,o),
(124,708,o),
(124,608,cs),
(124,544,o),
(152,516,o),
(208,440,c),
(208,424,l),
(88,336,o),
(32,276,o),
(32,180,cs),
(32,40,o),
(152,-16,o),
(296,-16,cs)
);
},
{
closed = 1;
nodes = (
(252,536,o),
(228,568,o),
(228,608,cs),
(228,656,o),
(256,692,o),
(300,692,cs),
(348,692,o),
(376,656,o),
(376,612,cs),
(376,576,o),
(348,536,o),
(300,496,c),
(284,496,l)
);
},
{
closed = 1;
nodes = (
(200,76,o),
(140,108,o),
(140,180,cs),
(140,240,o),
(172,288,o),
(248,348,c),
(264,348,l),
(440,148,l),
(440,132,l),
(396,88,o),
(352,76,o),
(296,76,cs)
);
}
);
width = 672;
},
{
layerId = m002;
shapes = (
{
closed = 1;
nodes = (
(380,-16,o),
(448,12,o),
(500,60,c),
(512,60,l),
(548,12,l),
(564,0,l),
(624,0,l),
(640,16,l),
(640,52,l),
(564,152,l),
(564,164,l),
(588,208,o),
(608,280,o),
(608,380,c),
(600,388,l),
(528,388,l),
(516,380,l),
(516,324,o),
(512,292,o),
(500,252,c),
(488,252,l),
(352,412,l),
(352,428,l),
(428,488,o),
(484,528,o),
(484,608,cs),
(484,708,o),
(420,784,o),
(300,784,cs),
(188,784,o),
(124,708,o),
(124,608,cs),
(124,544,o),
(152,516,o),
(208,440,c),
(208,424,l),
(88,336,o),
(32,276,o),
(32,180,cs),
(32,40,o),
(152,-16,o),
(296,-16,cs)
);
},
{
closed = 1;
nodes = (
(252,536,o),
(228,568,o),
(228,608,cs),
(228,656,o),
(256,692,o),
(300,692,cs),
(348,692,o),
(376,656,o),
(376,612,cs),
(376,576,o),
(348,536,o),
(300,496,c),
(284,496,l)
);
},
{
closed = 1;
nodes = (
(200,76,o),
(140,108,o),
(140,180,cs),
(140,240,o),
(172,288,o),
(248,348,c),
(264,348,l),
(440,148,l),
(440,132,l),
(396,88,o),
(352,76,o),
(296,76,cs)
);
}
);
width = 672;
}
);
unicode = 38;
},
{
glyphname = dollar;
lastChange = "2025-10-23 07:14:14 +0000";
layers = (
{
layerId = m001;
shapes = (
{
closed = 1;
nodes = (
(378,-142,l),
(394,-126,l),
(394,-96,l),
(394,-20,l),
(402,-12,l),
(546,-4,o),
(656,66,o),
(656,198,cs),
(656,336,o),
(596,398,o),
(394,442,c),
(394,688,l),
(476,670,o),
(518,610,o),
(528,564,c),
(544,548,l),
(612,548,l),
(628,564,l),
(628,580,l),
(604,678,o),
(544,764,o),
(402,782,c),
(394,790,l),
(394,902,l),
(378,918,l),
(322,918,l),
(306,902,l),
(306,792,l),
(298,784,l),
(138,770,o),
(70,678,o),
(70,578,cs),
(70,458,o),
(146,408,o),
(298,370,c),
(306,362,l),
(306,90,l),
(298,82,l),
(212,100,o),
(146,160,o),
(140,246,c),
(124,262,l),
(56,262,l),
(40,246,l),
(40,230,ls),
(48,114,o),
(134,10,o),
(298,-12,c),
(306,-20,l),
(306,-96,l),
(306,-126,l),
(322,-142,l)
);
},
{
closed = 1;
nodes = (
(170,646,o),
(212,686,o),
(306,692,c),
(306,462,l),
(214,488,o),
(170,518,o),
(170,578,cs)
);
},
{
closed = 1;
nodes = (
(394,84,l),
(394,338,l),
(402,346,l),
(534,308,o),
(556,266,o),
(556,198,cs),
(556,114,o),
(478,82,o),
(402,76,c)
);
}
);
width = 696;
},
{
layerId = m002;
shapes = (
{
closed = 1;
nodes = (
(378,-142,l),
(394,-126,l),
(394,-96,l),
(394,-20,l),
(402,-12,l),
(546,-4,o),
(656,66,o),
(656,198,cs),
(656,336,o),
(596,398,o),
(394,442,c),
(394,688,l),
(476,670,o),
(518,610,o),
(528,564,c),
(544,548,l),
(612,548,l),
(628,564,l),
(628,580,l),
(604,678,o),
(544,764,o),
(402,782,c),
(394,790,l),
(394,902,l),
(378,918,l),
(322,918,l),
(306,902,l),
(306,792,l),
(298,784,l),
(138,770,o),
(70,678,o),
(70,578,cs),
(70,458,o),
(146,408,o),
(298,370,c),
(306,362,l),
(306,90,l),
(298,82,l),
(212,100,o),
(146,160,o),
(140,246,c),
(124,262,l),
(56,262,l),
(40,246,l),
(40,230,ls),
(48,114,o),
(134,10,o),
(298,-12,c),
(306,-20,l),
(306,-96,l),
(306,-126,l),
(322,-142,l)
);
},
{
closed = 1;
nodes = (
(170,646,o),
(212,686,o),
(306,692,c),
(306,462,l),
(214,488,o),
(170,518,o),
(170,578,cs)
);
},
{
closed = 1;
nodes = (
(394,84,l),
(394,338,l),
(402,346,l),
(534,308,o),
(556,266,o),
(556,198,cs),
(556,114,o),
(478,82,o),
(402,76,c)
);
}
);
width = 696;
}
);
unicode = 36;
},
{
glyphname = minus;
lastChange = "2025-04-22 03:10:57 +0000";
layers = (
{
layerId = m001;
shapes = (
{
closed = 1;
nodes = (
(488,256,l),
(504,272,l),
(504,328,l),
(488,344,l),
(48,344,l),
(32,328,l),
(32,272,l),
(48,256,l)
);
}
);
width = 536;
},
{
layerId = m002;
shapes = (
{
closed = 1;
nodes = (
(488,256,l),
(504,272,l),
(504,328,l),
(488,344,l),
(48,344,l),
(32,328,l),
(32,272,l),
(48,256,l)
);
}
);
width = 536;
}
);
unicode = 8722;
},
{
glyphname = percent;
lastChange = "2025-05-17 20:12:50 +0000";
layers = (
{
layerId = m001;
shapes = (
{
closed = 1;
nodes = (
(240,0,l),
(256,8,l),
(752,736,l),
(752,752,l),
(736,768,l),
(680,768,l),
(664,760,l),
(176,32,l),
(176,16,l),
(192,0,l)
);
},
{
closed = 1;
nodes = (
(836,-16,o),
(896,84,o),
(896,184,cs),
(896,288,o),
(836,384,o),
(696,384,cs),
(556,384,o),
(496,288,o),
(496,184,cs),
(496,84,o),
(556,-16,o),
(696,-16,cs)
);
},
{
closed = 1;
nodes = (
(608,56,o),
(580,136,o),
(580,184,cs),
(580,236,o),
(608,312,o),
(696,312,cs),
(784,312,o),
(808,236,o),
(808,184,cs),
(808,136,o),
(784,56,o),
(696,56,cs)
);
},
{
closed = 1;
nodes = (
(380,384,o),
(440,484,o),
(440,584,cs),
(440,688,o),
(380,784,o),
(240,784,cs),
(100,784,o),
(40,688,o),
(40,584,cs),
(40,484,o),
(100,384,o),
(240,384,cs)
);
},
{
closed = 1;
nodes = (
(152,456,o),
(124,536,o),
(124,584,cs),
(124,636,o),
(152,712,o),
(240,712,cs),
(328,712,o),
(352,636,o),
(352,584,cs),
(352,536,o),
(328,456,o),
(240,456,cs)
);
}
);
width = 936;
},
{
layerId = m002;
shapes = (
{
closed = 1;
nodes = (
(240,0,l),
(256,8,l),
(752,736,l),
(752,752,l),
(736,768,l),
(680,768,l),
(664,760,l),
(176,32,l),
(176,16,l),
(192,0,l)
);
},
{
closed = 1;
nodes = (
(836,-16,o),
(896,84,o),
(896,184,cs),
(896,288,o),
(836,384,o),
(696,384,cs),
(556,384,o),
(496,288,o),
(496,184,cs),
(496,84,o),
(556,-16,o),
(696,-16,cs)
);
},
{
closed = 1;
nodes = (
(608,56,o),
(580,136,o),
(580,184,cs),
(580,236,o),
(608,312,o),
(696,312,cs),
(784,312,o),
(808,236,o),
(808,184,cs),
(808,136,o),
(784,56,o),
(696,56,cs)
);
},
{
closed = 1;
nodes = (
(380,384,o),
(440,484,o),
(440,584,cs),
(440,688,o),
(380,784,o),
(240,784,cs),
(100,784,o),
(40,688,o),
(40,584,cs),
(40,484,o),
(100,384,o),
(240,384,cs)
);
},
{
closed = 1;
nodes = (
(152,456,o),
(124,536,o),
(124,584,cs),
(124,636,o),
(152,712,o),
(240,712,cs),
(328,712,o),
(352,636,o),
(352,584,cs),
(352,536,o),
(328,456,o),
(240,456,cs)
);
}
);
width = 936;
}
);
unicode = 37;
},
{
color = 10;
glyphname = acute;
lastChange = "2025-04-21 05:30:44 +0000";
layers = (
{
layerId = m001;
shapes = (
{
closed = 1;
nodes = (
(140,638,l),
(156,654,l),
(248,800,l),
(248,816,l),
(232,832,l),
(148,832,l),
(132,816,l),
(80,670,l),
(80,654,l),
(96,638,l)
);
}
);
width = 300;
},
{
layerId = m002;
shapes = (
{
closed = 1;
nodes = (
(140,638,l),
(156,654,l),
(248,800,l),
(248,816,l),
(232,832,l),
(148,832,l),
(132,816,l),
(80,670,l),
(80,654,l),
(96,638,l)
);
}
);
width = 300;
}
);
unicode = 180;
},
{
glyphname = E000;
lastChange = "2025-02-21 21:27:57 +0000";
layers = (
{
layerId = m001;
shapes = (
{
closed = 1;
nodes = (
(238,115,o),
(255,95,o),
(255,83,cs),
(255,71,o),
(234,44,o),
(224,44,cs),
(215,44,o),
(191,60,o),
(191,67,cs),
(191,73,o),
(220,115,o),
(227,115,cs)
);
},
{
closed = 1;
nodes = (
(96,161,o),
(44,169,o),
(44,225,cs),
(44,248,o),
(48,267,o),
(58,267,cs),
(67,267,o),
(62,251,o),
(86,236,cs),
(99,228,o),
(118,221,o),
(183,221,cs),
(321,221,o),
(377,263,o),
(377,277,cs),
(377,283,o),
(374,287,o),
(369,287,cs),
(363,287,o),
(359,285,o),
(352,285,cs),
(342,285,o),
(332,290,o),
(332,306,cs),
(332,324,o),
(354,358,o),
(368,358,cs),
(387,358,o),
(403,333,o),
(403,304,cs),
(403,251,o),
(357,161,o),
(134,161,cs)
);
},
{
closed = 1;
nodes = (
(180,556,o),
(197,536,o),
(197,524,cs),
(197,512,o),
(176,485,o),
(166,485,cs),
(157,485,o),
(133,501,o),
(133,508,cs),
(133,514,o),
(162,556,o),
(169,556,cs)
);
},
{
closed = 1;
nodes = (
(366,512,o),
(381,492,o),
(381,480,cs),
(381,468,o),
(362,441,o),
(352,441,cs),
(343,441,o),
(319,457,o),
(319,464,cs),
(319,470,o),
(348,512,o),
(355,512,cs)
);
},
{
closed = 1;
nodes = (
(214,278,o),
(196,290,o),
(196,333,cs),
(196,435,o),
(224,532,o),
(238,532,cs),
(243,532,o),
(244,529,o),
(244,525,cs),
(244,513,o),
(226,473,o),
(226,384,cs),
(226,353,o),
(234,338,o),
(247,338,cs),
(266,338,o),
(268,369,o),
(274,369,cs),
(278,369,o),
(280,363,o),
(280,353,cs),
(280,325,o),
(260,278,o),
(231,278,cs)
);
},
{
closed = 1;
nodes = (
(78,276,o),
(75,278,o),
(75,283,cs),
(75,291,o),
(120,320,o),
(137,341,cs),
(142,347,o),
(151,365,o),
(157,384,cs),
(167,413,o),
(171,436,o),
(176,436,cs),
(179,436,o),
(181,434,o),
(181,429,cs),
(181,397,o),
(168,333,o),
(152,308,cs),
(137,285,o),
(94,276,o),
(84,276,cs)
);
},
{
closed = 1;
nodes = (
(360,168,o),
(357,170,o),
(357,175,cs),
(357,185,o),
(414,215,o),
(428,232,cs),
(442,249,o),
(451,280,o),
(459,291,cs),
(471,308,o),
(500,313,o),
(507,321,cs),
(514,329,o),
(529,347,o),
(529,353,cs),
(529,359,o),
(505,364,o),
(495,364,cs),
(489,364,o),
(471,343,o),
(465,343,cs),
(461,343,o),
(459,345,o),
(459,349,cs),
(459,356,o),
(486,390,o),
(503,390,cs),
(520,390,o),
(536,380,o),
(543,380,cs),
(549,380,o),
(559,391,o),
(565,391,cs),
(569,391,o),
(571,387,o),
(571,383,cs),
(571,378,o),
(564,365,o),
(559,360,cs),
(556,357,o),
(548,351,o),
(543,345,cs),
(538,339,o),
(520,302,o),
(512,292,cs),
(504,282,o),
(471,270,o),
(464,260,cs),
(457,250,o),
(441,194,o),
(424,184,cs),
(410,176,o),
(383,168,o),
(364,168,cs)
);
}
);
width = 600;
},
{
layerId = m002;
shapes = (
{
closed = 1;
nodes = (
(238,115,o),
(255,95,o),
(255,83,cs),
(255,71,o),
(234,44,o),
(224,44,cs),
(215,44,o),
(191,60,o),
(191,67,cs),
(191,73,o),
(220,115,o),
(227,115,cs)
);
},
{
closed = 1;
nodes = (
(96,161,o),
(44,169,o),
(44,225,cs),
(44,248,o),
(48,267,o),
(58,267,cs),
(67,267,o),
(62,251,o),
(86,236,cs),
(99,228,o),
(118,221,o),
(183,221,cs),
(321,221,o),
(377,263,o),
(377,277,cs),
(377,283,o),
(374,287,o),
(369,287,cs),
(363,287,o),
(359,285,o),
(352,285,cs),
(342,285,o),
(332,290,o),
(332,306,cs),
(332,324,o),
(354,358,o),
(368,358,cs),
(387,358,o),
(403,333,o),
(403,304,cs),
(403,251,o),
(357,161,o),
(134,161,cs)
);
},
{
closed = 1;
nodes = (
(180,556,o),
(197,536,o),
(197,524,cs),
(197,512,o),
(176,485,o),
(166,485,cs),
(157,485,o),
(133,501,o),
(133,508,cs),
(133,514,o),
(162,556,o),
(169,556,cs)
);
},
{
closed = 1;
nodes = (
(366,512,o),
(381,492,o),
(381,480,cs),
(381,468,o),
(362,441,o),
(352,441,cs),
(343,441,o),
(319,457,o),
(319,464,cs),
(319,470,o),
(348,512,o),
(355,512,cs)
);
},
{
closed = 1;
nodes = (
(214,278,o),
(196,290,o),
(196,333,cs),
(196,435,o),
(224,532,o),
(238,532,cs),
(243,532,o),
(244,529,o),
(244,525,cs),
(244,513,o),
(226,473,o),
(226,384,cs),
(226,353,o),
(234,338,o),
(247,338,cs),
(266,338,o),
(268,369,o),
(274,369,cs),
(278,369,o),
(280,363,o),
(280,353,cs),
(280,325,o),
(260,278,o),
(231,278,cs)
);
},
{
closed = 1;
nodes = (
(78,276,o),
(75,278,o),
(75,283,cs),
(75,291,o),
(120,320,o),
(137,341,cs),
(142,347,o),
(151,365,o),
(157,384,cs),
(167,413,o),
(171,436,o),
(176,436,cs),
(179,436,o),
(181,434,o),
(181,429,cs),
(181,397,o),
(168,333,o),
(152,308,cs),
(137,285,o),
(94,276,o),
(84,276,cs)
);
},
{
closed = 1;
nodes = (
(360,168,o),
(357,170,o),
(357,175,cs),
(357,185,o),
(414,215,o),
(428,232,cs),
(442,249,o),
(451,280,o),
(459,291,cs),
(471,308,o),
(500,313,o),
(507,321,cs),
(514,329,o),
(529,347,o),
(529,353,cs),
(529,359,o),
(505,364,o),
(495,364,cs),
(489,364,o),
(471,343,o),
(465,343,cs),
(461,343,o),
(459,345,o),
(459,349,cs),
(459,356,o),
(486,390,o),
(503,390,cs),
(520,390,o),
(536,380,o),
(543,380,cs),
(549,380,o),
(559,391,o),
(565,391,cs),
(569,391,o),
(571,387,o),
(571,383,cs),
(571,378,o),
(564,365,o),
(559,360,cs),
(556,357,o),
(548,351,o),
(543,345,cs),
(538,339,o),
(520,302,o),
(512,292,cs),
(504,282,o),
(471,270,o),
(464,260,cs),
(457,250,o),
(441,194,o),
(424,184,cs),
(410,176,o),
(383,168,o),
(364,168,cs)
);
}
);
width = 600;
}
);
unicode = 57344;
},
{
glyphname = E004;
lastChange = "2025-02-21 23:00:34 +0000";
layers = (
{
layerId = m001;
shapes = (
{
closed = 1;
nodes = (
(54,24,o),
(24,54,o),
(24,88,cs),
(24,124,o),
(54,152,o),
(88,152,cs),
(124,152,o),
(152,124,o),
(152,88,cs),
(152,54,o),
(124,24,o),
(88,24,cs)
);
},
{
closed = 1;
nodes = (
(142,-8,o),
(184,36,o),
(184,88,cs),
(184,142,o),
(142,184,o),
(88,184,cs),
(36,184,o),
(-8,142,o),
(-8,88,cs),
(-8,36,o),
(36,-8,o),
(88,-8,cs)
);
},
{
closed = 1;
nodes = (
(54,320,o),
(24,350,o),
(24,384,cs),
(24,420,o),
(54,448,o),
(88,448,cs),
(124,448,o),
(152,420,o),
(152,384,cs),
(152,350,o),
(124,320,o),
(88,320,cs)
);
},
{
closed = 1;
nodes = (
(142,288,o),
(184,332,o),
(184,384,cs),
(184,438,o),
(142,480,o),
(88,480,cs),
(36,480,o),
(-8,438,o),
(-8,384,cs),
(-8,332,o),
(36,288,o),
(88,288,cs)
);
},
{
closed = 1;
nodes = (
(54,616,o),
(24,646,o),
(24,680,cs),
(24,716,o),
(54,744,o),
(88,744,cs),
(124,744,o),
(152,716,o),
(152,680,cs),
(152,646,o),
(124,616,o),
(88,616,cs)
);
},
{
closed = 1;
nodes = (
(142,584,o),
(184,628,o),
(184,680,cs),
(184,734,o),
(142,776,o),
(88,776,cs),
(36,776,o),
(-8,734,o),
(-8,680,cs),
(-8,628,o),
(36,584,o),
(88,584,cs)
);
},
{
closed = 1;
nodes = (
(350,24,o),
(320,54,o),
(320,88,cs),
(320,124,o),
(350,152,o),
(384,152,cs),
(420,152,o),
(448,124,o),
(448,88,cs),
(448,54,o),
(420,24,o),
(384,24,cs)
);
},
{
closed = 1;
nodes = (
(438,-8,o),
(480,36,o),
(480,88,cs),
(480,142,o),
(438,184,o),
(384,184,cs),
(332,184,o),
(288,142,o),
(288,88,cs),
(288,36,o),
(332,-8,o),
(384,-8,cs)
);
},
{
closed = 1;
nodes = (
(350,320,o),
(320,350,o),
(320,384,cs),
(320,420,o),
(350,448,o),
(384,448,cs),
(420,448,o),
(448,420,o),
(448,384,cs),
(448,350,o),
(420,320,o),
(384,320,cs)
);
},
{
closed = 1;
nodes = (
(438,288,o),
(480,332,o),
(480,384,cs),
(480,438,o),
(438,480,o),
(384,480,cs),
(332,480,o),
(288,438,o),
(288,384,cs),
(288,332,o),
(332,288,o),
(384,288,cs)
);
},
{
closed = 1;
nodes = (
(350,616,o),
(320,646,o),
(320,680,cs),
(320,716,o),
(350,744,o),
(384,744,cs),
(420,744,o),
(448,716,o),
(448,680,cs),
(448,646,o),
(420,616,o),
(384,616,cs)
);
},
{
closed = 1;
nodes = (
(438,584,o),
(480,628,o),
(480,680,cs),
(480,734,o),
(438,776,o),
(384,776,cs),
(332,776,o),
(288,734,o),
(288,680,cs),
(288,628,o),
(332,584,o),
(384,584,cs)
);
},
{
closed = 1;
nodes = (
(646,24,o),
(616,54,o),
(616,88,cs),
(616,124,o),
(646,152,o),
(680,152,cs),
(716,152,o),
(744,124,o),
(744,88,cs),
(744,54,o),
(716,24,o),
(680,24,cs)
);
},
{
closed = 1;
nodes = (
(734,-8,o),
(776,36,o),
(776,88,cs),
(776,142,o),
(734,184,o),
(680,184,cs),
(628,184,o),
(584,142,o),
(584,88,cs),
(584,36,o),
(628,-8,o),
(680,-8,cs)
);
},
{
closed = 1;
nodes = (
(646,320,o),
(616,350,o),
(616,384,cs),
(616,420,o),
(646,448,o),
(680,448,cs),
(716,448,o),
(744,420,o),
(744,384,cs),
(744,350,o),
(716,320,o),
(680,320,cs)
);
},
{
closed = 1;
nodes = (
(734,288,o),
(776,332,o),
(776,384,cs),
(776,438,o),
(734,480,o),
(680,480,cs),
(628,480,o),
(584,438,o),
(584,384,cs),
(584,332,o),
(628,288,o),
(680,288,cs)
);
},
{
closed = 1;
nodes = (
(646,616,o),
(616,646,o),
(616,680,cs),
(616,716,o),
(646,744,o),
(680,744,cs),
(716,744,o),
(744,716,o),
(744,680,cs),
(744,646,o),
(716,616,o),
(680,616,cs)
);
},
{
closed = 1;
nodes = (
(734,584,o),
(776,628,o),
(776,680,cs),
(776,734,o),
(734,776,o),
(680,776,cs),
(628,776,o),
(584,734,o),
(584,680,cs),
(584,628,o),
(628,584,o),
(680,584,cs)
);
},
{
closed = 1;
nodes = (
(108,176,l),
(108,304,l),
(68,304,l),
(68,176,l)
);
},
{
closed = 1;
nodes = (
(108,464,l),
(108,592,l),
(68,592,l),
(68,464,l)
);
},
{
closed = 1;
nodes = (
(404,176,l),
(404,304,l),
(364,304,l),
(364,176,l)
);
},
{
closed = 1;
nodes = (
(404,464,l),
(404,592,l),
(364,592,l),
(364,464,l)
);
},
{
closed = 1;
nodes = (
(700,176,l),
(700,304,l),
(660,304,l),
(660,176,l)
);
},
{
closed = 1;
nodes = (
(700,464,l),
(700,592,l),
(660,592,l),
(660,464,l)
);
},
{
closed = 1;
nodes = (
(592,660,l),
(592,700,l),
(464,700,l),
(464,660,l)
);
},
{
closed = 1;
nodes = (
(304,660,l),
(304,700,l),
(176,700,l),
(176,660,l)
);
},
{
closed = 1;
nodes = (
(592,364,l),
(592,404,l),
(464,404,l),
(464,364,l)
);
},
{
closed = 1;
nodes = (
(304,364,l),
(304,404,l),
(176,404,l),
(176,364,l)
);
},
{
closed = 1;
nodes = (
(592,68,l),
(592,108,l),
(464,108,l),
(464,68,l)
);
},
{
closed = 1;
nodes = (
(304,68,l),
(304,108,l),
(176,108,l),
(176,68,l)
);
}
);
width = 840;
},
{
layerId = m002;
shapes = (
{
closed = 1;
nodes = (
(54,24,o),
(24,54,o),
(24,88,cs),
(24,124,o),
(54,152,o),
(88,152,cs),
(124,152,o),
(152,124,o),
(152,88,cs),
(152,54,o),
(124,24,o),
(88,24,cs)
);
},
{
closed = 1;
nodes = (
(142,-8,o),
(184,36,o),
(184,88,cs),
(184,142,o),
(142,184,o),
(88,184,cs),
(36,184,o),
(-8,142,o),
(-8,88,cs),
(-8,36,o),
(36,-8,o),
(88,-8,cs)
);
},
{
closed = 1;
nodes = (
(54,320,o),
(24,350,o),
(24,384,cs),
(24,420,o),
(54,448,o),
(88,448,cs),
(124,448,o),
(152,420,o),
(152,384,cs),
(152,350,o),
(124,320,o),
(88,320,cs)
);
},
{
closed = 1;
nodes = (
(142,288,o),
(184,332,o),
(184,384,cs),
(184,438,o),
(142,480,o),
(88,480,cs),
(36,480,o),
(-8,438,o),
(-8,384,cs),
(-8,332,o),
(36,288,o),
(88,288,cs)
);
},
{
closed = 1;
nodes = (
(54,616,o),
(24,646,o),
(24,680,cs),
(24,716,o),
(54,744,o),
(88,744,cs),
(124,744,o),
(152,716,o),
(152,680,cs),
(152,646,o),
(124,616,o),
(88,616,cs)
);
},
{
closed = 1;
nodes = (
(142,584,o),
(184,628,o),
(184,680,cs),
(184,734,o),
(142,776,o),
(88,776,cs),
(36,776,o),
(-8,734,o),
(-8,680,cs),
(-8,628,o),
(36,584,o),
(88,584,cs)
);
},
{
closed = 1;
nodes = (
(350,24,o),
(320,54,o),
(320,88,cs),
(320,124,o),
(350,152,o),
(384,152,cs),
(420,152,o),
(448,124,o),
(448,88,cs),
(448,54,o),
(420,24,o),
(384,24,cs)
);
},
{
closed = 1;
nodes = (
(438,-8,o),
(480,36,o),
(480,88,cs),
(480,142,o),
(438,184,o),
(384,184,cs),
(332,184,o),
(288,142,o),
(288,88,cs),
(288,36,o),
(332,-8,o),
(384,-8,cs)
);
},
{
closed = 1;
nodes = (
(350,320,o),
(320,350,o),
(320,384,cs),
(320,420,o),
(350,448,o),
(384,448,cs),
(420,448,o),
(448,420,o),
(448,384,cs),
(448,350,o),
(420,320,o),
(384,320,cs)
);
},
{
closed = 1;
nodes = (
(438,288,o),
(480,332,o),
(480,384,cs),
(480,438,o),
(438,480,o),
(384,480,cs),
(332,480,o),
(288,438,o),
(288,384,cs),
(288,332,o),
(332,288,o),
(384,288,cs)
);
},
{
closed = 1;
nodes = (
(350,616,o),
(320,646,o),
(320,680,cs),
(320,716,o),
(350,744,o),
(384,744,cs),
(420,744,o),
(448,716,o),
(448,680,cs),
(448,646,o),
(420,616,o),
(384,616,cs)
);
},
{
closed = 1;
nodes = (
(438,584,o),
(480,628,o),
(480,680,cs),
(480,734,o),
(438,776,o),
(384,776,cs),
(332,776,o),
(288,734,o),
(288,680,cs),
(288,628,o),
(332,584,o),
(384,584,cs)
);
},
{
closed = 1;
nodes = (
(646,24,o),
(616,54,o),
(616,88,cs),
(616,124,o),
(646,152,o),
(680,152,cs),
(716,152,o),
(744,124,o),
(744,88,cs),
(744,54,o),
(716,24,o),
(680,24,cs)
);
},
{
closed = 1;
nodes = (
(734,-8,o),
(776,36,o),
(776,88,cs),
(776,142,o),
(734,184,o),
(680,184,cs),
(628,184,o),
(584,142,o),
(584,88,cs),
(584,36,o),
(628,-8,o),
(680,-8,cs)
);
},
{
closed = 1;
nodes = (
(646,320,o),
(616,350,o),
(616,384,cs),
(616,420,o),
(646,448,o),
(680,448,cs),
(716,448,o),
(744,420,o),
(744,384,cs),
(744,350,o),
(716,320,o),
(680,320,cs)
);
},
{
closed = 1;
nodes = (
(734,288,o),
(776,332,o),
(776,384,cs),
(776,438,o),
(734,480,o),
(680,480,cs),
(628,480,o),
(584,438,o),
(584,384,cs),
(584,332,o),
(628,288,o),
(680,288,cs)
);
},
{
closed = 1;
nodes = (
(646,616,o),
(616,646,o),
(616,680,cs),
(616,716,o),
(646,744,o),
(680,744,cs),
(716,744,o),
(744,716,o),
(744,680,cs),
(744,646,o),
(716,616,o),
(680,616,cs)
);
},
{
closed = 1;
nodes = (
(734,584,o),
(776,628,o),
(776,680,cs),
(776,734,o),
(734,776,o),
(680,776,cs),
(628,776,o),
(584,734,o),
(584,680,cs),
(584,628,o),
(628,584,o),
(680,584,cs)
);
},
{
closed = 1;
nodes = (
(108,176,l),
(108,304,l),
(68,304,l),
(68,176,l)
);
},
{
closed = 1;
nodes = (
(108,464,l),
(108,592,l),
(68,592,l),
(68,464,l)
);
},
{
closed = 1;
nodes = (
(404,176,l),
(404,304,l),
(364,304,l),
(364,176,l)
);
},
{
closed = 1;
nodes = (
(404,464,l),
(404,592,l),
(364,592,l),
(364,464,l)
);
},
{
closed = 1;
nodes = (
(700,176,l),
(700,304,l),
(660,304,l),
(660,176,l)
);
},
{
closed = 1;
nodes = (
(700,464,l),
(700,592,l),
(660,592,l),
(660,464,l)
);
},
{
closed = 1;
nodes = (
(592,660,l),
(592,700,l),
(464,700,l),
(464,660,l)
);
},
{
closed = 1;
nodes = (
(304,660,l),
(304,700,l),
(176,700,l),
(176,660,l)
);
},
{
closed = 1;
nodes = (
(592,364,l),
(592,404,l),
(464,404,l),
(464,364,l)
);
},
{
closed = 1;
nodes = (
(304,364,l),
(304,404,l),
(176,404,l),
(176,364,l)
);
},
{
closed = 1;
nodes = (
(592,68,l),
(592,108,l),
(464,108,l),
(464,68,l)
);
},
{
closed = 1;
nodes = (
(304,68,l),
(304,108,l),
(176,108,l),
(176,68,l)
);
}
);
width = 840;
}
);
unicode = 57348;
},
{
glyphname = E005;
lastChange = "2025-02-21 22:55:19 +0000";
layers = (
{
layerId = m001;
shapes = (
{
closed = 1;
nodes = (
(72,56,o),
(56,72,o),
(56,88,cs),
(56,106,o),
(72,120,o),
(88,120,cs),
(106,120,o),
(120,106,o),
(120,88,cs),
(120,72,o),
(106,56,o),
(88,56,cs)
);
},
{
closed = 1;
nodes = (
(142,-8,o),
(184,36,o),
(184,88,cs),
(184,142,o),
(142,184,o),
(88,184,cs),
(36,184,o),
(-8,142,o),
(-8,88,cs),
(-8,36,o),
(36,-8,o),
(88,-8,cs)
);
},
{
closed = 1;
nodes = (
(142,288,o),
(184,332,o),
(184,384,cs),
(184,438,o),
(142,480,o),
(88,480,cs),
(36,480,o),
(-8,438,o),
(-8,384,cs),
(-8,332,o),
(36,288,o),
(88,288,cs)
);
},
{
closed = 1;
nodes = (
(142,584,o),
(184,628,o),
(184,680,cs),
(184,734,o),
(142,776,o),
(88,776,cs),
(36,776,o),
(-8,734,o),
(-8,680,cs),
(-8,628,o),
(36,584,o),
(88,584,cs)
);
},
{
closed = 1;
nodes = (
(438,-8,o),
(480,36,o),
(480,88,cs),
(480,142,o),
(438,184,o),
(384,184,cs),
(332,184,o),
(288,142,o),
(288,88,cs),
(288,36,o),
(332,-8,o),
(384,-8,cs)
);
},
{
closed = 1;
nodes = (
(438,288,o),
(480,332,o),
(480,384,cs),
(480,438,o),
(438,480,o),
(384,480,cs),
(332,480,o),
(288,438,o),
(288,384,cs),
(288,332,o),
(332,288,o),
(384,288,cs)
);
},
{
closed = 1;
nodes = (
(438,584,o),
(480,628,o),
(480,680,cs),
(480,734,o),
(438,776,o),
(384,776,cs),
(332,776,o),
(288,734,o),
(288,680,cs),
(288,628,o),
(332,584,o),
(384,584,cs)
);
},
{
closed = 1;
nodes = (
(734,-8,o),
(776,36,o),
(776,88,cs),
(776,142,o),
(734,184,o),
(680,184,cs),
(628,184,o),
(584,142,o),
(584,88,cs),
(584,36,o),
(628,-8,o),
(680,-8,cs)
);
},
{
closed = 1;
nodes = (
(734,288,o),
(776,332,o),
(776,384,cs),
(776,438,o),
(734,480,o),
(680,480,cs),
(628,480,o),
(584,438,o),
(584,384,cs),
(584,332,o),
(628,288,o),
(680,288,cs)
);
},
{
closed = 1;
nodes = (
(734,584,o),
(776,628,o),
(776,680,cs),
(776,734,o),
(734,776,o),
(680,776,cs),
(628,776,o),
(584,734,o),
(584,680,cs),
(584,628,o),
(628,584,o),
(680,584,cs)
);
},
{
closed = 1;
nodes = (
(104,176,l),
(104,304,l),
(72,304,l),
(72,176,l)
);
},
{
closed = 1;
nodes = (
(104,464,l),
(104,592,l),
(72,592,l),
(72,464,l)
);
},
{
closed = 1;
nodes = (
(400,176,l),
(400,304,l),
(368,304,l),
(368,176,l)
);
},
{
closed = 1;
nodes = (
(400,464,l),
(400,592,l),
(368,592,l),
(368,464,l)
);
},
{
closed = 1;
nodes = (
(696,176,l),
(696,304,l),
(664,304,l),
(664,176,l)
);
},
{
closed = 1;
nodes = (
(696,464,l),
(696,592,l),
(664,592,l),
(664,464,l)
);
},
{
closed = 1;
nodes = (
(592,664,l),
(592,696,l),
(464,696,l),
(464,664,l)
);
},
{
closed = 1;
nodes = (
(304,664,l),
(304,696,l),
(176,696,l),
(176,664,l)
);
},
{
closed = 1;
nodes = (
(592,368,l),
(592,400,l),
(464,400,l),
(464,368,l)
);
},
{
closed = 1;
nodes = (
(304,368,l),
(304,400,l),
(176,400,l),
(176,368,l)
);
},
{
closed = 1;
nodes = (
(592,72,l),
(592,104,l),
(464,104,l),
(464,72,l)
);
},
{
closed = 1;
nodes = (
(304,72,l),
(304,104,l),
(176,104,l),
(176,72,l)
);
},
{
closed = 1;
nodes = (
(72,352,o),
(56,368,o),
(56,384,cs),
(56,402,o),
(72,416,o),
(88,416,cs),
(106,416,o),
(120,402,o),
(120,384,cs),
(120,368,o),
(106,352,o),
(88,352,cs)
);
},
{
closed = 1;
nodes = (
(72,648,o),
(56,664,o),
(56,680,cs),
(56,698,o),
(72,712,o),
(88,712,cs),
(106,712,o),
(120,698,o),
(120,680,cs),
(120,664,o),
(106,648,o),
(88,648,cs)
);
},
{
closed = 1;
nodes = (
(368,56,o),
(352,72,o),
(352,88,cs),
(352,106,o),
(368,120,o),
(384,120,cs),
(402,120,o),
(416,106,o),
(416,88,cs),
(416,72,o),
(402,56,o),
(384,56,cs)
);
},
{
closed = 1;
nodes = (
(368,352,o),
(352,368,o),
(352,384,cs),
(352,402,o),
(368,416,o),
(384,416,cs),
(402,416,o),
(416,402,o),
(416,384,cs),
(416,368,o),
(402,352,o),
(384,352,cs)
);
},
{
closed = 1;
nodes = (
(368,648,o),
(352,664,o),
(352,680,cs),
(352,698,o),
(368,712,o),
(384,712,cs),
(402,712,o),
(416,698,o),
(416,680,cs),
(416,664,o),
(402,648,o),
(384,648,cs)
);
},
{
closed = 1;
nodes = (
(664,56,o),
(648,72,o),
(648,88,cs),
(648,106,o),
(664,120,o),
(680,120,cs),
(698,120,o),
(712,106,o),
(712,88,cs),
(712,72,o),
(698,56,o),
(680,56,cs)
);
},
{
closed = 1;
nodes = (
(664,352,o),
(648,368,o),
(648,384,cs),
(648,402,o),
(664,416,o),
(680,416,cs),
(698,416,o),
(712,402,o),
(712,384,cs),
(712,368,o),
(698,352,o),
(680,352,cs)
);
},
{
closed = 1;
nodes = (
(664,648,o),
(648,664,o),
(648,680,cs),
(648,698,o),
(664,712,o),
(680,712,cs),
(698,712,o),
(712,698,o),
(712,680,cs),
(712,664,o),
(698,648,o),
(680,648,cs)
);
}
);
width = 904;
},
{
layerId = m002;
shapes = (
{
closed = 1;
nodes = (
(72,56,o),
(56,72,o),
(56,88,cs),
(56,106,o),
(72,120,o),
(88,120,cs),
(106,120,o),
(120,106,o),
(120,88,cs),
(120,72,o),
(106,56,o),
(88,56,cs)
);
},
{
closed = 1;
nodes = (
(142,-8,o),
(184,36,o),
(184,88,cs),
(184,142,o),
(142,184,o),
(88,184,cs),
(36,184,o),
(-8,142,o),
(-8,88,cs),
(-8,36,o),
(36,-8,o),
(88,-8,cs)
);
},
{
closed = 1;
nodes = (
(142,288,o),
(184,332,o),
(184,384,cs),
(184,438,o),
(142,480,o),
(88,480,cs),
(36,480,o),
(-8,438,o),
(-8,384,cs),
(-8,332,o),
(36,288,o),
(88,288,cs)
);
},
{
closed = 1;
nodes = (
(142,584,o),
(184,628,o),
(184,680,cs),
(184,734,o),
(142,776,o),
(88,776,cs),
(36,776,o),
(-8,734,o),
(-8,680,cs),
(-8,628,o),
(36,584,o),
(88,584,cs)
);
},
{
closed = 1;
nodes = (
(438,-8,o),
(480,36,o),
(480,88,cs),
(480,142,o),
(438,184,o),
(384,184,cs),
(332,184,o),
(288,142,o),
(288,88,cs),
(288,36,o),
(332,-8,o),
(384,-8,cs)
);
},
{
closed = 1;
nodes = (
(438,288,o),
(480,332,o),
(480,384,cs),
(480,438,o),
(438,480,o),
(384,480,cs),
(332,480,o),
(288,438,o),
(288,384,cs),
(288,332,o),
(332,288,o),
(384,288,cs)
);
},
{
closed = 1;
nodes = (
(438,584,o),
(480,628,o),
(480,680,cs),
(480,734,o),
(438,776,o),
(384,776,cs),
(332,776,o),
(288,734,o),
(288,680,cs),
(288,628,o),
(332,584,o),
(384,584,cs)
);
},
{
closed = 1;
nodes = (
(734,-8,o),
(776,36,o),
(776,88,cs),
(776,142,o),
(734,184,o),
(680,184,cs),
(628,184,o),
(584,142,o),
(584,88,cs),
(584,36,o),
(628,-8,o),
(680,-8,cs)
);
},
{
closed = 1;
nodes = (
(734,288,o),
(776,332,o),
(776,384,cs),
(776,438,o),
(734,480,o),
(680,480,cs),
(628,480,o),
(584,438,o),
(584,384,cs),
(584,332,o),
(628,288,o),
(680,288,cs)
);
},
{
closed = 1;
nodes = (
(734,584,o),
(776,628,o),
(776,680,cs),
(776,734,o),
(734,776,o),
(680,776,cs),
(628,776,o),
(584,734,o),
(584,680,cs),
(584,628,o),
(628,584,o),
(680,584,cs)
);
},
{
closed = 1;
nodes = (
(104,176,l),
(104,304,l),
(72,304,l),
(72,176,l)
);
},
{
closed = 1;
nodes = (
(104,464,l),
(104,592,l),
(72,592,l),
(72,464,l)
);
},
{
closed = 1;
nodes = (
(400,176,l),
(400,304,l),
(368,304,l),
(368,176,l)
);
},
{
closed = 1;
nodes = (
(400,464,l),
(400,592,l),
(368,592,l),
(368,464,l)
);
},
{
closed = 1;
nodes = (
(696,176,l),
(696,304,l),
(664,304,l),
(664,176,l)
);
},
{
closed = 1;
nodes = (
(696,464,l),
(696,592,l),
(664,592,l),
(664,464,l)
);
},
{
closed = 1;
nodes = (
(592,664,l),
(592,696,l),
(464,696,l),
(464,664,l)
);
},
{
closed = 1;
nodes = (
(304,664,l),
(304,696,l),
(176,696,l),
(176,664,l)
);
},
{
closed = 1;
nodes = (
(592,368,l),
(592,400,l),
(464,400,l),
(464,368,l)
);
},
{
closed = 1;
nodes = (
(304,368,l),
(304,400,l),
(176,400,l),
(176,368,l)
);
},
{
closed = 1;
nodes = (
(592,72,l),
(592,104,l),
(464,104,l),
(464,72,l)
);
},
{
closed = 1;
nodes = (
(304,72,l),
(304,104,l),
(176,104,l),
(176,72,l)
);
},
{
closed = 1;
nodes = (
(72,352,o),
(56,368,o),
(56,384,cs),
(56,402,o),
(72,416,o),
(88,416,cs),
(106,416,o),
(120,402,o),
(120,384,cs),
(120,368,o),
(106,352,o),
(88,352,cs)
);
},
{
closed = 1;
nodes = (
(72,648,o),
(56,664,o),
(56,680,cs),
(56,698,o),
(72,712,o),
(88,712,cs),
(106,712,o),
(120,698,o),
(120,680,cs),
(120,664,o),
(106,648,o),
(88,648,cs)
);
},
{
closed = 1;
nodes = (
(368,56,o),
(352,72,o),
(352,88,cs),
(352,106,o),
(368,120,o),
(384,120,cs),
(402,120,o),
(416,106,o),
(416,88,cs),
(416,72,o),
(402,56,o),
(384,56,cs)
);
},
{
closed = 1;
nodes = (
(368,352,o),
(352,368,o),
(352,384,cs),
(352,402,o),
(368,416,o),
(384,416,cs),
(402,416,o),
(416,402,o),
(416,384,cs),
(416,368,o),
(402,352,o),
(384,352,cs)
);
},
{
closed = 1;
nodes = (
(368,648,o),
(352,664,o),
(352,680,cs),
(352,698,o),
(368,712,o),
(384,712,cs),
(402,712,o),
(416,698,o),
(416,680,cs),
(416,664,o),
(402,648,o),
(384,648,cs)
);
},
{
closed = 1;
nodes = (
(664,56,o),
(648,72,o),
(648,88,cs),
(648,106,o),
(664,120,o),
(680,120,cs),
(698,120,o),
(712,106,o),
(712,88,cs),
(712,72,o),
(698,56,o),
(680,56,cs)
);
},
{
closed = 1;
nodes = (
(664,352,o),
(648,368,o),
(648,384,cs),
(648,402,o),
(664,416,o),
(680,416,cs),
(698,416,o),
(712,402,o),
(712,384,cs),
(712,368,o),
(698,352,o),
(680,352,cs)
);
},
{
closed = 1;
nodes = (
(664,648,o),
(648,664,o),
(648,680,cs),
(648,698,o),
(664,712,o),
(680,712,cs),
(698,712,o),
(712,698,o),
(712,680,cs),
(712,664,o),
(698,648,o),
(680,648,cs)
);
}
);
width = 904;
}
);
unicode = 57349;
},
{
glyphname = E006;
lastChange = "2025-02-21 23:13:06 +0000";
layers = (
{
layerId = m001;
shapes = (
{
closed = 1;
nodes = (
(54,24,o),
(24,54,o),
(24,88,cs),
(24,124,o),
(54,152,o),
(88,152,cs),
(124,152,o),
(152,124,o),
(152,88,cs),
(152,54,o),
(124,24,o),
(88,24,cs)
);
},
{
closed = 1;
nodes = (
(142,-8,o),
(184,36,o),
(184,88,cs),
(184,142,o),
(142,184,o),
(88,184,cs),
(36,184,o),
(-8,142,o),
(-8,88,cs),
(-8,36,o),
(36,-8,o),
(88,-8,cs)
);
},
{
closed = 1;
nodes = (
(54,320,o),
(24,350,o),
(24,384,cs),
(24,420,o),
(54,448,o),
(88,448,cs),
(124,448,o),
(152,420,o),
(152,384,cs),
(152,350,o),
(124,320,o),
(88,320,cs)
);
},
{
closed = 1;
nodes = (
(142,288,o),
(184,332,o),
(184,384,cs),
(184,438,o),
(142,480,o),
(88,480,cs),
(36,480,o),
(-8,438,o),
(-8,384,cs),
(-8,332,o),
(36,288,o),
(88,288,cs)
);
},
{
closed = 1;
nodes = (
(54,616,o),
(24,646,o),
(24,680,cs),
(24,716,o),
(54,744,o),
(88,744,cs),
(124,744,o),
(152,716,o),
(152,680,cs),
(152,646,o),
(124,616,o),
(88,616,cs)
);
},
{
closed = 1;
nodes = (
(142,584,o),
(184,628,o),
(184,680,cs),
(184,734,o),
(142,776,o),
(88,776,cs),
(36,776,o),
(-8,734,o),
(-8,680,cs),
(-8,628,o),
(36,584,o),
(88,584,cs)
);
},
{
closed = 1;
nodes = (
(350,24,o),
(320,54,o),
(320,88,cs),
(320,124,o),
(350,152,o),
(384,152,cs),
(420,152,o),
(448,124,o),
(448,88,cs),
(448,54,o),
(420,24,o),
(384,24,cs)
);
},
{
closed = 1;
nodes = (
(438,-8,o),
(480,36,o),
(480,88,cs),
(480,142,o),
(438,184,o),
(384,184,cs),
(332,184,o),
(288,142,o),
(288,88,cs),
(288,36,o),
(332,-8,o),
(384,-8,cs)
);
},
{
closed = 1;
nodes = (
(350,320,o),
(320,350,o),
(320,384,cs),
(320,420,o),
(350,448,o),
(384,448,cs),
(420,448,o),
(448,420,o),
(448,384,cs),
(448,350,o),
(420,320,o),
(384,320,cs)
);
},
{
closed = 1;
nodes = (
(438,288,o),
(480,332,o),
(480,384,cs),
(480,438,o),
(438,480,o),
(384,480,cs),
(332,480,o),
(288,438,o),
(288,384,cs),
(288,332,o),
(332,288,o),
(384,288,cs)
);
},
{
closed = 1;
nodes = (
(350,616,o),
(320,646,o),
(320,680,cs),
(320,716,o),
(350,744,o),
(384,744,cs),
(420,744,o),
(448,716,o),
(448,680,cs),
(448,646,o),
(420,616,o),
(384,616,cs)
);
},
{
closed = 1;
nodes = (
(438,584,o),
(480,628,o),
(480,680,cs),
(480,734,o),
(438,776,o),
(384,776,cs),
(332,776,o),
(288,734,o),
(288,680,cs),
(288,628,o),
(332,584,o),
(384,584,cs)
);
},
{
closed = 1;
nodes = (
(646,24,o),
(616,54,o),
(616,88,cs),
(616,124,o),
(646,152,o),
(680,152,cs),
(716,152,o),
(744,124,o),
(744,88,cs),
(744,54,o),
(716,24,o),
(680,24,cs)
);
},
{
closed = 1;
nodes = (
(734,-8,o),
(776,36,o),
(776,88,cs),
(776,142,o),
(734,184,o),
(680,184,cs),
(628,184,o),
(584,142,o),
(584,88,cs),
(584,36,o),
(628,-8,o),
(680,-8,cs)
);
},
{
closed = 1;
nodes = (
(646,320,o),
(616,350,o),
(616,384,cs),
(616,420,o),
(646,448,o),
(680,448,cs),
(716,448,o),
(744,420,o),
(744,384,cs),
(744,350,o),
(716,320,o),
(680,320,cs)
);
},
{
closed = 1;
nodes = (
(734,288,o),
(776,332,o),
(776,384,cs),
(776,438,o),
(734,480,o),
(680,480,cs),
(628,480,o),
(584,438,o),
(584,384,cs),
(584,332,o),
(628,288,o),
(680,288,cs)
);
},
{
closed = 1;
nodes = (
(646,616,o),
(616,646,o),
(616,680,cs),
(616,716,o),
(646,744,o),
(680,744,cs),
(716,744,o),
(744,716,o),
(744,680,cs),
(744,646,o),
(716,616,o),
(680,616,cs)
);
},
{
closed = 1;
nodes = (
(734,584,o),
(776,628,o),
(776,680,cs),
(776,734,o),
(734,776,o),
(680,776,cs),
(628,776,o),
(584,734,o),
(584,680,cs),
(584,628,o),
(628,584,o),
(680,584,cs)
);
}
);
width = 840;
},
{
layerId = m002;
shapes = (
{
closed = 1;
nodes = (
(54,24,o),
(24,54,o),
(24,88,cs),
(24,124,o),
(54,152,o),
(88,152,cs),
(124,152,o),
(152,124,o),
(152,88,cs),
(152,54,o),
(124,24,o),
(88,24,cs)
);
},
{
closed = 1;
nodes = (
(142,-8,o),
(184,36,o),
(184,88,cs),
(184,142,o),
(142,184,o),
(88,184,cs),
(36,184,o),
(-8,142,o),
(-8,88,cs),
(-8,36,o),
(36,-8,o),
(88,-8,cs)
);
},
{
closed = 1;
nodes = (
(54,320,o),
(24,350,o),
(24,384,cs),
(24,420,o),
(54,448,o),
(88,448,cs),
(124,448,o),
(152,420,o),
(152,384,cs),
(152,350,o),
(124,320,o),
(88,320,cs)
);
},
{
closed = 1;
nodes = (
(142,288,o),
(184,332,o),
(184,384,cs),
(184,438,o),
(142,480,o),
(88,480,cs),
(36,480,o),
(-8,438,o),
(-8,384,cs),
(-8,332,o),
(36,288,o),
(88,288,cs)
);
},
{
closed = 1;
nodes = (
(54,616,o),
(24,646,o),
(24,680,cs),
(24,716,o),
(54,744,o),
(88,744,cs),
(124,744,o),
(152,716,o),
(152,680,cs),
(152,646,o),
(124,616,o),
(88,616,cs)
);
},
{
closed = 1;
nodes = (
(142,584,o),
(184,628,o),
(184,680,cs),
(184,734,o),
(142,776,o),
(88,776,cs),
(36,776,o),
(-8,734,o),
(-8,680,cs),
(-8,628,o),
(36,584,o),
(88,584,cs)
);
},
{
closed = 1;
nodes = (
(350,24,o),
(320,54,o),
(320,88,cs),
(320,124,o),
(350,152,o),
(384,152,cs),
(420,152,o),
(448,124,o),
(448,88,cs),
(448,54,o),
(420,24,o),
(384,24,cs)
);
},
{
closed = 1;
nodes = (
(438,-8,o),
(480,36,o),
(480,88,cs),
(480,142,o),
(438,184,o),
(384,184,cs),
(332,184,o),
(288,142,o),
(288,88,cs),
(288,36,o),
(332,-8,o),
(384,-8,cs)
);
},
{
closed = 1;
nodes = (
(350,320,o),
(320,350,o),
(320,384,cs),
(320,420,o),
(350,448,o),
(384,448,cs),
(420,448,o),
(448,420,o),
(448,384,cs),
(448,350,o),
(420,320,o),
(384,320,cs)
);
},
{
closed = 1;
nodes = (
(438,288,o),
(480,332,o),
(480,384,cs),
(480,438,o),
(438,480,o),
(384,480,cs),
(332,480,o),
(288,438,o),
(288,384,cs),
(288,332,o),
(332,288,o),
(384,288,cs)
);
},
{
closed = 1;
nodes = (
(350,616,o),
(320,646,o),
(320,680,cs),
(320,716,o),
(350,744,o),
(384,744,cs),
(420,744,o),
(448,716,o),
(448,680,cs),
(448,646,o),
(420,616,o),
(384,616,cs)
);
},
{
closed = 1;
nodes = (
(438,584,o),
(480,628,o),
(480,680,cs),
(480,734,o),
(438,776,o),
(384,776,cs),
(332,776,o),
(288,734,o),
(288,680,cs),
(288,628,o),
(332,584,o),
(384,584,cs)
);
},
{
closed = 1;
nodes = (
(646,24,o),
(616,54,o),
(616,88,cs),
(616,124,o),
(646,152,o),
(680,152,cs),
(716,152,o),
(744,124,o),
(744,88,cs),
(744,54,o),
(716,24,o),
(680,24,cs)
);
},
{
closed = 1;
nodes = (
(734,-8,o),
(776,36,o),
(776,88,cs),
(776,142,o),
(734,184,o),
(680,184,cs),
(628,184,o),
(584,142,o),
(584,88,cs),
(584,36,o),
(628,-8,o),
(680,-8,cs)
);
},
{
closed = 1;
nodes = (
(646,320,o),
(616,350,o),
(616,384,cs),
(616,420,o),
(646,448,o),
(680,448,cs),
(716,448,o),
(744,420,o),
(744,384,cs),
(744,350,o),
(716,320,o),
(680,320,cs)
);
},
{
closed = 1;
nodes = (
(734,288,o),
(776,332,o),
(776,384,cs),
(776,438,o),
(734,480,o),
(680,480,cs),
(628,480,o),
(584,438,o),
(584,384,cs),
(584,332,o),
(628,288,o),
(680,288,cs)
);
},
{
closed = 1;
nodes = (
(646,616,o),
(616,646,o),
(616,680,cs),
(616,716,o),
(646,744,o),
(680,744,cs),
(716,744,o),
(744,716,o),
(744,680,cs),
(744,646,o),
(716,616,o),
(680,616,cs)
);
},
{
closed = 1;
nodes = (
(734,584,o),
(776,628,o),
(776,680,cs),
(776,734,o),
(734,776,o),
(680,776,cs),
(628,776,o),
(584,734,o),
(584,680,cs),
(584,628,o),
(628,584,o),
(680,584,cs)
);
}
);
width = 840;
}
);
unicode = 57350;
},
{
glyphname = E007;
lastChange = "2025-02-22 05:00:35 +0000";
layers = (
{
layerId = m001;
shapes = (
{
closed = 1;
nodes = (
(92,-8,o),
(120,22,o),
(120,56,cs),
(120,92,o),
(92,120,o),
(56,120,cs),
(22,120,o),
(-8,92,o),
(-8,56,cs),
(-8,22,o),
(22,-8,o),
(56,-8,cs)
);
},
{
closed = 1;
nodes = (
(92,320,o),
(120,350,o),
(120,384,cs),
(120,420,o),
(92,448,o),
(56,448,cs),
(22,448,o),
(-8,420,o),
(-8,384,cs),
(-8,350,o),
(22,320,o),
(56,320,cs)
);
},
{
closed = 1;
nodes = (
(92,648,o),
(120,678,o),
(120,712,cs),
(120,748,o),
(92,776,o),
(56,776,cs),
(22,776,o),
(-8,748,o),
(-8,712,cs),
(-8,678,o),
(22,648,o),
(56,648,cs)
);
},
{
closed = 1;
nodes = (
(420,-8,o),
(448,22,o),
(448,56,cs),
(448,92,o),
(420,120,o),
(384,120,cs),
(350,120,o),
(320,92,o),
(320,56,cs),
(320,22,o),
(350,-8,o),
(384,-8,cs)
);
},
{
closed = 1;
nodes = (
(420,320,o),
(448,350,o),
(448,384,cs),
(448,420,o),
(420,448,o),
(384,448,cs),
(350,448,o),
(320,420,o),
(320,384,cs),
(320,350,o),
(350,320,o),
(384,320,cs)
);
},
{
closed = 1;
nodes = (
(420,648,o),
(448,678,o),
(448,712,cs),
(448,748,o),
(420,776,o),
(384,776,cs),
(350,776,o),
(320,748,o),
(320,712,cs),
(320,678,o),
(350,648,o),
(384,648,cs)
);
},
{
closed = 1;
nodes = (
(748,-8,o),
(776,22,o),
(776,56,cs),
(776,92,o),
(748,120,o),
(712,120,cs),
(678,120,o),
(648,92,o),
(648,56,cs),
(648,22,o),
(678,-8,o),
(712,-8,cs)
);
},
{
closed = 1;
nodes = (
(748,320,o),
(776,350,o),
(776,384,cs),
(776,420,o),
(748,448,o),
(712,448,cs),
(678,448,o),
(648,420,o),
(648,384,cs),
(648,350,o),
(678,320,o),
(712,320,cs)
);
},
{
closed = 1;
nodes = (
(748,648,o),
(776,678,o),
(776,712,cs),
(776,748,o),
(748,776,o),
(712,776,cs),
(678,776,o),
(648,748,o),
(648,712,cs),
(648,678,o),
(678,648,o),
(712,648,cs)
);
},
{
closed = 1;
nodes = (
(76,96,l),
(76,352,l),
(36,352,l),
(36,96,l)
);
},
{
closed = 1;
nodes = (
(76,416,l),
(76,672,l),
(36,672,l),
(36,416,l)
);
},
{
closed = 1;
nodes = (
(404,96,l),
(404,352,l),
(364,352,l),
(364,96,l)
);
},
{
closed = 1;
nodes = (
(404,416,l),
(404,672,l),
(364,672,l),
(364,416,l)
);
},
{
closed = 1;
nodes = (
(732,96,l),
(732,352,l),
(692,352,l),
(692,96,l)
);
},
{
closed = 1;
nodes = (
(732,416,l),
(732,672,l),
(692,672,l),
(692,416,l)
);
},
{
closed = 1;
nodes = (
(672,692,l),
(672,732,l),
(416,732,l),
(416,692,l)
);
},
{
closed = 1;
nodes = (
(352,692,l),
(352,732,l),
(96,732,l),
(96,692,l)
);
},
{
closed = 1;
nodes = (
(672,364,l),
(672,404,l),
(416,404,l),
(416,364,l)
);
},
{
closed = 1;
nodes = (
(352,364,l),
(352,404,l),
(96,404,l),
(96,364,l)
);
},
{
closed = 1;
nodes = (
(672,36,l),
(672,76,l),
(416,76,l),
(416,36,l)
);
},
{
closed = 1;
nodes = (
(352,36,l),
(352,76,l),
(96,76,l),
(96,36,l)
);
}
);
width = 840;
},
{
layerId = m002;
shapes = (
{
closed = 1;
nodes = (
(92,-8,o),
(120,22,o),
(120,56,cs),
(120,92,o),
(92,120,o),
(56,120,cs),
(22,120,o),
(-8,92,o),
(-8,56,cs),
(-8,22,o),
(22,-8,o),
(56,-8,cs)
);
},
{
closed = 1;
nodes = (
(92,320,o),
(120,350,o),
(120,384,cs),
(120,420,o),
(92,448,o),
(56,448,cs),
(22,448,o),
(-8,420,o),
(-8,384,cs),
(-8,350,o),
(22,320,o),
(56,320,cs)
);
},
{
closed = 1;
nodes = (
(92,648,o),
(120,678,o),
(120,712,cs),
(120,748,o),
(92,776,o),
(56,776,cs),
(22,776,o),
(-8,748,o),
(-8,712,cs),
(-8,678,o),
(22,648,o),
(56,648,cs)
);
},
{
closed = 1;
nodes = (
(420,-8,o),
(448,22,o),
(448,56,cs),
(448,92,o),
(420,120,o),
(384,120,cs),
(350,120,o),
(320,92,o),
(320,56,cs),
(320,22,o),
(350,-8,o),
(384,-8,cs)
);
},
{
closed = 1;
nodes = (
(420,320,o),
(448,350,o),
(448,384,cs),
(448,420,o),
(420,448,o),
(384,448,cs),
(350,448,o),
(320,420,o),
(320,384,cs),
(320,350,o),
(350,320,o),
(384,320,cs)
);
},
{
closed = 1;
nodes = (
(420,648,o),
(448,678,o),
(448,712,cs),
(448,748,o),
(420,776,o),
(384,776,cs),
(350,776,o),
(320,748,o),
(320,712,cs),
(320,678,o),
(350,648,o),
(384,648,cs)
);
},
{
closed = 1;
nodes = (
(748,-8,o),
(776,22,o),
(776,56,cs),
(776,92,o),
(748,120,o),
(712,120,cs),
(678,120,o),
(648,92,o),
(648,56,cs),
(648,22,o),
(678,-8,o),
(712,-8,cs)
);
},
{
closed = 1;
nodes = (
(748,320,o),
(776,350,o),
(776,384,cs),
(776,420,o),
(748,448,o),
(712,448,cs),
(678,448,o),
(648,420,o),
(648,384,cs),
(648,350,o),
(678,320,o),
(712,320,cs)
);
},
{
closed = 1;
nodes = (
(748,648,o),
(776,678,o),
(776,712,cs),
(776,748,o),
(748,776,o),
(712,776,cs),
(678,776,o),
(648,748,o),
(648,712,cs),
(648,678,o),
(678,648,o),
(712,648,cs)
);
},
{
closed = 1;
nodes = (
(76,96,l),
(76,352,l),
(36,352,l),
(36,96,l)
);
},
{
closed = 1;
nodes = (
(76,416,l),
(76,672,l),
(36,672,l),
(36,416,l)
);
},
{
closed = 1;
nodes = (
(404,96,l),
(404,352,l),
(364,352,l),
(364,96,l)
);
},
{
closed = 1;
nodes = (
(404,416,l),
(404,672,l),
(364,672,l),
(364,416,l)
);
},
{
closed = 1;
nodes = (
(732,96,l),
(732,352,l),
(692,352,l),
(692,96,l)
);
},
{
closed = 1;
nodes = (
(732,416,l),
(732,672,l),
(692,672,l),
(692,416,l)
);
},
{
closed = 1;
nodes = (
(672,692,l),
(672,732,l),
(416,732,l),
(416,692,l)
);
},
{
closed = 1;
nodes = (
(352,692,l),
(352,732,l),
(96,732,l),
(96,692,l)
);
},
{
closed = 1;
nodes = (
(672,364,l),
(672,404,l),
(416,404,l),
(416,364,l)
);
},
{
closed = 1;
nodes = (
(352,364,l),
(352,404,l),
(96,404,l),
(96,364,l)
);
},
{
closed = 1;
nodes = (
(672,36,l),
(672,76,l),
(416,76,l),
(416,36,l)
);
},
{
closed = 1;
nodes = (
(352,36,l),
(352,76,l),
(96,76,l),
(96,36,l)
);
}
);
width = 840;
}
);
unicode = 57351;
},
{
glyphname = E008;
lastChange = "2025-10-23 18:38:36 +0000";
layers = (
{
layerId = m001;
shapes = (
{
closed = 1;
nodes = (
(112,120,l),
(112,352,l),
(64,352,l),
(64,120,l)
);
},
{
closed = 1;
nodes = (
(112,416,l),
(112,648,l),
(64,648,l),
(64,416,l)
);
},
{
closed = 1;
nodes = (
(408,120,l),
(408,352,l),
(360,352,l),
(360,120,l)
);
},
{
closed = 1;
nodes = (
(408,416,l),
(408,648,l),
(360,648,l),
(360,416,l)
);
},
{
closed = 1;
nodes = (
(704,120,l),
(704,352,l),
(656,352,l),
(656,120,l)
);
},
{
closed = 1;
nodes = (
(704,416,l),
(704,648,l),
(656,648,l),
(656,416,l)
);
},
{
closed = 1;
nodes = (
(648,656,l),
(648,704,l),
(416,704,l),
(416,656,l)
);
},
{
closed = 1;
nodes = (
(352,656,l),
(352,704,l),
(120,704,l),
(120,656,l)
);
},
{
closed = 1;
nodes = (
(648,360,l),
(648,408,l),
(416,408,l),
(416,360,l)
);
},
{
closed = 1;
nodes = (
(352,360,l),
(352,408,l),
(120,408,l),
(120,360,l)
);
},
{
closed = 1;
nodes = (
(648,64,l),
(648,112,l),
(416,112,l),
(416,64,l)
);
},
{
closed = 1;
nodes = (
(352,64,l),
(352,112,l),
(120,112,l),
(120,64,l)
);
},
{
closed = 1;
nodes = (
(402,56,o),
(416,70,o),
(416,88,cs),
(416,106,o),
(402,120,o),
(384,120,cs),
(366,120,o),
(352,106,o),
(352,88,cs),
(352,70,o),
(366,56,o),
(384,56,cs)
);
},
{
closed = 1;
nodes = (
(106,352,o),
(120,366,o),
(120,384,cs),
(120,402,o),
(106,416,o),
(88,416,cs),
(70,416,o),
(56,402,o),
(56,384,cs),
(56,366,o),
(70,352,o),
(88,352,cs)
);
},
{
closed = 1;
nodes = (
(106,56,o),
(120,70,o),
(120,88,cs),
(120,106,o),
(106,120,o),
(88,120,cs),
(70,120,o),
(56,106,o),
(56,88,cs),
(56,70,o),
(70,56,o),
(88,56,cs)
);
},
{
closed = 1;
nodes = (
(106,648,o),
(120,662,o),
(120,680,cs),
(120,698,o),
(106,712,o),
(88,712,cs),
(70,712,o),
(56,698,o),
(56,680,cs),
(56,662,o),
(70,648,o),
(88,648,cs)
);
},
{
closed = 1;
nodes = (
(698,352,o),
(712,366,o),
(712,384,cs),
(712,402,o),
(698,416,o),
(680,416,cs),
(662,416,o),
(648,402,o),
(648,384,cs),
(648,366,o),
(662,352,o),
(680,352,cs)
);
},
{
closed = 1;
nodes = (
(698,56,o),
(712,70,o),
(712,88,cs),
(712,106,o),
(698,120,o),
(680,120,cs),
(662,120,o),
(648,106,o),
(648,88,cs),
(648,70,o),
(662,56,o),
(680,56,cs)
);
},
{
closed = 1;
nodes = (
(698,648,o),
(712,662,o),
(712,680,cs),
(712,698,o),
(698,712,o),
(680,712,cs),
(662,712,o),
(648,698,o),
(648,680,cs),
(648,662,o),
(662,648,o),
(680,648,cs)
);
},
{
closed = 1;
nodes = (
(402,354,o),
(416,366,o),
(416,384,cs),
(416,402,o),
(402,418,o),
(384,418,cs),
(366,418,o),
(352,404,o),
(352,386,cs),
(352,368,o),
(366,354,o),
(384,354,cs)
);
},
{
closed = 1;
nodes = (
(402,648,o),
(416,662,o),
(416,680,cs),
(416,698,o),
(402,712,o),
(384,712,cs),
(366,712,o),
(352,698,o),
(352,680,cs),
(352,662,o),
(366,648,o),
(384,648,cs)
);
},
{
closed = 1;
nodes = (
(438,288,o),
(480,332,o),
(480,384,cs),
(480,438,o),
(438,480,o),
(384,480,cs),
(332,480,o),
(288,438,o),
(288,384,cs),
(288,332,o),
(332,288,o),
(384,288,cs)
);
},
{
closed = 1;
nodes = (
(734,288,o),
(776,332,o),
(776,384,cs),
(776,438,o),
(734,480,o),
(680,480,cs),
(628,480,o),
(584,438,o),
(584,384,cs),
(584,332,o),
(628,288,o),
(680,288,cs)
);
},
{
closed = 1;
nodes = (
(142,288,o),
(184,332,o),
(184,384,cs),
(184,438,o),
(142,480,o),
(88,480,cs),
(36,480,o),
(-8,438,o),
(-8,384,cs),
(-8,332,o),
(36,288,o),
(88,288,cs)
);
},
{
closed = 1;
nodes = (
(438,584,o),
(480,628,o),
(480,680,cs),
(480,734,o),
(438,776,o),
(384,776,cs),
(332,776,o),
(288,734,o),
(288,680,cs),
(288,628,o),
(332,584,o),
(384,584,cs)
);
},
{
closed = 1;
nodes = (
(734,584,o),
(776,628,o),
(776,680,cs),
(776,734,o),
(734,776,o),
(680,776,cs),
(628,776,o),
(584,734,o),
(584,680,cs),
(584,628,o),
(628,584,o),
(680,584,cs)
);
},
{
closed = 1;
nodes = (
(142,584,o),
(184,628,o),
(184,680,cs),
(184,734,o),
(142,776,o),
(88,776,cs),
(36,776,o),
(-8,734,o),
(-8,680,cs),
(-8,628,o),
(36,584,o),
(88,584,cs)
);
},
{
closed = 1;
nodes = (
(438,-8,o),
(480,36,o),
(480,88,cs),
(480,142,o),
(438,184,o),
(384,184,cs),
(332,184,o),
(288,142,o),
(288,88,cs),
(288,36,o),
(332,-8,o),
(384,-8,cs)
);
},
{
closed = 1;
nodes = (
(734,-8,o),
(776,36,o),
(776,88,cs),
(776,142,o),
(734,184,o),
(680,184,cs),
(628,184,o),
(584,142,o),
(584,88,cs),
(584,36,o),
(628,-8,o),
(680,-8,cs)
);
},
{
closed = 1;
nodes = (
(142,-8,o),
(184,36,o),
(184,88,cs),
(184,142,o),
(142,184,o),
(88,184,cs),
(36,184,o),
(-8,142,o),
(-8,88,cs),
(-8,36,o),
(36,-8,o),
(88,-8,cs)
);
}
);
width = 768;
},
{
layerId = m002;
shapes = (
{
closed = 1;
nodes = (
(112,120,l),
(112,352,l),
(64,352,l),
(64,120,l)
);
},
{
closed = 1;
nodes = (
(112,416,l),
(112,648,l),
(64,648,l),
(64,416,l)
);
},
{
closed = 1;
nodes = (
(408,120,l),
(408,352,l),
(360,352,l),
(360,120,l)
);
},
{
closed = 1;
nodes = (
(408,416,l),
(408,648,l),
(360,648,l),
(360,416,l)
);
},
{
closed = 1;
nodes = (
(704,120,l),
(704,352,l),
(656,352,l),
(656,120,l)
);
},
{
closed = 1;
nodes = (
(704,416,l),
(704,648,l),
(656,648,l),
(656,416,l)
);
},
{
closed = 1;
nodes = (
(648,656,l),
(648,704,l),
(416,704,l),
(416,656,l)
);
},
{
closed = 1;
nodes = (
(352,656,l),
(352,704,l),
(120,704,l),
(120,656,l)
);
},
{
closed = 1;
nodes = (
(648,360,l),
(648,408,l),
(416,408,l),
(416,360,l)
);
},
{
closed = 1;
nodes = (
(352,360,l),
(352,408,l),
(120,408,l),
(120,360,l)
);
},
{
closed = 1;
nodes = (
(648,64,l),
(648,112,l),
(416,112,l),
(416,64,l)
);
},
{
closed = 1;
nodes = (
(352,64,l),
(352,112,l),
(120,112,l),
(120,64,l)
);
},
{
closed = 1;
nodes = (
(402,56,o),
(416,70,o),
(416,88,cs),
(416,106,o),
(402,120,o),
(384,120,cs),
(366,120,o),
(352,106,o),
(352,88,cs),
(352,70,o),
(366,56,o),
(384,56,cs)
);
},
{
closed = 1;
nodes = (
(106,352,o),
(120,366,o),
(120,384,cs),
(120,402,o),
(106,416,o),
(88,416,cs),
(70,416,o),
(56,402,o),
(56,384,cs),
(56,366,o),
(70,352,o),
(88,352,cs)
);
},
{
closed = 1;
nodes = (
(106,56,o),
(120,70,o),
(120,88,cs),
(120,106,o),
(106,120,o),
(88,120,cs),
(70,120,o),
(56,106,o),
(56,88,cs),
(56,70,o),
(70,56,o),
(88,56,cs)
);
},
{
closed = 1;
nodes = (
(106,648,o),
(120,662,o),
(120,680,cs),
(120,698,o),
(106,712,o),
(88,712,cs),
(70,712,o),
(56,698,o),
(56,680,cs),
(56,662,o),
(70,648,o),
(88,648,cs)
);
},
{
closed = 1;
nodes = (
(698,352,o),
(712,366,o),
(712,384,cs),
(712,402,o),
(698,416,o),
(680,416,cs),
(662,416,o),
(648,402,o),
(648,384,cs),
(648,366,o),
(662,352,o),
(680,352,cs)
);
},
{
closed = 1;
nodes = (
(698,56,o),
(712,70,o),
(712,88,cs),
(712,106,o),
(698,120,o),
(680,120,cs),
(662,120,o),
(648,106,o),
(648,88,cs),
(648,70,o),
(662,56,o),
(680,56,cs)
);
},
{
closed = 1;
nodes = (
(698,648,o),
(712,662,o),
(712,680,cs),
(712,698,o),
(698,712,o),
(680,712,cs),
(662,712,o),
(648,698,o),
(648,680,cs),
(648,662,o),
(662,648,o),
(680,648,cs)
);
},
{
closed = 1;
nodes = (
(402,354,o),
(416,366,o),
(416,384,cs),
(416,402,o),
(402,418,o),
(384,418,cs),
(366,418,o),
(352,404,o),
(352,386,cs),
(352,368,o),
(366,354,o),
(384,354,cs)
);
},
{
closed = 1;
nodes = (
(402,648,o),
(416,662,o),
(416,680,cs),
(416,698,o),
(402,712,o),
(384,712,cs),
(366,712,o),
(352,698,o),
(352,680,cs),
(352,662,o),
(366,648,o),
(384,648,cs)
);
},
{
closed = 1;
nodes = (
(438,288,o),
(480,332,o),
(480,384,cs),
(480,438,o),
(438,480,o),
(384,480,cs),
(332,480,o),
(288,438,o),
(288,384,cs),
(288,332,o),
(332,288,o),
(384,288,cs)
);
},
{
closed = 1;
nodes = (
(734,288,o),
(776,332,o),
(776,384,cs),
(776,438,o),
(734,480,o),
(680,480,cs),
(628,480,o),
(584,438,o),
(584,384,cs),
(584,332,o),
(628,288,o),
(680,288,cs)
);
},
{
closed = 1;
nodes = (
(142,288,o),
(184,332,o),
(184,384,cs),
(184,438,o),
(142,480,o),
(88,480,cs),
(36,480,o),
(-8,438,o),
(-8,384,cs),
(-8,332,o),
(36,288,o),
(88,288,cs)
);
},
{
closed = 1;
nodes = (
(438,584,o),
(480,628,o),
(480,680,cs),
(480,734,o),
(438,776,o),
(384,776,cs),
(332,776,o),
(288,734,o),
(288,680,cs),
(288,628,o),
(332,584,o),
(384,584,cs)
);
},
{
closed = 1;
nodes = (
(734,584,o),
(776,628,o),
(776,680,cs),
(776,734,o),
(734,776,o),
(680,776,cs),
(628,776,o),
(584,734,o),
(584,680,cs),
(584,628,o),
(628,584,o),
(680,584,cs)
);
},
{
closed = 1;
nodes = (
(142,584,o),
(184,628,o),
(184,680,cs),
(184,734,o),
(142,776,o),
(88,776,cs),
(36,776,o),
(-8,734,o),
(-8,680,cs),
(-8,628,o),
(36,584,o),
(88,584,cs)
);
},
{
closed = 1;
nodes = (
(438,-8,o),
(480,36,o),
(480,88,cs),
(480,142,o),
(438,184,o),
(384,184,cs),
(332,184,o),
(288,142,o),
(288,88,cs),
(288,36,o),
(332,-8,o),
(384,-8,cs)
);
},
{
closed = 1;
nodes = (
(734,-8,o),
(776,36,o),
(776,88,cs),
(776,142,o),
(734,184,o),
(680,184,cs),
(628,184,o),
(584,142,o),
(584,88,cs),
(584,36,o),
(628,-8,o),
(680,-8,cs)
);
},
{
closed = 1;
nodes = (
(142,-8,o),
(184,36,o),
(184,88,cs),
(184,142,o),
(142,184,o),
(88,184,cs),
(36,184,o),
(-8,142,o),
(-8,88,cs),
(-8,36,o),
(36,-8,o),
(88,-8,cs)
);
}
);
width = 768;
}
);
unicode = 57352;
},
{
glyphname = E009;
lastChange = "2025-02-22 21:05:56 +0000";
layers = (
{
layerId = m001;
shapes = (
{
closed = 1;
nodes = (
(88,96,l),
(88,352,l),
(40,352,l),
(40,96,l)
);
},
{
closed = 1;
nodes = (
(88,416,l),
(88,672,l),
(40,672,l),
(40,416,l)
);
},
{
closed = 1;
nodes = (
(408,96,l),
(408,352,l),
(360,352,l),
(360,96,l)
);
},
{
closed = 1;
nodes = (
(408,416,l),
(408,672,l),
(360,672,l),
(360,416,l)
);
},
{
closed = 1;
nodes = (
(728,96,l),
(728,352,l),
(680,352,l),
(680,96,l)
);
},
{
closed = 1;
nodes = (
(728,416,l),
(728,672,l),
(680,672,l),
(680,416,l)
);
},
{
closed = 1;
nodes = (
(672,680,l),
(672,728,l),
(416,728,l),
(416,680,l)
);
},
{
closed = 1;
nodes = (
(352,680,l),
(352,728,l),
(96,728,l),
(96,680,l)
);
},
{
closed = 1;
nodes = (
(672,360,l),
(672,408,l),
(416,408,l),
(416,360,l)
);
},
{
closed = 1;
nodes = (
(352,360,l),
(352,408,l),
(96,408,l),
(96,360,l)
);
},
{
closed = 1;
nodes = (
(672,40,l),
(672,88,l),
(416,88,l),
(416,40,l)
);
},
{
closed = 1;
nodes = (
(352,40,l),
(352,88,l),
(96,88,l),
(96,40,l)
);
},
{
closed = 1;
nodes = (
(104,-8,o),
(136,24,o),
(136,64,cs),
(136,104,o),
(104,136,o),
(64,136,cs),
(24,136,o),
(-8,104,o),
(-8,64,cs),
(-8,24,o),
(24,-8,o),
(64,-8,cs)
);
},
{
closed = 1;
nodes = (
(424,-8,o),
(456,24,o),
(456,64,cs),
(456,104,o),
(424,136,o),
(384,136,cs),
(344,136,o),
(312,104,o),
(312,64,cs),
(312,24,o),
(344,-8,o),
(384,-8,cs)
);
},
{
closed = 1;
nodes = (
(744,-8,o),
(776,24,o),
(776,64,cs),
(776,104,o),
(744,136,o),
(704,136,cs),
(664,136,o),
(632,104,o),
(632,64,cs),
(632,24,o),
(664,-8,o),
(704,-8,cs)
);
},
{
closed = 1;
nodes = (
(104,632,o),
(136,664,o),
(136,704,cs),
(136,744,o),
(104,776,o),
(64,776,cs),
(24,776,o),
(-8,744,o),
(-8,704,cs),
(-8,664,o),
(24,632,o),
(64,632,cs)
);
},
{
closed = 1;
nodes = (
(424,632,o),
(456,664,o),
(456,704,cs),
(456,744,o),
(424,776,o),
(384,776,cs),
(344,776,o),
(312,744,o),
(312,704,cs),
(312,664,o),
(344,632,o),
(384,632,cs)
);
},
{
closed = 1;
nodes = (
(744,632,o),
(776,664,o),
(776,704,cs),
(776,744,o),
(744,776,o),
(704,776,cs),
(664,776,o),
(632,744,o),
(632,704,cs),
(632,664,o),
(664,632,o),
(704,632,cs)
);
},
{
closed = 1;
nodes = (
(104,312,o),
(136,344,o),
(136,384,cs),
(136,424,o),
(104,456,o),
(64,456,cs),
(24,456,o),
(-8,424,o),
(-8,384,cs),
(-8,344,o),
(24,312,o),
(64,312,cs)
);
},
{
closed = 1;
nodes = (
(424,312,o),
(456,344,o),
(456,384,cs),
(456,424,o),
(424,456,o),
(384,456,cs),
(344,456,o),
(312,424,o),
(312,384,cs),
(312,344,o),
(344,312,o),
(384,312,cs)
);
},
{
closed = 1;
nodes = (
(744,312,o),
(776,344,o),
(776,384,cs),
(776,424,o),
(744,456,o),
(704,456,cs),
(664,456,o),
(632,424,o),
(632,384,cs),
(632,344,o),
(664,312,o),
(704,312,cs)
);
},
{
closed = 1;
nodes = (
(366,32,o),
(352,46,o),
(352,64,cs),
(352,82,o),
(366,96,o),
(384,96,cs),
(402,96,o),
(416,82,o),
(416,64,cs),
(416,46,o),
(402,32,o),
(384,32,cs)
);
},
{
closed = 1;
nodes = (
(46,352,o),
(32,366,o),
(32,384,cs),
(32,402,o),
(46,416,o),
(64,416,cs),
(82,416,o),
(96,402,o),
(96,384,cs),
(96,366,o),
(82,352,o),
(64,352,cs)
);
},
{
closed = 1;
nodes = (
(46,32,o),
(32,46,o),
(32,64,cs),
(32,82,o),
(46,96,o),
(64,96,cs),
(82,96,o),
(96,82,o),
(96,64,cs),
(96,46,o),
(82,32,o),
(64,32,cs)
);
},
{
closed = 1;
nodes = (
(46,672,o),
(32,686,o),
(32,704,cs),
(32,722,o),
(46,736,o),
(64,736,cs),
(82,736,o),
(96,722,o),
(96,704,cs),
(96,686,o),
(82,672,o),
(64,672,cs)
);
},
{
closed = 1;
nodes = (
(686,352,o),
(672,366,o),
(672,384,cs),
(672,402,o),
(686,416,o),
(704,416,cs),
(722,416,o),
(736,402,o),
(736,384,cs),
(736,366,o),
(722,352,o),
(704,352,cs)
);
},
{
closed = 1;
nodes = (
(686,32,o),
(672,46,o),
(672,64,cs),
(672,82,o),
(686,96,o),
(704,96,cs),
(722,96,o),
(736,82,o),
(736,64,cs),
(736,46,o),
(722,32,o),
(704,32,cs)
);
},
{
closed = 1;
nodes = (
(686,672,o),
(672,686,o),
(672,704,cs),
(672,722,o),
(686,736,o),
(704,736,cs),
(722,736,o),
(736,722,o),
(736,704,cs),
(736,686,o),
(722,672,o),
(704,672,cs)
);
},
{
closed = 1;
nodes = (
(366,354,o),
(352,368,o),
(352,386,cs),
(352,404,o),
(366,418,o),
(384,418,cs),
(402,418,o),
(416,404,o),
(416,386,cs),
(416,368,o),
(402,354,o),
(384,354,cs)
);
},
{
closed = 1;
nodes = (
(366,672,o),
(352,686,o),
(352,704,cs),
(352,722,o),
(366,736,o),
(384,736,cs),
(402,736,o),
(416,722,o),
(416,704,cs),
(416,686,o),
(402,672,o),
(384,672,cs)
);
}
);
width = 768;
},
{
layerId = m002;
shapes = (
{
closed = 1;
nodes = (
(88,96,l),
(88,352,l),
(40,352,l),
(40,96,l)
);
},
{
closed = 1;
nodes = (
(88,416,l),
(88,672,l),
(40,672,l),
(40,416,l)
);
},
{
closed = 1;
nodes = (
(408,96,l),
(408,352,l),
(360,352,l),
(360,96,l)
);
},
{
closed = 1;
nodes = (
(408,416,l),
(408,672,l),
(360,672,l),
(360,416,l)
);
},
{
closed = 1;
nodes = (
(728,96,l),
(728,352,l),
(680,352,l),
(680,96,l)
);
},
{
closed = 1;
nodes = (
(728,416,l),
(728,672,l),
(680,672,l),
(680,416,l)
);
},
{
closed = 1;
nodes = (
(672,680,l),
(672,728,l),
(416,728,l),
(416,680,l)
);
},
{
closed = 1;
nodes = (
(352,680,l),
(352,728,l),
(96,728,l),
(96,680,l)
);
},
{
closed = 1;
nodes = (
(672,360,l),
(672,408,l),
(416,408,l),
(416,360,l)
);
},
{
closed = 1;
nodes = (
(352,360,l),
(352,408,l),
(96,408,l),
(96,360,l)
);
},
{
closed = 1;
nodes = (
(672,40,l),
(672,88,l),
(416,88,l),
(416,40,l)
);
},
{
closed = 1;
nodes = (
(352,40,l),
(352,88,l),
(96,88,l),
(96,40,l)
);
},
{
closed = 1;
nodes = (
(104,-8,o),
(136,24,o),
(136,64,cs),
(136,104,o),
(104,136,o),
(64,136,cs),
(24,136,o),
(-8,104,o),
(-8,64,cs),
(-8,24,o),
(24,-8,o),
(64,-8,cs)
);
},
{
closed = 1;
nodes = (
(424,-8,o),
(456,24,o),
(456,64,cs),
(456,104,o),
(424,136,o),
(384,136,cs),
(344,136,o),
(312,104,o),
(312,64,cs),
(312,24,o),
(344,-8,o),
(384,-8,cs)
);
},
{
closed = 1;
nodes = (
(744,-8,o),
(776,24,o),
(776,64,cs),
(776,104,o),
(744,136,o),
(704,136,cs),
(664,136,o),
(632,104,o),
(632,64,cs),
(632,24,o),
(664,-8,o),
(704,-8,cs)
);
},
{
closed = 1;
nodes = (
(104,632,o),
(136,664,o),
(136,704,cs),
(136,744,o),
(104,776,o),
(64,776,cs),
(24,776,o),
(-8,744,o),
(-8,704,cs),
(-8,664,o),
(24,632,o),
(64,632,cs)
);
},
{
closed = 1;
nodes = (
(424,632,o),
(456,664,o),
(456,704,cs),
(456,744,o),
(424,776,o),
(384,776,cs),
(344,776,o),
(312,744,o),
(312,704,cs),
(312,664,o),
(344,632,o),
(384,632,cs)
);
},
{
closed = 1;
nodes = (
(744,632,o),
(776,664,o),
(776,704,cs),
(776,744,o),
(744,776,o),
(704,776,cs),
(664,776,o),
(632,744,o),
(632,704,cs),
(632,664,o),
(664,632,o),
(704,632,cs)
);
},
{
closed = 1;
nodes = (
(104,312,o),
(136,344,o),
(136,384,cs),
(136,424,o),
(104,456,o),
(64,456,cs),
(24,456,o),
(-8,424,o),
(-8,384,cs),
(-8,344,o),
(24,312,o),
(64,312,cs)
);
},
{
closed = 1;
nodes = (
(424,312,o),
(456,344,o),
(456,384,cs),
(456,424,o),
(424,456,o),
(384,456,cs),
(344,456,o),
(312,424,o),
(312,384,cs),
(312,344,o),
(344,312,o),
(384,312,cs)
);
},
{
closed = 1;
nodes = (
(744,312,o),
(776,344,o),
(776,384,cs),
(776,424,o),
(744,456,o),
(704,456,cs),
(664,456,o),
(632,424,o),
(632,384,cs),
(632,344,o),
(664,312,o),
(704,312,cs)
);
},
{
closed = 1;
nodes = (
(366,32,o),
(352,46,o),
(352,64,cs),
(352,82,o),
(366,96,o),
(384,96,cs),
(402,96,o),
(416,82,o),
(416,64,cs),
(416,46,o),
(402,32,o),
(384,32,cs)
);
},
{
closed = 1;
nodes = (
(46,352,o),
(32,366,o),
(32,384,cs),
(32,402,o),
(46,416,o),
(64,416,cs),
(82,416,o),
(96,402,o),
(96,384,cs),
(96,366,o),
(82,352,o),
(64,352,cs)
);
},
{
closed = 1;
nodes = (
(46,32,o),
(32,46,o),
(32,64,cs),
(32,82,o),
(46,96,o),
(64,96,cs),
(82,96,o),
(96,82,o),
(96,64,cs),
(96,46,o),
(82,32,o),
(64,32,cs)
);
},
{
closed = 1;
nodes = (
(46,672,o),
(32,686,o),
(32,704,cs),
(32,722,o),
(46,736,o),
(64,736,cs),
(82,736,o),
(96,722,o),
(96,704,cs),
(96,686,o),
(82,672,o),
(64,672,cs)
);
},
{
closed = 1;
nodes = (
(686,352,o),
(672,366,o),
(672,384,cs),
(672,402,o),
(686,416,o),
(704,416,cs),
(722,416,o),
(736,402,o),
(736,384,cs),
(736,366,o),
(722,352,o),
(704,352,cs)
);
},
{
closed = 1;
nodes = (
(686,32,o),
(672,46,o),
(672,64,cs),
(672,82,o),
(686,96,o),
(704,96,cs),
(722,96,o),
(736,82,o),
(736,64,cs),
(736,46,o),
(722,32,o),
(704,32,cs)
);
},
{
closed = 1;
nodes = (
(686,672,o),
(672,686,o),
(672,704,cs),
(672,722,o),
(686,736,o),
(704,736,cs),
(722,736,o),
(736,722,o),
(736,704,cs),
(736,686,o),
(722,672,o),
(704,672,cs)
);
},
{
closed = 1;
nodes = (
(366,354,o),
(352,368,o),
(352,386,cs),
(352,404,o),
(366,418,o),
(384,418,cs),
(402,418,o),
(416,404,o),
(416,386,cs),
(416,368,o),
(402,354,o),
(384,354,cs)
);
},
{
closed = 1;
nodes = (
(366,672,o),
(352,686,o),
(352,704,cs),
(352,722,o),
(366,736,o),
(384,736,cs),
(402,736,o),
(416,722,o),
(416,704,cs),
(416,686,o),
(402,672,o),
(384,672,cs)
);
}
);
width = 768;
}
);
unicode = 57353;
},
{
glyphname = E010;
lastChange = "2025-03-03 19:15:14 +0000";
layers = (
{
layerId = m001;
shapes = (
{
closed = 1;
nodes = (
(314,0,o),
(308,6,o),
(300,34,cs),
(246,226,ls),
(240,246,o),
(236,254,o),
(224,254,cs),
(210,254,o),
(202,248,o),
(192,238,cs),
(138,184,ls),
(122,168,o),
(108,160,o),
(90,160,cs),
(72,160,o),
(66,170,o),
(66,194,cs),
(64,718,ls),
(64,750,o),
(78,768,o),
(96,768,cs),
(120,768,o),
(142,752,o),
(176,718,cs),
(506,400,ls),
(526,382,o),
(540,364,o),
(540,346,cs),
(540,328,o),
(528,318,o),
(502,318,cs),
(388,318,ls),
(368,318,o),
(360,310,o),
(360,298,cs),
(360,284,o),
(370,272,o),
(378,258,cs),
(450,134,ls),
(460,118,o),
(478,94,o),
(478,80,cs),
(478,62,o),
(462,54,o),
(444,46,cs),
(366,8,ls),
(352,2,o),
(344,0,o),
(328,0,cs)
);
}
);
width = 572;
},
{
layerId = m002;
shapes = (
{
closed = 1;
nodes = (
(314,0,o),
(308,6,o),
(300,34,cs),
(246,226,ls),
(240,246,o),
(236,254,o),
(224,254,cs),
(210,254,o),
(202,248,o),
(192,238,cs),
(138,184,ls),
(122,168,o),
(108,160,o),
(90,160,cs),
(72,160,o),
(66,170,o),
(66,194,cs),
(64,718,ls),
(64,750,o),
(78,768,o),
(96,768,cs),
(120,768,o),
(142,752,o),
(176,718,cs),
(506,400,ls),
(526,382,o),
(540,364,o),
(540,346,cs),
(540,328,o),
(528,318,o),
(502,318,cs),
(388,318,ls),
(368,318,o),
(360,310,o),
(360,298,cs),
(360,284,o),
(370,272,o),
(378,258,cs),
(450,134,ls),
(460,118,o),
(478,94,o),
(478,80,cs),
(478,62,o),
(462,54,o),
(444,46,cs),
(366,8,ls),
(352,2,o),
(344,0,o),
(328,0,cs)
);
}
);
width = 572;
}
);
unicode = 57360;
},
{
glyphname = E011;
lastChange = "2025-03-03 19:35:03 +0000";
layers = (
{
layerId = m001;
shapes = (
{
closed = 1;
nodes = (
(432,0,ls),
(452,0,o),
(456,4,o),
(456,24,cs),
(456,90,ls),
(456,110,o),
(452,114,o),
(432,114,cs),
(200,114,ls),
(180,114,o),
(176,110,o),
(176,90,cs),
(176,24,ls),
(176,4,o),
(180,0,o),
(200,0,cs)
);
},
{
closed = 1;
nodes = (
(432,166,ls),
(454,166,o),
(460,164,o),
(480,192,cs),
(548,284,ls),
(556,296,o),
(564,306,o),
(564,316,cs),
(564,352,ls),
(564,358,o),
(560,372,o),
(556,384,cs),
(440,736,ls),
(430,768,o),
(416,768,o),
(400,768,cs),
(364,768,ls),
(348,768,o),
(342,760,o),
(342,736,cs),
(342,432,ls),
(342,410,o),
(346,406,o),
(352,402,cs),
(374,390,o),
(392,368,o),
(392,334,cs),
(392,290,o),
(360,258,o),
(316,258,cs),
(272,258,o),
(240,290,o),
(240,334,cs),
(240,368,o),
(258,390,o),
(280,402,cs),
(286,406,o),
(290,410,o),
(290,432,cs),
(290,736,ls),
(290,760,o),
(284,768,o),
(268,768,cs),
(232,768,ls),
(216,768,o),
(202,768,o),
(192,736,cs),
(76,384,ls),
(72,372,o),
(68,358,o),
(68,352,cs),
(68,316,ls),
(68,306,o),
(76,296,o),
(84,284,cs),
(152,192,ls),
(172,166,o),
(180,166,o),
(200,166,cs)
);
}
);
width = 640;
},
{
layerId = m002;
shapes = (
{
closed = 1;
nodes = (
(432,0,ls),
(452,0,o),
(456,4,o),
(456,24,cs),
(456,90,ls),
(456,110,o),
(452,114,o),
(432,114,cs),
(200,114,ls),
(180,114,o),
(176,110,o),
(176,90,cs),
(176,24,ls),
(176,4,o),
(180,0,o),
(200,0,cs)
);
},
{
closed = 1;
nodes = (
(432,166,ls),
(454,166,o),
(460,164,o),
(480,192,cs),
(548,284,ls),
(556,296,o),
(564,306,o),
(564,316,cs),
(564,352,ls),
(564,358,o),
(560,372,o),
(556,384,cs),
(440,736,ls),
(430,768,o),
(416,768,o),
(400,768,cs),
(364,768,ls),
(348,768,o),
(342,760,o),
(342,736,cs),
(342,432,ls),
(342,410,o),
(346,406,o),
(352,402,cs),
(374,390,o),
(392,368,o),
(392,334,cs),
(392,290,o),
(360,258,o),
(316,258,cs),
(272,258,o),
(240,290,o),
(240,334,cs),
(240,368,o),
(258,390,o),
(280,402,cs),
(286,406,o),
(290,410,o),
(290,432,cs),
(290,736,ls),
(290,760,o),
(284,768,o),
(268,768,cs),
(232,768,ls),
(216,768,o),
(202,768,o),
(192,736,cs),
(76,384,ls),
(72,372,o),
(68,358,o),
(68,352,cs),
(68,316,ls),
(68,306,o),
(76,296,o),
(84,284,cs),
(152,192,ls),
(172,166,o),
(180,166,o),
(200,166,cs)
);
}
);
width = 640;
}
);
unicode = 57361;
},
{
glyphname = E012;
lastChange = "2025-03-03 19:42:32 +0000";
layers = (
{
layerId = m001;
shapes = (
{
closed = 1;
nodes = (
(272,356,o),
(200,394,o),
(200,464,cs),
(200,544,o),
(240,604,o),
(350,604,cs),
(470,604,o),
(552,520,o),
(552,376,cs),
(552,294,o),
(470,184,o),
(314,184,cs),
(102,184,o),
(0,308,o),
(0,462,cs),
(0,652,o),
(130,784,o),
(366,784,cs),
(564,784,o),
(752,668,o),
(752,394,cs),
(752,194,o),
(648,-24,o),
(320,-24,cs),
(140,-24,o),
(0,8,o),
(0,78,cs),
(0,110,o),
(18,128,o),
(56,128,cs),
(92,128,o),
(150,90,o),
(320,90,cs),
(542,90,o),
(650,224,o),
(650,398,cs),
(650,540,o),
(524,692,o),
(366,692,cs),
(172,692,o),
(102,574,o),
(102,462,cs),
(102,348,o),
(196,276,o),
(320,276,cs),
(436,276,o),
(454,340,o),
(454,408,cs),
(454,474,o),
(410,516,o),
(342,516,cs),
(302,516,o),
(290,494,o),
(290,464,cs),
(290,424,o),
(362,438,o),
(362,398,cs),
(362,374,o),
(350,356,o),
(320,356,cs)
);
}
);
width = 752;
},
{
layerId = m002;
shapes = (
{
closed = 1;
nodes = (
(272,356,o),
(200,394,o),
(200,464,cs),
(200,544,o),
(240,604,o),
(350,604,cs),
(470,604,o),
(552,520,o),
(552,376,cs),
(552,294,o),
(470,184,o),
(314,184,cs),
(102,184,o),
(0,308,o),
(0,462,cs),
(0,652,o),
(130,784,o),
(366,784,cs),
(564,784,o),
(752,668,o),
(752,394,cs),
(752,194,o),
(648,-24,o),
(320,-24,cs),
(140,-24,o),
(0,8,o),
(0,78,cs),
(0,110,o),
(18,128,o),
(56,128,cs),
(92,128,o),
(150,90,o),
(320,90,cs),
(542,90,o),
(650,224,o),
(650,398,cs),
(650,540,o),
(524,692,o),
(366,692,cs),
(172,692,o),
(102,574,o),
(102,462,cs),
(102,348,o),
(196,276,o),
(320,276,cs),
(436,276,o),
(454,340,o),
(454,408,cs),
(454,474,o),
(410,516,o),
(342,516,cs),
(302,516,o),
(290,494,o),
(290,464,cs),
(290,424,o),
(362,438,o),
(362,398,cs),
(362,374,o),
(350,356,o),
(320,356,cs)
);
}
);
width = 752;
}
);
unicode = 57362;
},
{
glyphname = E013;
lastChange = "2025-03-03 19:55:51 +0000";
layers = (
{
layerId = m001;
shapes = (
{
closed = 1;
nodes = (
(772,388,o),
(770,430,o),
(746,454,cs),
(720,480,o),
(680,480,o),
(654,454,cs),
(638,438,o),
(632,380,o),
(616,364,cs),
(572,320,ls),
(564,312,o),
(556,316,o),
(552,322,cs),
(230,710,ls),
(224,718,o),
(220,728,o),
(214,734,cs),
(208,740,o),
(198,744,o),
(190,744,cs),
(28,762,ls),
(16,764,o),
(10,760,o),
(8,758,cs),
(4,754,o),
(2,750,o),
(4,738,cs),
(20,582,ls),
(20,574,o),
(28,556,o),
(34,550,cs),
(40,544,o),
(48,540,o),
(54,536,cs),
(444,214,ls),
(450,210,o),
(454,202,o),
(446,194,cs),
(388,136,ls),
(372,120,o),
(316,116,o),
(298,98,cs),
(274,74,o),
(272,32,o),
(298,6,cs),
(322,-18,o),
(366,-18,o),
(390,6,cs),
(408,24,o),
(412,80,o),
(428,96,cs),
(492,160,ls),
(500,168,o),
(506,168,o),
(514,160,cs),
(518,156,o),
(532,138,o),
(578,92,cs),
(598,72,o),
(630,48,o),
(632,46,cs),
(640,38,o),
(636,16,o),
(644,8,cs),
(668,-16,o),
(710,8,o),
(734,32,cs),
(760,58,o),
(782,98,o),
(758,122,cs),
(750,130,o),
(728,126,o),
(720,134,cs),
(718,136,o),
(694,168,o),
(674,188,cs),
(644,218,o),
(610,248,o),
(606,252,cs),
(598,260,o),
(598,266,o),
(606,274,cs),
(656,324,ls),
(674,342,o),
(730,346,o),
(746,362,cs)
);
}
);
width = 768;
},
{
layerId = m002;
shapes = (
{
closed = 1;
nodes = (
(772,388,o),
(770,430,o),
(746,454,cs),
(720,480,o),
(680,480,o),
(654,454,cs),
(638,438,o),
(632,380,o),
(616,364,cs),
(572,320,ls),
(564,312,o),
(556,316,o),
(552,322,cs),
(230,710,ls),
(224,718,o),
(220,728,o),
(214,734,cs),
(208,740,o),
(198,744,o),
(190,744,cs),
(28,762,ls),
(16,764,o),
(10,760,o),
(8,758,cs),
(4,754,o),
(2,750,o),
(4,738,cs),
(20,582,ls),
(20,574,o),
(28,556,o),
(34,550,cs),
(40,544,o),
(48,540,o),
(54,536,cs),
(444,214,ls),
(450,210,o),
(454,202,o),
(446,194,cs),
(388,136,ls),
(372,120,o),
(316,116,o),
(298,98,cs),
(274,74,o),
(272,32,o),
(298,6,cs),
(322,-18,o),
(366,-18,o),
(390,6,cs),
(408,24,o),
(412,80,o),
(428,96,cs),
(492,160,ls),
(500,168,o),
(506,168,o),
(514,160,cs),
(518,156,o),
(532,138,o),
(578,92,cs),
(598,72,o),
(630,48,o),
(632,46,cs),
(640,38,o),
(636,16,o),
(644,8,cs),
(668,-16,o),
(710,8,o),
(734,32,cs),
(760,58,o),
(782,98,o),
(758,122,cs),
(750,130,o),
(728,126,o),
(720,134,cs),
(718,136,o),
(694,168,o),
(674,188,cs),
(644,218,o),
(610,248,o),
(606,252,cs),
(598,260,o),
(598,266,o),
(606,274,cs),
(656,324,ls),
(674,342,o),
(730,346,o),
(746,362,cs)
);
}
);
width = 768;
}
);
unicode = 57363;
},
{
glyphname = E014;
lastChange = "2025-03-03 21:14:13 +0000";
layers = (
{
layerId = m001;
shapes = (
{
closed = 1;
nodes = (
(240,0,o),
(232,10,o),
(232,24,cs),
(232,72,ls),
(232,84,o),
(226,94,o),
(208,112,cs),
(128,192,o),
(90,332,o),
(90,526,cs),
(90,596,o),
(114,630,o),
(138,630,cs),
(152,630,o),
(158,620,o),
(158,606,cs),
(158,590,o),
(154,574,o),
(154,534,cs),
(154,508,o),
(168,442,o),
(182,414,cs),
(186,406,o),
(194,404,o),
(200,404,cs),
(206,404,o),
(212,406,o),
(212,414,cs),
(212,426,o),
(200,466,o),
(200,502,cs),
(200,604,o),
(230,742,o),
(266,742,cs),
(302,742,o),
(298,718,o),
(298,706,cs),
(298,688,o),
(286,662,o),
(286,576,cs),
(286,506,o),
(290,480,o),
(292,472,cs),
(294,464,o),
(302,458,o),
(308,458,cs),
(314,458,o),
(322,464,o),
(322,472,cs),
(322,624,o),
(370,732,o),
(396,768,cs),
(412,790,o),
(428,798,o),
(450,798,cs),
(462,798,o),
(470,786,o),
(470,768,cs),
(470,744,o),
(416,680,o),
(416,526,cs),
(416,500,o),
(416,480,o),
(418,474,cs),
(420,468,o),
(424,466,o),
(428,466,cs),
(432,466,o),
(440,470,o),
(442,476,cs),
(470,604,o),
(518,676,o),
(552,708,cs),
(566,722,o),
(578,726,o),
(592,726,cs),
(606,726,o),
(610,716,o),
(610,700,cs),
(610,680,o),
(522,530,o),
(522,392,cs),
(522,334,o),
(558,308,o),
(582,308,cs),
(612,308,o),
(638,356,o),
(660,396,cs),
(686,442,o),
(708,462,o),
(734,462,cs),
(748,462,o),
(756,454,o),
(756,436,cs),
(756,396,o),
(668,130,o),
(518,64,cs),
(500,56,o),
(490,46,o),
(490,34,cs),
(490,24,ls),
(490,8,o),
(484,0,o),
(470,0,cs),
(256,0,ls)
);
}
);
width = 768;
},
{
layerId = m002;
shapes = (
{
closed = 1;
nodes = (
(240,0,o),
(232,10,o),
(232,24,cs),
(232,72,ls),
(232,84,o),
(226,94,o),
(208,112,cs),
(128,192,o),
(90,332,o),
(90,526,cs),
(90,596,o),
(114,630,o),
(138,630,cs),
(152,630,o),
(158,620,o),
(158,606,cs),
(158,590,o),
(154,574,o),
(154,534,cs),
(154,508,o),
(168,442,o),
(182,414,cs),
(186,406,o),
(194,404,o),
(200,404,cs),
(206,404,o),
(212,406,o),
(212,414,cs),
(212,426,o),
(200,466,o),
(200,502,cs),
(200,604,o),
(230,742,o),
(266,742,cs),
(302,742,o),
(298,718,o),
(298,706,cs),
(298,688,o),
(286,662,o),
(286,576,cs),
(286,506,o),
(290,480,o),
(292,472,cs),
(294,464,o),
(302,458,o),
(308,458,cs),
(314,458,o),
(322,464,o),
(322,472,cs),
(322,624,o),
(370,732,o),
(396,768,cs),
(412,790,o),
(428,798,o),
(450,798,cs),
(462,798,o),
(470,786,o),
(470,768,cs),
(470,744,o),
(416,680,o),
(416,526,cs),
(416,500,o),
(416,480,o),
(418,474,cs),
(420,468,o),
(424,466,o),
(428,466,cs),
(432,466,o),
(440,470,o),
(442,476,cs),
(470,604,o),
(518,676,o),
(552,708,cs),
(566,722,o),
(578,726,o),
(592,726,cs),
(606,726,o),
(610,716,o),
(610,700,cs),
(610,680,o),
(522,530,o),
(522,392,cs),
(522,334,o),
(558,308,o),
(582,308,cs),
(612,308,o),
(638,356,o),
(660,396,cs),
(686,442,o),
(708,462,o),
(734,462,cs),
(748,462,o),
(756,454,o),
(756,436,cs),
(756,396,o),
(668,130,o),
(518,64,cs),
(500,56,o),
(490,46,o),
(490,34,cs),
(490,24,ls),
(490,8,o),
(484,0,o),
(470,0,cs),
(256,0,ls)
);
}
);
width = 768;
}
);
unicode = 57364;
},
{
glyphname = E015;
lastChange = "2025-03-03 21:36:28 +0000";
layers = (
{
layerId = m001;
shapes = (
{
closed = 1;
nodes = (
(680,170,ls),
(696,186,o),
(696,200,o),
(680,216,cs),
(136,758,ls),
(120,774,o),
(106,774,o),
(90,758,cs),
(-70,598,ls),
(-86,582,o),
(-86,568,o),
(-70,552,cs),
(474,10,ls),
(490,-6,o),
(504,-6,o),
(520,10,cs)
);
},
{
closed = 1;
nodes = (
(10,524,o),
(6,524,o),
(-6,536,cs),
(-12,542,ls),
(-24,554,o),
(-24,558,o),
(-12,570,cs),
(46,628,ls),
(58,640,o),
(62,640,o),
(74,628,cs),
(80,622,ls),
(92,610,o),
(92,606,o),
(80,594,cs),
(22,536,ls)
);
},
{
closed = 1;
nodes = (
(88,444,o),
(84,444,o),
(72,456,cs),
(66,462,ls),
(54,474,o),
(54,478,o),
(66,490,cs),
(164,588,ls),
(176,600,o),
(180,600,o),
(192,588,cs),
(198,582,ls),
(210,570,o),
(210,566,o),
(198,554,cs),
(100,456,ls)
);
},
{
closed = 1;
nodes = (
(168,366,o),
(164,366,o),
(152,378,cs),
(146,384,ls),
(134,396,o),
(134,400,o),
(146,412,cs),
(204,470,ls),
(216,482,o),
(220,482,o),
(232,470,cs),
(238,464,ls),
(250,452,o),
(250,448,o),
(238,436,cs),
(180,378,ls)
);
},
{
closed = 1;
nodes = (
(248,286,o),
(242,286,o),
(230,298,cs),
(226,304,ls),
(214,316,o),
(214,320,o),
(226,332,cs),
(322,430,ls),
(334,442,o),
(338,442,o),
(350,430,cs),
(356,424,ls),
(368,412,o),
(368,408,o),
(356,396,cs),
(260,298,ls)
);
},
{
closed = 1;
nodes = (
(326,208,o),
(322,208,o),
(310,220,cs),
(304,224,ls),
(292,236,o),
(292,242,o),
(304,254,cs),
(362,312,ls),
(374,324,o),
(378,324,o),
(390,312,cs),
(396,306,ls),
(408,294,o),
(408,290,o),
(396,278,cs),
(338,220,ls)
);
},
{
closed = 1;
nodes = (
(406,128,o),
(402,128,o),
(390,140,cs),
(384,146,ls),
(372,158,o),
(372,162,o),
(384,174,cs),
(482,272,ls),
(494,284,o),
(498,284,o),
(510,272,cs),
(516,266,ls),
(528,254,o),
(528,250,o),
(516,238,cs),
(418,140,ls)
);
},
{
closed = 1;
nodes = (
(484,48,o),
(480,48,o),
(468,60,cs),
(462,66,ls),
(450,78,o),
(450,82,o),
(462,94,cs),
(520,152,ls),
(532,164,o),
(536,164,o),
(548,152,cs),
(554,148,ls),
(566,136,o),
(566,130,o),
(554,118,cs),
(496,60,ls)
);
}
);
width = 600;
},
{
layerId = m002;
shapes = (
{
closed = 1;
nodes = (
(680,170,ls),
(696,186,o),
(696,200,o),
(680,216,cs),
(136,758,ls),
(120,774,o),
(106,774,o),
(90,758,cs),
(-70,598,ls),
(-86,582,o),
(-86,568,o),
(-70,552,cs),
(474,10,ls),
(490,-6,o),
(504,-6,o),
(520,10,cs)
);
},
{
closed = 1;
nodes = (
(10,524,o),
(6,524,o),
(-6,536,cs),
(-12,542,ls),
(-24,554,o),
(-24,558,o),
(-12,570,cs),
(46,628,ls),
(58,640,o),
(62,640,o),
(74,628,cs),
(80,622,ls),
(92,610,o),
(92,606,o),
(80,594,cs),
(22,536,ls)
);
},
{
closed = 1;
nodes = (
(88,444,o),
(84,444,o),
(72,456,cs),
(66,462,ls),
(54,474,o),
(54,478,o),
(66,490,cs),
(164,588,ls),
(176,600,o),
(180,600,o),
(192,588,cs),
(198,582,ls),
(210,570,o),
(210,566,o),
(198,554,cs),
(100,456,ls)
);
},
{
closed = 1;
nodes = (
(168,366,o),
(164,366,o),
(152,378,cs),
(146,384,ls),
(134,396,o),
(134,400,o),
(146,412,cs),
(204,470,ls),
(216,482,o),
(220,482,o),
(232,470,cs),
(238,464,ls),
(250,452,o),
(250,448,o),
(238,436,cs),
(180,378,ls)
);
},
{
closed = 1;
nodes = (
(248,286,o),
(242,286,o),
(230,298,cs),
(226,304,ls),
(214,316,o),
(214,320,o),
(226,332,cs),
(322,430,ls),
(334,442,o),
(338,442,o),
(350,430,cs),
(356,424,ls),
(368,412,o),
(368,408,o),
(356,396,cs),
(260,298,ls)
);
},
{
closed = 1;
nodes = (
(326,208,o),
(322,208,o),
(310,220,cs),
(304,224,ls),
(292,236,o),
(292,242,o),
(304,254,cs),
(362,312,ls),
(374,324,o),
(378,324,o),
(390,312,cs),
(396,306,ls),
(408,294,o),
(408,290,o),
(396,278,cs),
(338,220,ls)
);
},
{
closed = 1;
nodes = (
(406,128,o),
(402,128,o),
(390,140,cs),
(384,146,ls),
(372,158,o),
(372,162,o),
(384,174,cs),
(482,272,ls),
(494,284,o),
(498,284,o),
(510,272,cs),
(516,266,ls),
(528,254,o),
(528,250,o),
(516,238,cs),
(418,140,ls)
);
},
{
closed = 1;
nodes = (
(484,48,o),
(480,48,o),
(468,60,cs),
(462,66,ls),
(450,78,o),
(450,82,o),
(462,94,cs),
(520,152,ls),
(532,164,o),
(536,164,o),
(548,152,cs),
(554,148,ls),
(566,136,o),
(566,130,o),
(554,118,cs),
(496,60,ls)
);
}
);
width = 600;
}
);
unicode = 57365;
},
{
glyphname = E016;
lastChange = "2025-03-03 22:27:32 +0000";
layers = (
{
layerId = m001;
shapes = (
{
closed = 1;
nodes = (
(538,546,l),
(538,736,ls),
(538,756,o),
(526,768,o),
(506,768,cs),
(32,768,ls),
(12,768,o),
(0,756,o),
(0,736,cs),
(0,262,ls),
(0,242,o),
(12,230,o),
(32,230,cs),
(220,230,l),
(220,308,l),
(102,308,ls),
(86,308,o),
(78,316,o),
(78,332,cs),
(78,666,ls),
(78,682,o),
(86,690,o),
(102,690,cs),
(436,690,ls),
(452,690,o),
(460,682,o),
(460,666,cs),
(460,546,l)
);
},
{
closed = 1;
nodes = (
(648,-16,o),
(782,116,o),
(782,280,cs),
(782,444,o),
(648,576,o),
(486,576,cs),
(322,576,o),
(192,444,o),
(192,280,cs),
(192,116,o),
(322,-16,o),
(486,-16,cs)
);
},
{
closed = 1;
nodes = (
(368,64,o),
(270,160,o),
(270,280,cs),
(270,400,o),
(368,496,o),
(486,496,cs),
(606,496,o),
(702,400,o),
(702,280,cs),
(702,160,o),
(606,64,o),
(486,64,cs)
);
}
);
width = 768;
},
{
layerId = m002;
shapes = (
{
closed = 1;
nodes = (
(538,546,l),
(538,736,ls),
(538,756,o),
(526,768,o),
(506,768,cs),
(32,768,ls),
(12,768,o),
(0,756,o),
(0,736,cs),
(0,262,ls),
(0,242,o),
(12,230,o),
(32,230,cs),
(220,230,l),
(220,308,l),
(102,308,ls),
(86,308,o),
(78,316,o),
(78,332,cs),
(78,666,ls),
(78,682,o),
(86,690,o),
(102,690,cs),
(436,690,ls),
(452,690,o),
(460,682,o),
(460,666,cs),
(460,546,l)
);
},
{
closed = 1;
nodes = (
(648,-16,o),
(782,116,o),
(782,280,cs),
(782,444,o),
(648,576,o),
(486,576,cs),
(322,576,o),
(192,444,o),
(192,280,cs),
(192,116,o),
(322,-16,o),
(486,-16,cs)
);
},
{
closed = 1;
nodes = (
(368,64,o),
(270,160,o),
(270,280,cs),
(270,400,o),
(368,496,o),
(486,496,cs),
(606,496,o),
(702,400,o),
(702,280,cs),
(702,160,o),
(606,64,o),
(486,64,cs)
);
}
);
width = 768;
}
);
unicode = 57366;
},
{
glyphname = E017;
lastChange = "2025-03-03 23:21:53 +0000";
layers = (
{
layerId = m001;
shapes = (
{
closed = 1;
nodes = (
(712,768,ls),
(734,768,o),
(744,760,o),
(744,736,cs),
(744,536,ls),
(744,520,o),
(728,504,o),
(712,504,cs),
(696,504,ls),
(678,504,o),
(668,520,o),
(662,536,cs),
(642,590,o),
(624,640,o),
(572,640,cs),
(532,640,ls),
(484,640,o),
(468,628,o),
(468,576,cs),
(468,252,ls),
(468,154,o),
(488,96,o),
(616,96,cs),
(640,96,o),
(648,88,o),
(648,64,cs),
(648,32,ls),
(648,8,o),
(640,0,o),
(616,0,cs),
(152,0,ls),
(128,0,o),
(120,8,o),
(120,32,cs),
(120,64,ls),
(120,88,o),
(128,96,o),
(152,96,cs),
(280,96,o),
(300,154,o),
(300,252,cs),
(300,576,ls),
(300,628,o),
(284,640,o),
(236,640,cs),
(196,640,ls),
(144,640,o),
(126,590,o),
(106,536,cs),
(100,520,o),
(90,504,o),
(72,504,cs),
(56,504,ls),
(40,504,o),
(24,520,o),
(24,536,cs),
(24,736,ls),
(24,760,o),
(34,768,o),
(56,768,cs)
);
}
);
width = 768;
},
{
layerId = m002;
shapes = (
{
closed = 1;
nodes = (
(712,768,ls),
(734,768,o),
(744,760,o),
(744,736,cs),
(744,536,ls),
(744,520,o),
(728,504,o),
(712,504,cs),
(696,504,ls),
(678,504,o),
(668,520,o),
(662,536,cs),
(642,590,o),
(624,640,o),
(572,640,cs),
(532,640,ls),
(484,640,o),
(468,628,o),
(468,576,cs),
(468,252,ls),
(468,154,o),
(488,96,o),
(616,96,cs),
(640,96,o),
(648,88,o),
(648,64,cs),
(648,32,ls),
(648,8,o),
(640,0,o),
(616,0,cs),
(152,0,ls),
(128,0,o),
(120,8,o),
(120,32,cs),
(120,64,ls),
(120,88,o),
(128,96,o),
(152,96,cs),
(280,96,o),
(300,154,o),
(300,252,cs),
(300,576,ls),
(300,628,o),
(284,640,o),
(236,640,cs),
(196,640,ls),
(144,640,o),
(126,590,o),
(106,536,cs),
(100,520,o),
(90,504,o),
(72,504,cs),
(56,504,ls),
(40,504,o),
(24,520,o),
(24,536,cs),
(24,736,ls),
(24,760,o),
(34,768,o),
(56,768,cs)
);
}
);
width = 768;
}
);
unicode = 57367;
},
{
glyphname = E018;
lastChange = "2025-03-13 05:37:20 +0000";
layers = (
{
layerId = m001;
shapes = (
{
closed = 1;
nodes = (
(546,576,ls),
(562,576,o),
(570,568,o),
(570,552,cs),
(570,218,ls),
(570,202,o),
(562,194,o),
(546,194,cs),
(222,194,ls),
(206,194,o),
(198,202,o),
(198,218,cs),
(198,552,ls),
(198,568,o),
(206,576,o),
(222,576,cs)
);
},
{
closed = 1;
nodes = (
(120,128,o),
(132,116,o),
(152,116,cs),
(616,116,ls),
(636,116,o),
(648,128,o),
(648,148,cs),
(648,622,ls),
(648,642,o),
(636,654,o),
(616,654,cs),
(152,654,ls),
(132,654,o),
(120,642,o),
(120,622,cs),
(120,148,ls)
);
}
);
width = 768;
},
{
layerId = m002;
shapes = (
{
closed = 1;
nodes = (
(546,576,ls),
(562,576,o),
(570,568,o),
(570,552,cs),
(570,218,ls),
(570,202,o),
(562,194,o),
(546,194,cs),
(222,194,ls),
(206,194,o),
(198,202,o),
(198,218,cs),
(198,552,ls),
(198,568,o),
(206,576,o),
(222,576,cs)
);
},
{
closed = 1;
nodes = (
(120,128,o),
(132,116,o),
(152,116,cs),
(616,116,ls),
(636,116,o),
(648,128,o),
(648,148,cs),
(648,622,ls),
(648,642,o),
(636,654,o),
(616,654,cs),
(152,654,ls),
(132,654,o),
(120,642,o),
(120,622,cs),
(120,148,ls)
);
}
);
width = 768;
}
);
unicode = 57368;
},
{
glyphname = E019;
lastChange = "2025-03-13 05:38:19 +0000";
layers = (
{
layerId = m001;
shapes = (
{
closed = 1;
nodes = (
(546,80,o),
(680,212,o),
(680,376,cs),
(680,540,o),
(546,672,o),
(384,672,cs),
(220,672,o),
(90,540,o),
(90,376,cs),
(90,212,o),
(220,80,o),
(384,80,cs)
);
},
{
closed = 1;
nodes = (
(266,160,o),
(168,256,o),
(168,376,cs),
(168,496,o),
(266,592,o),
(384,592,cs),
(504,592,o),
(600,496,o),
(600,376,cs),
(600,256,o),
(504,160,o),
(384,160,cs)
);
}
);
width = 768;
},
{
layerId = m002;
shapes = (
{
closed = 1;
nodes = (
(546,80,o),
(680,212,o),
(680,376,cs),
(680,540,o),
(546,672,o),
(384,672,cs),
(220,672,o),
(90,540,o),
(90,376,cs),
(90,212,o),
(220,80,o),
(384,80,cs)
);
},
{
closed = 1;
nodes = (
(266,160,o),
(168,256,o),
(168,376,cs),
(168,496,o),
(266,592,o),
(384,592,cs),
(504,592,o),
(600,496,o),
(600,376,cs),
(600,256,o),
(504,160,o),
(384,160,cs)
);
}
);
width = 768;
}
);
unicode = 57369;
},
{
glyphname = E020;
lastChange = "2025-03-13 05:41:05 +0000";
layers = (
{
layerId = m001;
shapes = (
{
closed = 1;
nodes = (
(120,230,ls),
(120,150,o),
(172,98,o),
(252,98,cs),
(516,98,ls),
(596,98,o),
(648,150,o),
(648,230,cs),
(648,522,ls),
(648,602,o),
(596,654,o),
(516,654,cs),
(252,654,ls),
(172,654,o),
(120,602,o),
(120,522,cs)
);
},
{
closed = 1;
nodes = (
(198,496,ls),
(198,552,o),
(222,576,o),
(278,576,cs),
(490,576,ls),
(546,576,o),
(570,552,o),
(570,496,cs),
(570,256,ls),
(570,200,o),
(546,176,o),
(490,176,cs),
(278,176,ls),
(222,176,o),
(198,200,o),
(198,256,cs)
);
}
);
width = 768;
},
{
layerId = m002;
shapes = (
{
closed = 1;
nodes = (
(120,230,ls),
(120,150,o),
(172,98,o),
(252,98,cs),
(516,98,ls),
(596,98,o),
(648,150,o),
(648,230,cs),
(648,522,ls),
(648,602,o),
(596,654,o),
(516,654,cs),
(252,654,ls),
(172,654,o),
(120,602,o),
(120,522,cs)
);
},
{
closed = 1;
nodes = (
(198,496,ls),
(198,552,o),
(222,576,o),
(278,576,cs),
(490,576,ls),
(546,576,o),
(570,552,o),
(570,496,cs),
(570,256,ls),
(570,200,o),
(546,176,o),
(490,176,cs),
(278,176,ls),
(222,176,o),
(198,200,o),
(198,256,cs)
);
}
);
width = 768;
}
);
unicode = 57376;
},
{
glyphname = E021;
lastChange = "2025-07-11 04:05:10 +0000";
layers = (
{
layerId = m001;
shapes = (
{
closed = 1;
nodes = (
(26,616,l),
(22,414,l),
(56,304,l),
(142,286,l),
(228,300,l),
(284,260,l),
(298,160,l),
(288,62,l),
(356,2,l),
(474,28,l),
(576,120,l),
(604,228,l),
(570,380,l),
(484,408,l),
(388,406,l),
(296,394,l),
(256,442,l),
(248,524,l),
(278,652,l),
(202,742,l),
(94,748,l)
);
},
{
closed = 1;
nodes = (
(110,468,l),
(94,506,l),
(100,554,l),
(148,562,l),
(174,520,l),
(142,472,l)
);
},
{
closed = 1;
nodes = (
(388,168,l),
(392,226,l),
(436,252,l),
(482,218,l),
(482,164,l),
(432,140,l)
);
}
);
width = 600;
},
{
layerId = m002;
shapes = (
{
closed = 1;
nodes = (
(26,616,l),
(22,414,l),
(56,304,l),
(142,286,l),
(228,300,l),
(284,260,l),
(298,160,l),
(288,62,l),
(356,2,l),
(474,28,l),
(576,120,l),
(604,228,l),
(570,380,l),
(484,408,l),
(388,406,l),
(296,394,l),
(256,442,l),
(248,524,l),
(278,652,l),
(202,742,l),
(94,748,l)
);
},
{
closed = 1;
nodes = (
(110,468,l),
(94,506,l),
(100,554,l),
(148,562,l),
(174,520,l),
(142,472,l)
);
},
{
closed = 1;
nodes = (
(388,168,l),
(392,226,l),
(436,252,l),
(482,218,l),
(482,164,l),
(432,140,l)
);
}
);
width = 600;
}
);
unicode = 57377;
},
{
glyphname = newGlyph;
lastChange = "2025-02-14 07:32:38 +0000";
layers = (
{
layerId = m001;
shapes = (
{
closed = 1;
nodes = (
(816,0,l),
(832,16,l),
(832,752,l),
(816,768,l),
(80,768,l),
(64,752,l),
(64,16,l),
(80,0,l)
);
},
{
closed = 1;
nodes = (
(96,592,l),
(96,728,l),
(104,736,l),
(240,736,l),
(248,728,l),
(248,592,l),
(240,584,l),
(104,584,l)
);
},
{
closed = 1;
nodes = (
(96,408,l),
(96,544,l),
(104,552,l),
(240,552,l),
(248,544,l),
(248,408,l),
(240,400,l),
(104,400,l)
);
},
{
closed = 1;
nodes = (
(96,224,l),
(96,360,l),
(104,368,l),
(240,368,l),
(248,360,l),
(248,224,l),
(240,216,l),
(104,216,l)
);
},
{
closed = 1;
nodes = (
(96,40,l),
(96,176,l),
(104,184,l),
(240,184,l),
(248,176,l),
(248,40,l),
(240,32,l),
(104,32,l)
);
},
{
closed = 1;
nodes = (
(280,592,l),
(280,728,l),
(288,736,l),
(424,736,l),
(432,728,l),
(432,592,l),
(424,584,l),
(288,584,l)
);
},
{
closed = 1;
nodes = (
(280,408,l),
(280,544,l),
(288,552,l),
(424,552,l),
(432,544,l),
(432,408,l),
(424,400,l),
(288,400,l)
);
},
{
closed = 1;
nodes = (
(280,224,l),
(280,360,l),
(288,368,l),
(424,368,l),
(432,360,l),
(432,224,l),
(424,216,l),
(288,216,l)
);
},
{
closed = 1;
nodes = (
(280,40,l),
(280,176,l),
(288,184,l),
(424,184,l),
(432,176,l),
(432,40,l),
(424,32,l),
(288,32,l)
);
},
{
closed = 1;
nodes = (
(464,592,l),
(464,728,l),
(472,736,l),
(608,736,l),
(616,728,l),
(616,592,l),
(608,584,l),
(472,584,l)
);
},
{
closed = 1;
nodes = (
(464,408,l),
(464,544,l),
(472,552,l),
(608,552,l),
(616,544,l),
(616,408,l),
(608,400,l),
(472,400,l)
);
},
{
closed = 1;
nodes = (
(464,224,l),
(464,360,l),
(472,368,l),
(608,368,l),
(616,360,l),
(616,224,l),
(608,216,l),
(472,216,l)
);
},
{
closed = 1;
nodes = (
(464,40,l),
(464,176,l),
(472,184,l),
(608,184,l),
(616,176,l),
(616,40,l),
(608,32,l),
(472,32,l)
);
},
{
closed = 1;
nodes = (
(648,592,l),
(648,728,l),
(656,736,l),
(792,736,l),
(800,728,l),
(800,592,l),
(792,584,l),
(656,584,l)
);
},
{
closed = 1;
nodes = (
(648,408,l),
(648,544,l),
(656,552,l),
(792,552,l),
(800,544,l),
(800,408,l),
(792,400,l),
(656,400,l)
);
},
{
closed = 1;
nodes = (
(648,224,l),
(648,360,l),
(656,368,l),
(792,368,l),
(800,360,l),
(800,224,l),
(792,216,l),
(656,216,l)
);
},
{
closed = 1;
nodes = (
(648,40,l),
(648,176,l),
(656,184,l),
(792,184,l),
(800,176,l),
(800,40,l),
(792,32,l),
(656,32,l)
);
}
);
width = 896;
},
{
layerId = m002;
shapes = (
{
closed = 1;
nodes = (
(816,0,l),
(832,16,l),
(832,752,l),
(816,768,l),
(80,768,l),
(64,752,l),
(64,16,l),
(80,0,l)
);
},
{
closed = 1;
nodes = (
(96,592,l),
(96,728,l),
(104,736,l),
(240,736,l),
(248,728,l),
(248,592,l),
(240,584,l),
(104,584,l)
);
},
{
closed = 1;
nodes = (
(96,408,l),
(96,544,l),
(104,552,l),
(240,552,l),
(248,544,l),
(248,408,l),
(240,400,l),
(104,400,l)
);
},
{
closed = 1;
nodes = (
(96,224,l),
(96,360,l),
(104,368,l),
(240,368,l),
(248,360,l),
(248,224,l),
(240,216,l),
(104,216,l)
);
},
{
closed = 1;
nodes = (
(96,40,l),
(96,176,l),
(104,184,l),
(240,184,l),
(248,176,l),
(248,40,l),
(240,32,l),
(104,32,l)
);
},
{
closed = 1;
nodes = (
(280,592,l),
(280,728,l),
(288,736,l),
(424,736,l),
(432,728,l),
(432,592,l),
(424,584,l),
(288,584,l)
);
},
{
closed = 1;
nodes = (
(280,408,l),
(280,544,l),
(288,552,l),
(424,552,l),
(432,544,l),
(432,408,l),
(424,400,l),
(288,400,l)
);
},
{
closed = 1;
nodes = (
(280,224,l),
(280,360,l),
(288,368,l),
(424,368,l),
(432,360,l),
(432,224,l),
(424,216,l),
(288,216,l)
);
},
{
closed = 1;
nodes = (
(280,40,l),
(280,176,l),
(288,184,l),
(424,184,l),
(432,176,l),
(432,40,l),
(424,32,l),
(288,32,l)
);
},
{
closed = 1;
nodes = (
(464,592,l),
(464,728,l),
(472,736,l),
(608,736,l),
(616,728,l),
(616,592,l),
(608,584,l),
(472,584,l)
);
},
{
closed = 1;
nodes = (
(464,408,l),
(464,544,l),
(472,552,l),
(608,552,l),
(616,544,l),
(616,408,l),
(608,400,l),
(472,400,l)
);
},
{
closed = 1;
nodes = (
(464,224,l),
(464,360,l),
(472,368,l),
(608,368,l),
(616,360,l),
(616,224,l),
(608,216,l),
(472,216,l)
);
},
{
closed = 1;
nodes = (
(464,40,l),
(464,176,l),
(472,184,l),
(608,184,l),
(616,176,l),
(616,40,l),
(608,32,l),
(472,32,l)
);
},
{
closed = 1;
nodes = (
(648,592,l),
(648,728,l),
(656,736,l),
(792,736,l),
(800,728,l),
(800,592,l),
(792,584,l),
(656,584,l)
);
},
{
closed = 1;
nodes = (
(648,408,l),
(648,544,l),
(656,552,l),
(792,552,l),
(800,544,l),
(800,408,l),
(792,400,l),
(656,400,l)
);
},
{
closed = 1;
nodes = (
(648,224,l),
(648,360,l),
(656,368,l),
(792,368,l),
(800,360,l),
(800,224,l),
(792,216,l),
(656,216,l)
);
},
{
closed = 1;
nodes = (
(648,40,l),
(648,176,l),
(656,184,l),
(792,184,l),
(800,176,l),
(800,40,l),
(792,32,l),
(656,32,l)
);
}
);
width = 896;
}
);
unicode = 61440;
},
